<svg width="17" height="27" viewBox="0 0 17 27" fill="none" xmlns="http://www.w3.org/2000/svg">
<path d="M8.62596 26.6046L8.8445 26.473C13.484 23.6797 16.2539 18.7934 16.2539 13.4024C16.2539 8.01136 13.484 3.12514 8.8445 0.331766L8.62596 0.200195L8.40743 0.331766C3.76789 3.12514 0.998023 8.01136 0.998023 13.4024C0.998023 18.7935 3.76789 23.6797 8.40743 26.473L8.62596 26.6046ZM8.62596 1.19231C10.7001 2.48356 12.4111 4.28225 13.5975 6.41862C14.7838 8.55498 15.4064 10.9585 15.4064 13.4024C15.4064 15.8463 14.7838 18.2498 13.5975 20.3862C12.4111 22.5226 10.7001 24.3212 8.62596 25.6125C6.55182 24.3212 4.84082 22.5226 3.65447 20.3862C2.46813 18.2498 1.84557 15.8463 1.84557 13.4024C1.84557 10.9585 2.46813 8.55498 3.65447 6.41862C4.84082 4.28225 6.55182 2.48356 8.62596 1.19231Z" fill="#252525"/>
<path d="M8.2025 5.34814H9.05005V21.4573H8.2025V5.34814Z" fill="#252525"/>
</svg>
