<svg width="1265" height="87" viewBox="0 0 1265 87" fill="none" xmlns="http://www.w3.org/2000/svg">
<path d="M25.5574 42.7972L25.5169 42.5407L25.8544 42.0277L26.1379 41.9737L26.4079 42.0682L26.8399 42.3247L27.4204 42.4597L28.0954 42.5407H28.5679L29.2024 42.4462L29.5399 42.2707L29.9044 41.9467L30.2689 41.5012V41.2312L30.3499 40.8532L30.3904 40.7857L30.1474 40.1917L30.1204 39.9352L29.7019 39.7192L29.5129 39.4627L29.6344 39.3142L29.2834 39.2467L28.7974 39.0712L27.8929 38.4637L26.9884 37.9642L26.6914 37.7347L26.4214 37.4377L26.0974 36.9517L26.0164 36.7762L25.9624 36.4792L25.8544 36.3577L25.7869 36.1957V35.3182L26.0029 35.1832L25.9084 34.8457L26.0029 34.5892L26.2324 34.4542L26.3539 33.9952L26.5024 33.8467L27.2854 33.5767L27.4609 33.4147L27.6904 33.3202L28.1494 33.2392H28.6354L29.3239 33.3202L29.7019 33.4012L30.4309 33.6712L30.5659 33.8062L30.6334 33.9952L30.4444 34.3597V34.6162L30.3229 34.6702H29.9584L29.5129 34.5757L28.9189 34.3867L28.4464 34.3192L28.0414 34.3462L27.9064 34.4137L27.9199 34.4947L27.4339 34.8187L27.2314 35.0482L27.0694 35.3317L26.9344 35.7232L27.0964 35.9932L27.1504 36.2497L27.1099 36.3037L27.2854 36.6142L27.7174 36.9517L27.7579 37.3162L27.9334 37.3972L28.5274 37.5052L28.8784 37.7482L29.6344 38.1262L30.2014 38.5852L30.4849 38.7067L30.7819 39.0577L30.8224 39.1927L31.1599 39.4897L31.2679 39.8137V40.0702L31.3624 40.1782L31.4704 40.3942L31.5379 40.9207L31.4434 41.4472L31.4164 41.8927L31.2544 42.1222L31.0384 42.6487L30.7279 42.9052L30.6199 43.0402L30.1204 43.3642L29.6749 43.5262L29.0404 43.6477H27.2584L26.3404 43.4722L25.7599 43.2022L25.5574 42.7972ZM34.1905 42.9997L34.123 42.6757V41.8657L34.069 41.6362L34.177 41.3662L34.123 41.1772L34.177 40.6912L34.1365 40.3672L34.177 39.9487L34.123 39.8137L34.177 38.9632V37.7617L34.1365 37.4782L34.1635 37.1542L34.2445 36.8167L34.123 36.6547V36.0202L34.177 35.6287L34.123 35.3992V34.6162L34.204 33.8467L34.4605 33.5902L34.7035 33.4687H39.3475L39.4825 33.5362L40.1035 33.7117L40.3195 34.0762L40.1575 34.3057L39.8875 34.4407L38.281 34.5892H37.1335L36.607 34.5217L36.2965 34.5892L35.8915 34.7377L35.5675 34.9402L35.3785 35.1562V35.7232L35.149 35.9932L35.3785 36.2227V36.6007L35.2705 36.7897L35.4325 36.9247L35.527 37.4242L35.9995 37.6402L36.418 37.6807H39.4285L39.6715 37.7212L39.793 37.7887L39.982 37.9912L40.117 38.3827L39.982 38.5717L39.7795 38.6797L39.442 38.7877L39.118 38.8282L38.7535 38.7337H36.58L36.499 38.6527L36.1885 38.8012L35.7565 38.8552L35.635 38.9902L35.446 39.3007L35.3785 39.5842L35.4325 39.9352L35.2705 40.2997L35.3785 40.6777V40.8397L35.122 40.8937L35.4055 41.2582V41.5822L35.3515 41.7307L35.608 42.1627L36.013 42.5407L36.2425 42.6352L36.7825 42.5407H37.795L38.4295 42.4867L38.6995 42.5407H39.847L40.036 42.5812L40.279 42.7972L40.225 43.0402V43.3912L39.901 43.5532L39.307 43.6207H36.5665L36.283 43.5532L36.1345 43.6207H34.852L34.4605 43.3102L34.177 43.1887L34.1905 42.9997ZM42.9585 43.1347L42.918 42.9727L42.7965 42.7432V41.9467L42.8505 41.3392L42.7965 41.1637V37.4512L42.837 37.1677L42.7965 36.6547L42.837 36.4522V34.8322L42.7965 34.6162L42.918 34.1572L42.864 34.1437L42.891 33.8062L43.161 33.5497L43.5795 33.4012H45.753L46.158 33.4282L46.671 33.5092L47.13 33.6712L47.67 33.9817L47.9265 34.1842L48.291 34.5757L48.4935 34.9537L48.6825 35.5477L48.6285 35.7502L48.7095 36.3712V36.8302L48.4935 37.2892L48.48 37.4242L48.345 37.8022L47.994 38.1532L47.913 38.3287L47.3865 38.8282V39.6382L47.6025 39.7732L48.048 40.4752L48.318 41.0287L48.399 41.4337L48.2775 41.5417L48.399 41.6362L48.858 42.1222L48.8985 42.2437V42.4462L49.1685 42.7972V43.1887L49.1145 43.2832L49.101 43.4317L48.8445 43.5397L48.453 43.5127L48.129 43.2967L47.9535 43.0807L47.643 42.4597L47.4405 42.1222L47.4 41.9737L47.454 41.8387L47.076 41.3797L46.374 40.0027L46.293 39.5302L45.7125 39.1792L44.673 38.9092L44.0655 39.5302L44.106 40.0297L44.079 40.5562V41.2042L44.0115 41.8387L44.0655 41.9197V42.9187L43.7685 43.2157L43.485 43.3237L43.296 43.3507L43.0395 43.2697L42.9585 43.1347ZM44.349 37.6672L44.7675 37.7482H46.4145L47.265 37.4107L47.2515 37.2082L47.454 36.8572L47.5485 36.5062V36.1822L47.508 35.8852L47.292 35.1832L46.671 34.7917L46.6305 34.6702L46.077 34.4002H44.8485L44.646 34.3597L44.295 34.6297L44.16 34.6432L44.2545 34.8997L44.1465 35.1427L44.106 35.8312L43.944 36.1552L44.106 36.3577L44.025 36.8032L44.106 37.1812L44.0655 37.3837L44.1195 37.4782L44.349 37.6672ZM53.8865 42.8647L53.792 42.5947L53.846 42.4057L53.576 41.8657V41.6497L53.414 41.2717V40.9477L53.3735 40.7317L53.1845 40.5022L53.1575 40.1782L53.2115 39.9622L53.0765 39.8812L52.6715 38.5042L52.6985 38.1937L52.4015 37.6942L52.253 36.9652L52.0775 36.3172L52.1315 36.1147L52.0235 35.9797L51.902 35.5747V35.4937L51.6725 34.8457L51.632 34.5082L51.443 34.1302L51.4565 33.9142L51.6995 33.5767L51.8615 33.5092L52.2935 33.5362L52.631 33.7522L52.8065 33.9817L52.874 34.1707V34.4542L52.8065 34.6027L53.036 34.8322L53.4275 36.4792L53.5355 36.8167L53.657 37.4377L53.5625 37.6537L53.792 37.8292L53.8325 37.9912L53.684 38.2477L53.8865 38.4097L53.981 38.5582L54.116 38.9092L54.1565 39.0982L54.116 39.5707L54.278 39.8002L54.3185 40.1647L54.548 40.2862L54.9665 40.2592L55.088 40.0162L55.2635 39.5302L55.493 38.4232L55.628 38.2747L55.655 37.7617L55.79 37.7482L55.7495 37.3432L55.8305 36.9922L56.0735 36.6277L56.0195 36.3307L56.222 36.0607V35.5747L56.384 35.2507L56.5055 34.5082L56.7485 33.9277L57.0185 33.6307L57.194 33.5227H57.6665L57.9095 33.7657L57.869 34.0627L57.9635 34.3057L57.8825 34.4542L57.815 34.8457L57.5585 35.6152V35.8582L57.383 36.2092L57.356 36.4117L57.221 36.6817L57.194 37.0867L57.005 37.3972V37.6672L56.8025 38.0182L56.735 38.2072L56.762 38.3422L56.4785 39.4627L56.384 39.6652V39.9082L56.195 40.2727L56.249 40.5292L55.709 42.2167L55.52 42.4867L55.6415 42.5947L55.5875 42.7837L55.2095 43.3642L55.034 43.4722H54.3995L54.2645 43.4047L53.8865 42.8647ZM61.6556 34.2382L61.2371 33.9817L61.2911 33.7792L61.3991 33.6847L61.7501 33.5362L62.2091 33.4552H63.1946L64.0991 33.5497L64.7471 33.4687L64.9226 33.4957L65.4086 33.6847L65.5436 33.9817L65.1521 34.2382L64.8956 34.3327L65.0846 34.5757L64.6526 34.6702L64.2746 34.8457L64.0991 35.0212L63.9641 35.2642L63.9101 35.7367L64.0181 36.0607L63.8426 36.4522L64.0046 36.9787L63.9506 37.2082L63.9776 37.2757V37.5997L63.8696 37.9237L64.0046 38.2477L63.8966 38.5447L64.0181 39.0712L63.9236 39.2467L63.7346 39.3547L63.9506 39.5167L64.0181 39.6922L63.9506 39.9892L64.0046 40.4752V41.1502L63.9371 41.5552L64.1936 42.2437L64.3556 42.3652L64.6931 42.3922L65.0036 42.4597L65.2331 42.5677L65.4491 42.7837L65.5031 43.1077L65.4761 43.1887L65.2196 43.5127L64.8551 43.5532H64.2476L63.7751 43.6072H61.9526L61.6961 43.5667L61.4801 43.4722L61.3181 43.2967L61.3586 43.0267L61.3181 42.7297L61.3586 42.6757L61.6286 42.5407L62.3306 42.3922L62.5601 42.1222L62.6816 41.9197L62.8436 41.5012V40.9072L62.8841 40.7317L62.7626 40.6372V38.4232L62.8166 37.8562L62.7626 37.6807V36.2497L62.7221 36.0337L62.8166 35.6962V35.1697L62.6141 34.8997L62.1416 34.6162L61.4801 34.4002L61.6556 34.2382ZM69.3571 42.0952L69.1951 41.7307V41.3932L69.4111 41.2042L68.9791 41.1367L68.9116 40.7047L68.8711 40.5967L68.7901 40.2187L68.7361 39.5167L68.6551 39.1387V37.7617L68.8171 37.2352L68.7631 36.9517L68.8846 36.2497L68.9926 35.9527L69.2491 35.6557L69.1411 35.5477L69.2356 35.2102L69.3841 35.0482L69.4381 34.8052L69.8971 34.3327L69.9916 34.1572L70.2751 33.8197L70.7881 33.5227L71.1931 33.4957L71.2471 33.4282L71.4091 33.2932L71.7466 33.2392H72.8131L72.9751 33.3607L73.9606 33.6442L74.3116 33.8467L74.9461 34.6702L74.8516 35.1292L74.7166 35.2912L74.5546 35.3857H74.3116L73.8931 35.1697L73.2451 34.5487L72.5971 34.2517H72.0841L71.6656 34.3597L70.9501 34.7782L70.6531 35.0212L70.7206 35.1697L70.6396 35.3452L70.2886 35.8312L70.2481 36.2227L70.0996 36.4117L69.9511 36.4927L70.0726 36.8437L69.9376 37.0867V37.3162L69.9781 37.5052L69.9376 37.7482L69.8431 37.9102L69.9511 38.2477L69.8836 38.5312L69.9376 39.1387L69.8836 39.4762L70.0051 39.5302L70.1266 40.6912L70.2751 40.8937L70.3831 41.1907L70.4101 41.4472L70.6531 41.5822L70.7881 41.7712L70.9366 42.0547L71.1121 42.2437L71.2876 42.3517L71.7466 42.4867L72.2866 42.5407L72.8131 42.5002L73.2451 42.3787L73.4746 42.2302L74.0956 41.6902L74.3791 41.5957L74.7841 41.6362L74.8651 41.6767L75.0271 42.3922L74.5411 42.9187L74.1631 43.2292L73.7851 43.4182L73.3396 43.5667L72.6511 43.7422H72.0841L71.4496 43.6747L70.8961 43.5127L70.5451 43.3372L70.1131 43.0132L69.6946 42.5947L69.3571 42.0952ZM77.8282 42.9997L77.7607 42.6757V41.8657L77.7067 41.6362L77.8147 41.3662L77.7607 41.1772L77.8147 40.6912L77.7742 40.3672L77.8147 39.9487L77.7607 39.8137L77.8147 38.9632V37.7617L77.7742 37.4782L77.8012 37.1542L77.8822 36.8167L77.7607 36.6547V36.0202L77.8147 35.6287L77.7607 35.3992V34.6162L77.8417 33.8467L78.0982 33.5902L78.3412 33.4687H82.9852L83.1202 33.5362L83.7412 33.7117L83.9572 34.0762L83.7952 34.3057L83.5252 34.4407L81.9187 34.5892H80.7712L80.2447 34.5217L79.9342 34.5892L79.5292 34.7377L79.2052 34.9402L79.0162 35.1562V35.7232L78.7867 35.9932L79.0162 36.2227V36.6007L78.9082 36.7897L79.0702 36.9247L79.1647 37.4242L79.6372 37.6402L80.0557 37.6807H83.0662L83.3092 37.7212L83.4307 37.7887L83.6197 37.9912L83.7547 38.3827L83.6197 38.5717L83.4172 38.6797L83.0797 38.7877L82.7557 38.8282L82.3912 38.7337H80.2177L80.1367 38.6527L79.8262 38.8012L79.3942 38.8552L79.2727 38.9902L79.0837 39.3007L79.0162 39.5842L79.0702 39.9352L78.9082 40.2997L79.0162 40.6777V40.8397L78.7597 40.8937L79.0432 41.2582V41.5822L78.9892 41.7307L79.2457 42.1627L79.6507 42.5407L79.8802 42.6352L80.4202 42.5407H81.4327L82.0672 42.4867L82.3372 42.5407H83.4847L83.6737 42.5812L83.9167 42.7972L83.8627 43.0402V43.3912L83.5387 43.5532L82.9447 43.6207H80.2042L79.9207 43.5532L79.7722 43.6207H78.4897L78.0982 43.3102L77.8147 43.1887L77.8282 42.9997ZM86.6502 42.7972L86.6097 42.5407L86.9472 42.0277L87.2307 41.9737L87.5007 42.0682L87.9327 42.3247L88.5132 42.4597L89.1882 42.5407H89.6607L90.2952 42.4462L90.6327 42.2707L90.9972 41.9467L91.3617 41.5012V41.2312L91.4427 40.8532L91.4832 40.7857L91.2402 40.1917L91.2132 39.9352L90.7947 39.7192L90.6057 39.4627L90.7272 39.3142L90.3762 39.2467L89.8902 39.0712L88.9857 38.4637L88.0812 37.9642L87.7842 37.7347L87.5142 37.4377L87.1902 36.9517L87.1092 36.7762L87.0552 36.4792L86.9472 36.3577L86.8797 36.1957V35.3182L87.0957 35.1832L87.0012 34.8457L87.0957 34.5892L87.3252 34.4542L87.4467 33.9952L87.5952 33.8467L88.3782 33.5767L88.5537 33.4147L88.7832 33.3202L89.2422 33.2392H89.7282L90.4167 33.3202L90.7947 33.4012L91.5237 33.6712L91.6587 33.8062L91.7262 33.9952L91.5372 34.3597V34.6162L91.4157 34.6702H91.0512L90.6057 34.5757L90.0117 34.3867L89.5392 34.3192L89.1342 34.3462L88.9992 34.4137L89.0127 34.4947L88.5267 34.8187L88.3242 35.0482L88.1622 35.3317L88.0272 35.7232L88.1892 35.9932L88.2432 36.2497L88.2027 36.3037L88.3782 36.6142L88.8102 36.9517L88.8507 37.3162L89.0262 37.3972L89.6202 37.5052L89.9712 37.7482L90.7272 38.1262L91.2942 38.5852L91.5777 38.7067L91.8747 39.0577L91.9152 39.1927L92.2527 39.4897L92.3607 39.8137V40.0702L92.4552 40.1782L92.5632 40.3942L92.6307 40.9207L92.5362 41.4472L92.5092 41.8927L92.3472 42.1222L92.1312 42.6487L91.8207 42.9052L91.7127 43.0402L91.2132 43.3642L90.7677 43.5262L90.1332 43.6477H88.3512L87.4332 43.4722L86.8527 43.2022L86.6502 42.7972Z" fill="#252525"/>
<rect x="1.45898" y="8.14087" width="1263" height="61.0137" stroke="#252525"/>
<rect x="170.902" y="29.8408" width="17.6136" height="17.6136" stroke="#252525"/>
<rect x="317.124" y="29.8408" width="17.6136" height="17.6136" stroke="#252525"/>
<path d="M203.825 43.1752V42.9052L203.717 42.7027L203.812 42.2707L203.663 42.0952V41.2717L203.717 40.7992L203.677 40.5697V39.4222L203.785 39.3817L203.663 39.0847L203.69 39.1252V38.8687L203.785 38.6527L203.717 38.5312V37.7887L203.663 37.5997V36.0607L203.542 35.9527L203.771 35.5882L203.663 35.4667V34.9807L203.461 34.7242L203.785 34.4272L203.717 34.0222L203.866 33.7117L204.082 33.6172L204.352 33.5767L204.73 33.6442L204.824 33.7657L204.851 34.0627L204.824 34.1437L204.905 34.5352L204.959 34.6837V37.3567L204.932 37.6807V38.2612L204.838 38.3557L204.973 38.9227L204.932 39.1522L204.973 39.6652L204.824 40.1647L204.973 40.4347L204.892 40.8667L204.973 40.9747V41.1907L204.892 41.5957L204.973 41.7307L205.067 42.1087V42.3652L205.742 42.4462H209.036L209.387 42.4867L209.752 42.6487L209.941 43.0267L209.806 43.4317L209.468 43.6072H204.797L204.217 43.5532L204.284 43.5397L204.041 43.4992L203.825 43.1752ZM212.269 42.9997L212.377 42.7432V42.5002L212.566 42.2437V41.7847L212.715 41.5282L212.782 41.3257V41.0287L212.931 40.6912V40.4887L212.985 40.2322L213.16 39.8947V39.7462L213.241 39.3682L213.363 39.2737L213.417 38.7337L213.606 38.4232V38.0857L213.808 37.4782L214.078 36.9517L213.997 36.9382L214.038 36.6142L214.24 36.2497L214.186 36.0202L214.308 35.7502L214.362 35.6962L214.456 35.4532L214.362 35.3047L214.483 34.8187L214.659 34.4002L214.821 34.2517V33.9277L214.929 33.7387L215.145 33.6307L215.442 33.5497H215.671L215.86 33.5902L216.171 33.7657L216.198 34.0897L216.495 34.5352L216.724 35.7232L216.994 36.3307L217.075 37.0057L217.197 37.2487L217.548 38.3287V38.5582L217.494 38.7337L217.656 38.8822L217.872 39.3007V39.7597L217.831 39.9622L218.088 40.2862L218.317 41.2717L218.304 41.4877L218.398 41.5822L218.533 41.8117L218.587 42.0952L218.56 42.4192L218.682 42.6352L218.736 42.8107L218.668 43.3102L218.398 43.5397L218.196 43.5532L217.804 43.4722L217.548 43.0807V42.9052L217.008 41.7847L216.819 41.5687L216.481 41.4067H215.563L214.416 41.5282L214.2 41.6632L213.727 42.2572L213.795 42.3922L213.43 43.2967L213.187 43.4587L212.917 43.4857L212.499 43.4182L212.323 43.2697L212.269 42.9997ZM214.821 40.1782H216.157L216.346 40.1242L216.576 39.8947L216.508 39.4087L216.225 38.1262L215.955 37.2892L215.739 36.8167L215.644 36.7357L215.266 36.8707L215.104 37.0867L215.172 37.1947L215.064 37.5052L215.023 37.4377L214.902 38.1127L214.821 38.2747L214.564 38.5177L214.726 38.6257L214.659 38.9632L214.551 39.2602V39.5842L214.672 39.7192L214.483 39.8542L214.497 40.0432L214.821 40.1782ZM221.132 43.1482L221.051 42.9187L221.105 42.1897L221.051 41.7172L221.105 41.2852L221.051 41.1097L221.118 40.6912L221.051 40.5697V39.6112L221.172 39.3547L221.051 39.0577V38.3422L221.105 38.1262L221.051 37.6672L221.091 37.5187L221.226 37.3567L221.051 37.1542V36.1282L221.172 35.7772L221.051 35.6287L221.091 35.2777V34.5892L221.199 34.5622L221.051 34.1842L221.172 33.8332L221.348 33.6442L221.55 33.5362L221.874 33.4957L222.468 33.6982L222.657 33.8332L222.738 34.0897L222.725 34.2517L223.076 34.6162L223.13 34.7647L223.157 34.9942L223.278 35.0752L223.4 35.3722L223.454 35.8042L223.737 36.0202L223.832 36.1822L223.791 36.4792L224.048 36.6817L224.088 36.8167V37.1272L224.48 37.5052L224.507 37.7212V37.9912L224.709 38.0317L224.79 38.2882L225.087 38.8147L225.128 39.0847L225.33 39.4897L225.465 39.6247L225.803 40.2592L226.073 40.1782L226.194 40.0162L226.248 39.7057L226.329 39.5437V38.8822L226.383 38.4772L226.329 38.3017V36.2362L226.289 35.8987L226.37 35.6827L226.329 35.5207V34.4947L226.559 34.2247L226.329 34.1437L226.464 33.7657L226.572 33.7117L226.937 33.6712L227.274 33.7522L227.396 33.9952L227.261 34.2382L227.436 34.6162V35.4532L227.355 35.7232L227.463 36.0877L227.436 36.2902L227.301 36.3577L227.409 36.7087V37.5727L227.463 38.1262L227.355 38.3962L227.463 38.9767L227.382 39.2332L227.207 39.3817L227.409 39.5437V40.1377L227.463 40.2592V42.1627L227.409 42.4192L227.463 42.6757L227.436 42.9187L227.355 43.1617L227.207 43.3642L226.815 43.5532H226.572L226.167 43.4317L225.951 43.2697L225.749 42.8242L225.546 42.5272L225.438 42.2302L225.222 41.9332L225.074 41.3392L224.844 41.0827L224.534 40.3807L224.601 40.1512L224.169 39.6787L224.129 39.4357L224.223 39.3142L224.048 39.1927L223.913 39.0577L223.724 38.5582L223.454 38.1802L223.494 38.0047L223.386 37.8022L223.103 37.5052V37.2757L223.251 37.1812L222.995 37.0462L222.59 36.9247L222.441 36.9517L222.239 37.2352L222.32 37.4242V38.3017L222.144 38.6122L222.293 38.8822L222.239 39.5437L222.32 39.7732L222.266 40.0837L222.32 40.3942L222.225 40.6912L222.279 40.5562L222.32 41.1097L222.144 41.5822L222.293 41.7172L222.32 41.8927L222.198 42.3112L222.32 42.5407L222.198 43.0807L221.969 43.4452L221.402 43.3777L221.307 43.3237L221.132 43.1482ZM229.954 43.1212L230.075 42.9052L229.9 42.6487V39.5302L229.954 39.1792L229.9 38.8282L229.954 38.4502L229.9 38.3557V37.1542L230.075 37.1137L229.94 36.8842L229.9 36.5872L229.94 36.3577L230.089 36.2902L229.9 36.1687L229.954 35.7502L229.9 35.4127V35.1292L229.954 34.8727L229.9 34.6702V34.3597L229.967 33.9412L230.021 33.8332L230.17 33.7252L230.588 33.6037L231.209 33.4957L231.763 33.6172H232.033L232.559 33.5092L232.937 33.6172L233.639 33.6847L234.098 33.8332L234.49 34.0357L234.908 34.3327L235.408 34.8457L235.705 35.2642L235.718 35.4127L235.637 35.5072L235.786 35.6152L236.042 36.0067L236.029 36.3172L236.15 36.6142L236.299 37.4242L236.272 37.5727L236.123 37.7617L236.339 38.2612L236.312 38.4502L236.191 38.7067L236.285 39.1522L236.218 39.3547L236.312 39.5437L236.177 40.4482L236.002 40.7452L236.042 40.8937L236.029 41.0422L235.799 41.3122L235.718 41.8252L235.124 42.5812L234.962 42.6892L234.598 42.8242L234.382 42.9862L234.031 43.3237L233.545 43.4722L232.573 43.6207H230.912L230.44 43.5532L230.102 43.3912L229.954 43.1212ZM232.384 42.3652L233.639 42.2302V42.1087L234.193 41.5552L234.395 41.4202L234.665 40.9342L234.787 40.5157L234.935 40.2592L235.003 39.7597L235.097 39.3547V37.7482L235.003 37.5997V37.1407L234.625 36.2092L234.571 35.7637L233.99 35.1967L233.693 34.9537L232.924 34.7512L232.492 34.6972H231.763L231.52 34.7377L231.25 35.0752L231.155 35.3992V37.2487L230.993 37.6672L231.155 37.9912V38.2072L231.115 38.4907L231.155 38.9092L231.304 39.0982L231.047 39.2737L231.155 39.4897V40.5697L231.074 40.7317L231.155 40.9072L231.115 41.4337L231.182 41.8117L231.412 42.3652H232.384ZM238.749 42.7972L238.708 42.5407L239.046 42.0277L239.329 41.9737L239.599 42.0682L240.031 42.3247L240.612 42.4597L241.287 42.5407H241.759L242.394 42.4462L242.731 42.2707L243.096 41.9467L243.46 41.5012V41.2312L243.541 40.8532L243.582 40.7857L243.339 40.1917L243.312 39.9352L242.893 39.7192L242.704 39.4627L242.826 39.3142L242.475 39.2467L241.989 39.0712L241.084 38.4637L240.18 37.9642L239.883 37.7347L239.613 37.4377L239.289 36.9517L239.208 36.7762L239.154 36.4792L239.046 36.3577L238.978 36.1957V35.3182L239.194 35.1832L239.1 34.8457L239.194 34.5892L239.424 34.4542L239.545 33.9952L239.694 33.8467L240.477 33.5767L240.652 33.4147L240.882 33.3202L241.341 33.2392H241.827L242.515 33.3202L242.893 33.4012L243.622 33.6712L243.757 33.8062L243.825 33.9952L243.636 34.3597V34.6162L243.514 34.6702H243.15L242.704 34.5757L242.11 34.3867L241.638 34.3192L241.233 34.3462L241.098 34.4137L241.111 34.4947L240.625 34.8187L240.423 35.0482L240.261 35.3317L240.126 35.7232L240.288 35.9932L240.342 36.2497L240.301 36.3037L240.477 36.6142L240.909 36.9517L240.949 37.3162L241.125 37.3972L241.719 37.5052L242.07 37.7482L242.826 38.1262L243.393 38.5852L243.676 38.7067L243.973 39.0577L244.014 39.1927L244.351 39.4897L244.459 39.8137V40.0702L244.554 40.1782L244.662 40.3942L244.729 40.9207L244.635 41.4472L244.608 41.8927L244.446 42.1222L244.23 42.6487L243.919 42.9052L243.811 43.0402L243.312 43.3642L242.866 43.5262L242.232 43.6477H240.45L239.532 43.4722L238.951 43.2022L238.749 42.7972ZM247.638 42.0952L247.476 41.7307V41.3932L247.692 41.2042L247.26 41.1367L247.193 40.7047L247.152 40.5967L247.071 40.2187L247.017 39.5167L246.936 39.1387V37.7617L247.098 37.2352L247.044 36.9517L247.166 36.2497L247.274 35.9527L247.53 35.6557L247.422 35.5477L247.517 35.2102L247.665 35.0482L247.719 34.8052L248.178 34.3327L248.273 34.1572L248.556 33.8197L249.069 33.5227L249.474 33.4957L249.528 33.4282L249.69 33.2932L250.028 33.2392H251.094L251.256 33.3607L252.242 33.6442L252.593 33.8467L253.227 34.6702L253.133 35.1292L252.998 35.2912L252.836 35.3857H252.593L252.174 35.1697L251.526 34.5487L250.878 34.2517H250.365L249.947 34.3597L249.231 34.7782L248.934 35.0212L249.002 35.1697L248.921 35.3452L248.57 35.8312L248.529 36.2227L248.381 36.4117L248.232 36.4927L248.354 36.8437L248.219 37.0867V37.3162L248.259 37.5052L248.219 37.7482L248.124 37.9102L248.232 38.2477L248.165 38.5312L248.219 39.1387L248.165 39.4762L248.286 39.5302L248.408 40.6912L248.556 40.8937L248.664 41.1907L248.691 41.4472L248.934 41.5822L249.069 41.7712L249.218 42.0547L249.393 42.2437L249.569 42.3517L250.028 42.4867L250.568 42.5407L251.094 42.5002L251.526 42.3787L251.756 42.2302L252.377 41.6902L252.66 41.5957L253.065 41.6362L253.146 41.6767L253.308 42.3922L252.822 42.9187L252.444 43.2292L252.066 43.4182L251.621 43.5667L250.932 43.7422H250.365L249.731 43.6747L249.177 43.5127L248.826 43.3372L248.394 43.0132L247.976 42.5947L247.638 42.0952ZM255.907 42.9997L256.015 42.7432V42.5002L256.204 42.2437V41.7847L256.352 41.5282L256.42 41.3257V41.0287L256.568 40.6912V40.4887L256.622 40.2322L256.798 39.8947V39.7462L256.879 39.3682L257 39.2737L257.054 38.7337L257.243 38.4232V38.0857L257.446 37.4782L257.716 36.9517L257.635 36.9382L257.675 36.6142L257.878 36.2497L257.824 36.0202L257.945 35.7502L257.999 35.6962L258.094 35.4532L257.999 35.3047L258.121 34.8187L258.296 34.4002L258.458 34.2517V33.9277L258.566 33.7387L258.782 33.6307L259.079 33.5497H259.309L259.498 33.5902L259.808 33.7657L259.835 34.0897L260.132 34.5352L260.362 35.7232L260.632 36.3307L260.713 37.0057L260.834 37.2487L261.185 38.3287V38.5582L261.131 38.7337L261.293 38.8822L261.509 39.3007V39.7597L261.469 39.9622L261.725 40.2862L261.955 41.2717L261.941 41.4877L262.036 41.5822L262.171 41.8117L262.225 42.0952L262.198 42.4192L262.319 42.6352L262.373 42.8107L262.306 43.3102L262.036 43.5397L261.833 43.5532L261.442 43.4722L261.185 43.0807V42.9052L260.645 41.7847L260.456 41.5687L260.119 41.4067H259.201L258.053 41.5282L257.837 41.6632L257.365 42.2572L257.432 42.3922L257.068 43.2967L256.825 43.4587L256.555 43.4857L256.136 43.4182L255.961 43.2697L255.907 42.9997ZM258.458 40.1782H259.795L259.984 40.1242L260.213 39.8947L260.146 39.4087L259.862 38.1262L259.592 37.2892L259.376 36.8167L259.282 36.7357L258.904 36.8707L258.742 37.0867L258.809 37.1947L258.701 37.5052L258.661 37.4377L258.539 38.1127L258.458 38.2747L258.202 38.5177L258.364 38.6257L258.296 38.9632L258.188 39.2602V39.5842L258.31 39.7192L258.121 39.8542L258.134 40.0432L258.458 40.1782ZM264.661 42.9997L264.634 42.7702L264.715 42.7027L264.756 42.5542L264.634 42.1762L264.675 41.7172L264.634 41.2312V40.6507L264.756 40.1782L264.634 39.8407L264.742 39.4762L264.661 39.1792V38.9227L264.85 38.6527L264.661 38.2882V37.5862L264.81 37.3702L264.634 36.9112L264.796 36.5737L264.634 36.2227L264.769 35.9662L264.796 35.8042L264.729 35.7232L264.648 35.4397L264.756 35.1832L264.648 34.9132V34.0897L264.742 33.9007L265.08 33.6982L265.39 33.4417H268.009L268.239 33.4957H268.819L269.454 33.6847L269.872 33.8602L270.21 34.0492L270.345 34.2382V34.4137L270.655 34.5622L271.006 35.1832L271.06 35.5207L270.993 35.7772L271.101 35.9797L271.141 36.2497L270.979 36.8977V37.6402L270.885 37.9372L270.696 38.1937L270.372 38.4772L270.237 38.5717L269.832 38.9497L269.535 39.0712L268.968 39.2332L268.158 39.3277H266.47L266.038 39.4627L265.903 40.3807L265.93 40.5157L265.89 41.4202L265.957 41.8117L265.903 42.2842L265.957 42.7162L265.944 42.8647L265.849 43.1617L265.728 43.3237L265.485 43.4722L264.985 43.4317L264.823 43.2562L264.661 42.9997ZM266.43 38.1667H267.888L268.698 38.0452L269.211 37.8562L269.589 37.5322L269.683 37.3702L269.818 36.8572L269.953 36.5737L269.832 36.0472L269.778 35.6017L269.454 35.0482L269.062 34.8862L268.468 34.7377L267.604 34.6162H266.592L266.349 34.7107L266.106 34.9537L266.025 35.1157L265.93 35.5882V36.1012L265.971 36.3712L265.606 36.6412L265.944 36.7627V36.9922L265.782 37.3837L266.16 37.9777L266.43 38.1667ZM274.847 34.2382L274.428 33.9817L274.482 33.7792L274.59 33.6847L274.941 33.5362L275.4 33.4552H276.386L277.29 33.5497L277.938 33.4687L278.114 33.4957L278.6 33.6847L278.735 33.9817L278.343 34.2382L278.087 34.3327L278.276 34.5757L277.844 34.6702L277.466 34.8457L277.29 35.0212L277.155 35.2642L277.101 35.7367L277.209 36.0607L277.034 36.4522L277.196 36.9787L277.142 37.2082L277.169 37.2757V37.5997L277.061 37.9237L277.196 38.2477L277.088 38.5447L277.209 39.0712L277.115 39.2467L276.926 39.3547L277.142 39.5167L277.209 39.6922L277.142 39.9892L277.196 40.4752V41.1502L277.128 41.5552L277.385 42.2437L277.547 42.3652L277.884 42.3922L278.195 42.4597L278.424 42.5677L278.64 42.7837L278.694 43.1077L278.667 43.1887L278.411 43.5127L278.046 43.5532H277.439L276.966 43.6072H275.144L274.887 43.5667L274.671 43.4722L274.509 43.2967L274.55 43.0267L274.509 42.7297L274.55 42.6757L274.82 42.5407L275.522 42.3922L275.751 42.1222L275.873 41.9197L276.035 41.5012V40.9072L276.075 40.7317L275.954 40.6372V38.4232L276.008 37.8562L275.954 37.6807V36.2497L275.913 36.0337L276.008 35.6962V35.1697L275.805 34.8997L275.333 34.6162L274.671 34.4002L274.847 34.2382ZM282.225 43.1482L282.144 42.9187L282.198 42.1897L282.144 41.7172L282.198 41.2852L282.144 41.1097L282.211 40.6912L282.144 40.5697V39.6112L282.265 39.3547L282.144 39.0577V38.3422L282.198 38.1262L282.144 37.6672L282.184 37.5187L282.319 37.3567L282.144 37.1542V36.1282L282.265 35.7772L282.144 35.6287L282.184 35.2777V34.5892L282.292 34.5622L282.144 34.1842L282.265 33.8332L282.441 33.6442L282.643 33.5362L282.967 33.4957L283.561 33.6982L283.75 33.8332L283.831 34.0897L283.818 34.2517L284.169 34.6162L284.223 34.7647L284.25 34.9942L284.371 35.0752L284.493 35.3722L284.547 35.8042L284.83 36.0202L284.925 36.1822L284.884 36.4792L285.141 36.6817L285.181 36.8167V37.1272L285.573 37.5052L285.6 37.7212V37.9912L285.802 38.0317L285.883 38.2882L286.18 38.8147L286.221 39.0847L286.423 39.4897L286.558 39.6247L286.896 40.2592L287.166 40.1782L287.287 40.0162L287.341 39.7057L287.422 39.5437V38.8822L287.476 38.4772L287.422 38.3017V36.2362L287.382 35.8987L287.463 35.6827L287.422 35.5207V34.4947L287.652 34.2247L287.422 34.1437L287.557 33.7657L287.665 33.7117L288.03 33.6712L288.367 33.7522L288.489 33.9952L288.354 34.2382L288.529 34.6162V35.4532L288.448 35.7232L288.556 36.0877L288.529 36.2902L288.394 36.3577L288.502 36.7087V37.5727L288.556 38.1262L288.448 38.3962L288.556 38.9767L288.475 39.2332L288.3 39.3817L288.502 39.5437V40.1377L288.556 40.2592V42.1627L288.502 42.4192L288.556 42.6757L288.529 42.9187L288.448 43.1617L288.3 43.3642L287.908 43.5532H287.665L287.26 43.4317L287.044 43.2697L286.842 42.8242L286.639 42.5272L286.531 42.2302L286.315 41.9332L286.167 41.3392L285.937 41.0827L285.627 40.3807L285.694 40.1512L285.262 39.6787L285.222 39.4357L285.316 39.3142L285.141 39.1927L285.006 39.0577L284.817 38.5582L284.547 38.1802L284.587 38.0047L284.479 37.8022L284.196 37.5052V37.2757L284.344 37.1812L284.088 37.0462L283.683 36.9247L283.534 36.9517L283.332 37.2352L283.413 37.4242V38.3017L283.237 38.6122L283.386 38.8822L283.332 39.5437L283.413 39.7732L283.359 40.0837L283.413 40.3942L283.318 40.6912L283.372 40.5562L283.413 41.1097L283.237 41.5822L283.386 41.7172L283.413 41.8927L283.291 42.3112L283.413 42.5407L283.291 43.0807L283.062 43.4452L282.495 43.3777L282.4 43.3237L282.225 43.1482ZM291.803 42.7972L291.681 42.7432L291.276 42.3247L291.209 42.1087L291.006 41.8927V41.5957L290.601 40.4887V39.8137L290.48 39.7192V39.2197L290.426 38.5717V38.1397L290.493 37.8292L290.601 37.6807L290.48 37.3972L290.696 36.1822L290.952 35.8447L290.925 35.4937L290.979 35.2372L291.276 34.7782L291.938 33.9952L292.343 33.6577L293.423 33.3067L293.936 33.2392L294.8 33.3472L295.232 33.4687L295.772 33.7117L296.136 33.9952L296.217 34.3597L296.568 34.6162L296.622 34.9132L296.487 35.2372L296.231 35.3857H295.88L295.65 35.2642L295.434 34.9942L295.07 34.7512L294.584 34.4677L294.314 34.2787L294.138 34.2652L293.787 34.3192L293.22 34.4947L293.058 34.7242L292.707 34.9132L292.181 35.5342V35.7772L292.073 35.9932L291.857 36.2362L292.019 36.5062L291.992 36.6277L291.749 36.8437L291.857 37.3297L291.803 37.5997L291.735 38.4097L291.789 38.9362L291.735 39.2332L291.789 39.3817L291.83 39.9757L291.911 40.1782L291.992 40.5562L292.127 40.9207L292.181 41.3527L292.235 41.5012L292.437 41.6767L292.599 41.9062L292.586 42.0547L292.802 42.2302L293.382 42.4327L293.976 42.5407L294.759 42.4057L295.137 42.2842H295.299L295.475 41.8657L295.731 41.3662L295.934 40.8667L296.096 40.6507L295.934 40.2727L295.961 40.0432L295.515 39.9217L294.854 39.8677L294.489 39.9352L294.111 39.8407L293.936 39.7192L293.841 39.4897L294.03 39.2467L293.855 39.1387L294.233 38.8417L294.611 38.7877H296.636L296.919 38.8822L297.189 39.1117L297.419 39.4897L297.446 39.7057L297.324 39.9352L297.392 40.1917L297.324 40.4617L297.243 40.9477L296.973 41.5282L297.014 41.5957L296.69 42.1357L296.636 42.2842L296.433 42.6487L296.298 42.7972L295.799 43.1617L295.583 43.3642L294.395 43.7422H293.49L293.328 43.6207L292.734 43.5262L292.113 43.2427L291.803 42.7972Z" fill="#252525"/>
<path d="M349.669 43.0672L349.628 42.7972L349.777 42.4462L349.642 42.0952L349.736 41.5822L349.655 41.3932L349.736 41.0017L349.628 40.5832L349.669 40.1647V39.4762L349.628 39.0442L349.682 38.6932L349.642 38.2882L349.682 38.0722L349.628 37.5727L349.763 37.4512L349.628 37.1812V35.1427L349.682 34.6162L349.844 34.3732L349.642 34.0222L349.763 33.7117L350.033 33.5227L350.222 33.4822L350.6 33.5092L350.911 33.7117L351.194 34.2787L351.437 34.8862V35.3317L351.748 35.7232L351.869 36.0742L352.139 37.0192L352.666 38.3017L352.895 38.5717L352.976 38.6257L353.138 38.5717L353.273 38.3692L353.638 37.6267L354.029 36.5062L354.286 35.6287L354.529 35.2777L354.65 35.1832L354.61 34.8457L354.637 34.7377L354.92 34.3462L354.853 34.0897L354.988 33.8737L355.285 33.7117L355.46 33.6712L356.041 33.7117L356.108 33.6712L356.351 33.9952V34.2112L356.257 34.4002L356.446 34.8727L356.378 35.3047L356.351 35.2507V35.9392L356.432 36.3037L356.324 36.6277L356.405 36.6817V37.1272L356.324 37.3837L356.446 37.6537L356.324 38.0047L356.432 38.2747V40.3537L356.351 40.9072L356.446 41.1097L356.392 41.6632L356.432 42.0952L356.378 42.2842V42.8917L356.257 43.0132L355.96 43.0537L356 43.4857L355.784 43.4992L355.46 43.3642L355.285 43.1347V42.4732L355.204 42.0952L355.298 41.6227L355.19 41.1232V39.9082L355.352 39.5302L355.339 39.3682L355.19 39.1522L355.244 38.7202L355.204 38.5852L354.947 38.2747L354.38 38.5312V38.6932L354.218 39.2197L354.137 39.3682L354.029 39.8677L353.611 40.7722L353.462 40.8937L353.246 40.9747L353.084 40.9882L352.585 40.9072L352.288 40.5967L352.085 40.1917L351.964 39.8137L352.072 39.5707L351.748 39.2332L351.532 38.6392L351.329 38.3422L351.194 38.2477L351.113 38.0722L350.965 38.3692L350.789 38.6257L350.722 38.8282L350.884 39.0037L350.87 39.1252L350.614 39.6652L350.83 39.7867V41.2312L350.978 41.3257L350.708 41.6227L350.83 41.9197V42.6487L350.722 43.2562L350.533 43.4047L350.276 43.4992L349.939 43.4047L349.736 43.2157L349.669 43.0672ZM358.491 42.9997L358.599 42.7432V42.5002L358.788 42.2437V41.7847L358.936 41.5282L359.004 41.3257V41.0287L359.152 40.6912V40.4887L359.206 40.2322L359.382 39.8947V39.7462L359.463 39.3682L359.584 39.2737L359.638 38.7337L359.827 38.4232V38.0857L360.03 37.4782L360.3 36.9517L360.219 36.9382L360.259 36.6142L360.462 36.2497L360.408 36.0202L360.529 35.7502L360.583 35.6962L360.678 35.4532L360.583 35.3047L360.705 34.8187L360.88 34.4002L361.042 34.2517V33.9277L361.15 33.7387L361.366 33.6307L361.663 33.5497H361.893L362.082 33.5902L362.392 33.7657L362.419 34.0897L362.716 34.5352L362.946 35.7232L363.216 36.3307L363.297 37.0057L363.418 37.2487L363.769 38.3287V38.5582L363.715 38.7337L363.877 38.8822L364.093 39.3007V39.7597L364.053 39.9622L364.309 40.2862L364.539 41.2717L364.525 41.4877L364.62 41.5822L364.755 41.8117L364.809 42.0952L364.782 42.4192L364.903 42.6352L364.957 42.8107L364.89 43.3102L364.62 43.5397L364.417 43.5532L364.026 43.4722L363.769 43.0807V42.9052L363.229 41.7847L363.04 41.5687L362.703 41.4067H361.785L360.637 41.5282L360.421 41.6632L359.949 42.2572L360.016 42.3922L359.652 43.2967L359.409 43.4587L359.139 43.4857L358.72 43.4182L358.545 43.2697L358.491 42.9997ZM361.042 40.1782H362.379L362.568 40.1242L362.797 39.8947L362.73 39.4087L362.446 38.1262L362.176 37.2892L361.96 36.8167L361.866 36.7357L361.488 36.8707L361.326 37.0867L361.393 37.1947L361.285 37.5052L361.245 37.4377L361.123 38.1127L361.042 38.2747L360.786 38.5177L360.948 38.6257L360.88 38.9632L360.772 39.2602V39.5842L360.894 39.7192L360.705 39.8542L360.718 40.0432L361.042 40.1782ZM368.703 34.2382L368.285 33.9817L368.339 33.7792L368.447 33.6847L368.798 33.5362L369.257 33.4552H370.242L371.147 33.5497L371.795 33.4687L371.97 33.4957L372.456 33.6847L372.591 33.9817L372.2 34.2382L371.943 34.3327L372.132 34.5757L371.7 34.6702L371.322 34.8457L371.147 35.0212L371.012 35.2642L370.958 35.7367L371.066 36.0607L370.89 36.4522L371.052 36.9787L370.998 37.2082L371.025 37.2757V37.5997L370.917 37.9237L371.052 38.2477L370.944 38.5447L371.066 39.0712L370.971 39.2467L370.782 39.3547L370.998 39.5167L371.066 39.6922L370.998 39.9892L371.052 40.4752V41.1502L370.985 41.5552L371.241 42.2437L371.403 42.3652L371.741 42.3922L372.051 42.4597L372.281 42.5677L372.497 42.7837L372.551 43.1077L372.524 43.1887L372.267 43.5127L371.903 43.5532H371.295L370.823 43.6072H369L368.744 43.5667L368.528 43.4722L368.366 43.2967L368.406 43.0267L368.366 42.7297L368.406 42.6757L368.676 42.5407L369.378 42.3922L369.608 42.1222L369.729 41.9197L369.891 41.5012V40.9072L369.932 40.7317L369.81 40.6372V38.4232L369.864 37.8562L369.81 37.6807V36.2497L369.77 36.0337L369.864 35.6962V35.1697L369.662 34.8997L369.189 34.6162L368.528 34.4002L368.703 34.2382ZM376.081 43.1482L376 42.9187L376.054 42.1897L376 41.7172L376.054 41.2852L376 41.1097L376.067 40.6912L376 40.5697V39.6112L376.121 39.3547L376 39.0577V38.3422L376.054 38.1262L376 37.6672L376.04 37.5187L376.175 37.3567L376 37.1542V36.1282L376.121 35.7772L376 35.6287L376.04 35.2777V34.5892L376.148 34.5622L376 34.1842L376.121 33.8332L376.297 33.6442L376.499 33.5362L376.823 33.4957L377.417 33.6982L377.606 33.8332L377.687 34.0897L377.674 34.2517L378.025 34.6162L378.079 34.7647L378.106 34.9942L378.227 35.0752L378.349 35.3722L378.403 35.8042L378.686 36.0202L378.781 36.1822L378.74 36.4792L378.997 36.6817L379.037 36.8167V37.1272L379.429 37.5052L379.456 37.7212V37.9912L379.658 38.0317L379.739 38.2882L380.036 38.8147L380.077 39.0847L380.279 39.4897L380.414 39.6247L380.752 40.2592L381.022 40.1782L381.143 40.0162L381.197 39.7057L381.278 39.5437V38.8822L381.332 38.4772L381.278 38.3017V36.2362L381.238 35.8987L381.319 35.6827L381.278 35.5207V34.4947L381.508 34.2247L381.278 34.1437L381.413 33.7657L381.521 33.7117L381.886 33.6712L382.223 33.7522L382.345 33.9952L382.21 34.2382L382.385 34.6162V35.4532L382.304 35.7232L382.412 36.0877L382.385 36.2902L382.25 36.3577L382.358 36.7087V37.5727L382.412 38.1262L382.304 38.3962L382.412 38.9767L382.331 39.2332L382.156 39.3817L382.358 39.5437V40.1377L382.412 40.2592V42.1627L382.358 42.4192L382.412 42.6757L382.385 42.9187L382.304 43.1617L382.156 43.3642L381.764 43.5532H381.521L381.116 43.4317L380.9 43.2697L380.698 42.8242L380.495 42.5272L380.387 42.2302L380.171 41.9332L380.023 41.3392L379.793 41.0827L379.483 40.3807L379.55 40.1512L379.118 39.6787L379.078 39.4357L379.172 39.3142L378.997 39.1927L378.862 39.0577L378.673 38.5582L378.403 38.1802L378.443 38.0047L378.335 37.8022L378.052 37.5052V37.2757L378.2 37.1812L377.944 37.0462L377.539 36.9247L377.39 36.9517L377.188 37.2352L377.269 37.4242V38.3017L377.093 38.6122L377.242 38.8822L377.188 39.5437L377.269 39.7732L377.215 40.0837L377.269 40.3942L377.174 40.6912L377.228 40.5562L377.269 41.1097L377.093 41.5822L377.242 41.7172L377.269 41.8927L377.147 42.3112L377.269 42.5407L377.147 43.0807L376.918 43.4452L376.351 43.3777L376.256 43.3237L376.081 43.1482ZM387.468 42.9187L387.36 42.7972V41.7307L387.495 41.2717L387.414 41.2177V40.2457L387.495 40.0027V39.2467L387.454 39.1117L387.427 38.7877L387.535 38.4907L387.387 38.1127L387.441 37.7212L387.4 37.6267V35.8987L387.522 35.5747L387.333 35.3722L387.292 34.9267L387.103 34.8052L386.725 34.6567L386.158 34.5217H385.186L385.2 34.3732L384.687 34.0762L384.619 34.0627L384.646 33.8062L384.822 33.6577L385.591 33.4417H386.82L387.778 33.5227L388.021 33.4687H389.209L389.763 33.4147L390.438 33.5362H390.897L391.261 33.7117L391.302 33.8332L391.153 34.1032L390.978 34.1707L391.14 34.4542L390.843 34.5487H390.06L389.56 34.5892L389.115 34.6972L388.764 34.8997L388.656 35.0482L388.521 35.4667V35.7367L388.575 35.8042V39.6787L388.467 40.0972L388.575 40.2322V40.8937L388.521 41.2177L388.359 41.1772L388.575 41.6227L388.521 42.1357L388.561 42.5947L388.426 43.1887L388.305 43.4047L388.048 43.4992L387.832 43.4857L387.495 43.2967L387.468 42.9187ZM393.603 42.9997L393.536 42.6757V41.8657L393.482 41.6362L393.59 41.3662L393.536 41.1772L393.59 40.6912L393.549 40.3672L393.59 39.9487L393.536 39.8137L393.59 38.9632V37.7617L393.549 37.4782L393.576 37.1542L393.657 36.8167L393.536 36.6547V36.0202L393.59 35.6287L393.536 35.3992V34.6162L393.617 33.8467L393.873 33.5902L394.116 33.4687H398.76L398.895 33.5362L399.516 33.7117L399.732 34.0762L399.57 34.3057L399.3 34.4407L397.694 34.5892H396.546L396.02 34.5217L395.709 34.5892L395.304 34.7377L394.98 34.9402L394.791 35.1562V35.7232L394.562 35.9932L394.791 36.2227V36.6007L394.683 36.7897L394.845 36.9247L394.94 37.4242L395.412 37.6402L395.831 37.6807H398.841L399.084 37.7212L399.206 37.7887L399.395 37.9912L399.53 38.3827L399.395 38.5717L399.192 38.6797L398.855 38.7877L398.531 38.8282L398.166 38.7337H395.993L395.912 38.6527L395.601 38.8012L395.169 38.8552L395.048 38.9902L394.859 39.3007L394.791 39.5842L394.845 39.9352L394.683 40.2997L394.791 40.6777V40.8397L394.535 40.8937L394.818 41.2582V41.5822L394.764 41.7307L395.021 42.1627L395.426 42.5407L395.655 42.6352L396.195 42.5407H397.208L397.842 42.4867L398.112 42.5407H399.26L399.449 42.5812L399.692 42.7972L399.638 43.0402V43.3912L399.314 43.5532L398.72 43.6207H395.979L395.696 43.5532L395.547 43.6207H394.265L393.873 43.3102L393.59 43.1887L393.603 42.9997ZM402.263 43.1482L402.182 42.9187L402.236 42.1897L402.182 41.7172L402.236 41.2852L402.182 41.1097L402.25 40.6912L402.182 40.5697V39.6112L402.304 39.3547L402.182 39.0577V38.3422L402.236 38.1262L402.182 37.6672L402.223 37.5187L402.358 37.3567L402.182 37.1542V36.1282L402.304 35.7772L402.182 35.6287L402.223 35.2777V34.5892L402.331 34.5622L402.182 34.1842L402.304 33.8332L402.479 33.6442L402.682 33.5362L403.006 33.4957L403.6 33.6982L403.789 33.8332L403.87 34.0897L403.856 34.2517L404.207 34.6162L404.261 34.7647L404.288 34.9942L404.41 35.0752L404.531 35.3722L404.585 35.8042L404.869 36.0202L404.963 36.1822L404.923 36.4792L405.179 36.6817L405.22 36.8167V37.1272L405.611 37.5052L405.638 37.7212V37.9912L405.841 38.0317L405.922 38.2882L406.219 38.8147L406.259 39.0847L406.462 39.4897L406.597 39.6247L406.934 40.2592L407.204 40.1782L407.326 40.0162L407.38 39.7057L407.461 39.5437V38.8822L407.515 38.4772L407.461 38.3017V36.2362L407.42 35.8987L407.501 35.6827L407.461 35.5207V34.4947L407.69 34.2247L407.461 34.1437L407.596 33.7657L407.704 33.7117L408.068 33.6712L408.406 33.7522L408.527 33.9952L408.392 34.2382L408.568 34.6162V35.4532L408.487 35.7232L408.595 36.0877L408.568 36.2902L408.433 36.3577L408.541 36.7087V37.5727L408.595 38.1262L408.487 38.3962L408.595 38.9767L408.514 39.2332L408.338 39.3817L408.541 39.5437V40.1377L408.595 40.2592V42.1627L408.541 42.4192L408.595 42.6757L408.568 42.9187L408.487 43.1617L408.338 43.3642L407.947 43.5532H407.704L407.299 43.4317L407.083 43.2697L406.88 42.8242L406.678 42.5272L406.57 42.2302L406.354 41.9332L406.205 41.3392L405.976 41.0827L405.665 40.3807L405.733 40.1512L405.301 39.6787L405.26 39.4357L405.355 39.3142L405.179 39.1927L405.044 39.0577L404.855 38.5582L404.585 38.1802L404.626 38.0047L404.518 37.8022L404.234 37.5052V37.2757L404.383 37.1812L404.126 37.0462L403.721 36.9247L403.573 36.9517L403.37 37.2352L403.451 37.4242V38.3017L403.276 38.6122L403.424 38.8822L403.37 39.5437L403.451 39.7732L403.397 40.0837L403.451 40.3942L403.357 40.6912L403.411 40.5562L403.451 41.1097L403.276 41.5822L403.424 41.7172L403.451 41.8927L403.33 42.3112L403.451 42.5407L403.33 43.0807L403.1 43.4452L402.533 43.3777L402.439 43.3237L402.263 43.1482ZM410.856 42.9997L410.964 42.7432V42.5002L411.153 42.2437V41.7847L411.301 41.5282L411.369 41.3257V41.0287L411.517 40.6912V40.4887L411.571 40.2322L411.747 39.8947V39.7462L411.828 39.3682L411.949 39.2737L412.003 38.7337L412.192 38.4232V38.0857L412.395 37.4782L412.665 36.9517L412.584 36.9382L412.624 36.6142L412.827 36.2497L412.773 36.0202L412.894 35.7502L412.948 35.6962L413.043 35.4532L412.948 35.3047L413.07 34.8187L413.245 34.4002L413.407 34.2517V33.9277L413.515 33.7387L413.731 33.6307L414.028 33.5497H414.258L414.447 33.5902L414.757 33.7657L414.784 34.0897L415.081 34.5352L415.311 35.7232L415.581 36.3307L415.662 37.0057L415.783 37.2487L416.134 38.3287V38.5582L416.08 38.7337L416.242 38.8822L416.458 39.3007V39.7597L416.418 39.9622L416.674 40.2862L416.904 41.2717L416.89 41.4877L416.985 41.5822L417.12 41.8117L417.174 42.0952L417.147 42.4192L417.268 42.6352L417.322 42.8107L417.255 43.3102L416.985 43.5397L416.782 43.5532L416.391 43.4722L416.134 43.0807V42.9052L415.594 41.7847L415.405 41.5687L415.068 41.4067H414.15L413.002 41.5282L412.786 41.6632L412.314 42.2572L412.381 42.3922L412.017 43.2967L411.774 43.4587L411.504 43.4857L411.085 43.4182L410.91 43.2697L410.856 42.9997ZM413.407 40.1782H414.744L414.933 40.1242L415.162 39.8947L415.095 39.4087L414.811 38.1262L414.541 37.2892L414.325 36.8167L414.231 36.7357L413.853 36.8707L413.691 37.0867L413.758 37.1947L413.65 37.5052L413.61 37.4377L413.488 38.1127L413.407 38.2747L413.151 38.5177L413.313 38.6257L413.245 38.9632L413.137 39.2602V39.5842L413.259 39.7192L413.07 39.8542L413.083 40.0432L413.407 40.1782ZM419.718 43.1482L419.637 42.9187L419.691 42.1897L419.637 41.7172L419.691 41.2852L419.637 41.1097L419.705 40.6912L419.637 40.5697V39.6112L419.759 39.3547L419.637 39.0577V38.3422L419.691 38.1262L419.637 37.6672L419.678 37.5187L419.813 37.3567L419.637 37.1542V36.1282L419.759 35.7772L419.637 35.6287L419.678 35.2777V34.5892L419.786 34.5622L419.637 34.1842L419.759 33.8332L419.934 33.6442L420.137 33.5362L420.461 33.4957L421.055 33.6982L421.244 33.8332L421.325 34.0897L421.311 34.2517L421.662 34.6162L421.716 34.7647L421.743 34.9942L421.865 35.0752L421.986 35.3722L422.04 35.8042L422.324 36.0202L422.418 36.1822L422.378 36.4792L422.634 36.6817L422.675 36.8167V37.1272L423.066 37.5052L423.093 37.7212V37.9912L423.296 38.0317L423.377 38.2882L423.674 38.8147L423.714 39.0847L423.917 39.4897L424.052 39.6247L424.389 40.2592L424.659 40.1782L424.781 40.0162L424.835 39.7057L424.916 39.5437V38.8822L424.97 38.4772L424.916 38.3017V36.2362L424.875 35.8987L424.956 35.6827L424.916 35.5207V34.4947L425.145 34.2247L424.916 34.1437L425.051 33.7657L425.159 33.7117L425.523 33.6712L425.861 33.7522L425.982 33.9952L425.847 34.2382L426.023 34.6162V35.4532L425.942 35.7232L426.05 36.0877L426.023 36.2902L425.888 36.3577L425.996 36.7087V37.5727L426.05 38.1262L425.942 38.3962L426.05 38.9767L425.969 39.2332L425.793 39.3817L425.996 39.5437V40.1377L426.05 40.2592V42.1627L425.996 42.4192L426.05 42.6757L426.023 42.9187L425.942 43.1617L425.793 43.3642L425.402 43.5532H425.159L424.754 43.4317L424.538 43.2697L424.335 42.8242L424.133 42.5272L424.025 42.2302L423.809 41.9332L423.66 41.3392L423.431 41.0827L423.12 40.3807L423.188 40.1512L422.756 39.6787L422.715 39.4357L422.81 39.3142L422.634 39.1927L422.499 39.0577L422.31 38.5582L422.04 38.1802L422.081 38.0047L421.973 37.8022L421.689 37.5052V37.2757L421.838 37.1812L421.581 37.0462L421.176 36.9247L421.028 36.9517L420.825 37.2352L420.906 37.4242V38.3017L420.731 38.6122L420.879 38.8822L420.825 39.5437L420.906 39.7732L420.852 40.0837L420.906 40.3942L420.812 40.6912L420.866 40.5562L420.906 41.1097L420.731 41.5822L420.879 41.7172L420.906 41.8927L420.785 42.3112L420.906 42.5407L420.785 43.0807L420.555 43.4452L419.988 43.3777L419.894 43.3237L419.718 43.1482ZM428.77 42.0952L428.608 41.7307V41.3932L428.824 41.2042L428.392 41.1367L428.324 40.7047L428.284 40.5967L428.203 40.2187L428.149 39.5167L428.068 39.1387V37.7617L428.23 37.2352L428.176 36.9517L428.297 36.2497L428.405 35.9527L428.662 35.6557L428.554 35.5477L428.648 35.2102L428.797 35.0482L428.851 34.8052L429.31 34.3327L429.404 34.1572L429.688 33.8197L430.201 33.5227L430.606 33.4957L430.66 33.4282L430.822 33.2932L431.159 33.2392H432.226L432.388 33.3607L433.373 33.6442L433.724 33.8467L434.359 34.6702L434.264 35.1292L434.129 35.2912L433.967 35.3857H433.724L433.306 35.1697L432.658 34.5487L432.01 34.2517H431.497L431.078 34.3597L430.363 34.7782L430.066 35.0212L430.133 35.1697L430.052 35.3452L429.701 35.8312L429.661 36.2227L429.512 36.4117L429.364 36.4927L429.485 36.8437L429.35 37.0867V37.3162L429.391 37.5052L429.35 37.7482L429.256 37.9102L429.364 38.2477L429.296 38.5312L429.35 39.1387L429.296 39.4762L429.418 39.5302L429.539 40.6912L429.688 40.8937L429.796 41.1907L429.823 41.4472L430.066 41.5822L430.201 41.7712L430.349 42.0547L430.525 42.2437L430.7 42.3517L431.159 42.4867L431.699 42.5407L432.226 42.5002L432.658 42.3787L432.887 42.2302L433.508 41.6902L433.792 41.5957L434.197 41.6362L434.278 41.6767L434.44 42.3922L433.954 42.9187L433.576 43.2292L433.198 43.4182L432.752 43.5667L432.064 43.7422H431.497L430.862 43.6747L430.309 43.5127L429.958 43.3372L429.526 43.0132L429.107 42.5947L428.77 42.0952ZM437.241 42.9997L437.173 42.6757V41.8657L437.119 41.6362L437.227 41.3662L437.173 41.1772L437.227 40.6912L437.187 40.3672L437.227 39.9487L437.173 39.8137L437.227 38.9632V37.7617L437.187 37.4782L437.214 37.1542L437.295 36.8167L437.173 36.6547V36.0202L437.227 35.6287L437.173 35.3992V34.6162L437.254 33.8467L437.511 33.5902L437.754 33.4687H442.398L442.533 33.5362L443.154 33.7117L443.37 34.0762L443.208 34.3057L442.938 34.4407L441.331 34.5892H440.184L439.657 34.5217L439.347 34.5892L438.942 34.7377L438.618 34.9402L438.429 35.1562V35.7232L438.199 35.9932L438.429 36.2227V36.6007L438.321 36.7897L438.483 36.9247L438.577 37.4242L439.05 37.6402L439.468 37.6807H442.479L442.722 37.7212L442.843 37.7887L443.032 37.9912L443.167 38.3827L443.032 38.5717L442.83 38.6797L442.492 38.7877L442.168 38.8282L441.804 38.7337H439.63L439.549 38.6527L439.239 38.8012L438.807 38.8552L438.685 38.9902L438.496 39.3007L438.429 39.5842L438.483 39.9352L438.321 40.2997L438.429 40.6777V40.8397L438.172 40.8937L438.456 41.2582V41.5822L438.402 41.7307L438.658 42.1627L439.063 42.5407L439.293 42.6352L439.833 42.5407H440.845L441.48 42.4867L441.75 42.5407H442.897L443.086 42.5812L443.329 42.7972L443.275 43.0402V43.3912L442.951 43.5532L442.357 43.6207H439.617L439.333 43.5532L439.185 43.6207H437.902L437.511 43.3102L437.227 43.1887L437.241 42.9997Z" fill="#252525"/>
<path d="M567.907 42.7972L567.867 42.5407L568.204 42.0277L568.488 41.9737L568.758 42.0682L569.19 42.3247L569.77 42.4597L570.445 42.5407H570.918L571.552 42.4462L571.89 42.2707L572.254 41.9467L572.619 41.5012V41.2312L572.7 40.8532L572.74 40.7857L572.497 40.1917L572.47 39.9352L572.052 39.7192L571.863 39.4627L571.984 39.3142L571.633 39.2467L571.147 39.0712L570.243 38.4637L569.338 37.9642L569.041 37.7347L568.771 37.4377L568.447 36.9517L568.366 36.7762L568.312 36.4792L568.204 36.3577L568.137 36.1957V35.3182L568.353 35.1832L568.258 34.8457L568.353 34.5892L568.582 34.4542L568.704 33.9952L568.852 33.8467L569.635 33.5767L569.811 33.4147L570.04 33.3202L570.499 33.2392H570.985L571.674 33.3202L572.052 33.4012L572.781 33.6712L572.916 33.8062L572.983 33.9952L572.794 34.3597V34.6162L572.673 34.6702H572.308L571.863 34.5757L571.269 34.3867L570.796 34.3192L570.391 34.3462L570.256 34.4137L570.27 34.4947L569.784 34.8187L569.581 35.0482L569.419 35.3317L569.284 35.7232L569.446 35.9932L569.5 36.2497L569.46 36.3037L569.635 36.6142L570.067 36.9517L570.108 37.3162L570.283 37.3972L570.877 37.5052L571.228 37.7482L571.984 38.1262L572.551 38.5852L572.835 38.7067L573.132 39.0577L573.172 39.1927L573.51 39.4897L573.618 39.8137V40.0702L573.712 40.1782L573.82 40.3942L573.888 40.9207L573.793 41.4472L573.766 41.8927L573.604 42.1222L573.388 42.6487L573.078 42.9052L572.97 43.0402L572.47 43.3642L572.025 43.5262L571.39 43.6477H569.608L568.69 43.4722L568.11 43.2022L567.907 42.7972ZM577.823 34.2382L577.404 33.9817L577.458 33.7792L577.566 33.6847L577.917 33.5362L578.376 33.4552H579.362L580.266 33.5497L580.914 33.4687L581.09 33.4957L581.576 33.6847L581.711 33.9817L581.319 34.2382L581.063 34.3327L581.252 34.5757L580.82 34.6702L580.442 34.8457L580.266 35.0212L580.131 35.2642L580.077 35.7367L580.185 36.0607L580.01 36.4522L580.172 36.9787L580.118 37.2082L580.145 37.2757V37.5997L580.037 37.9237L580.172 38.2477L580.064 38.5447L580.185 39.0712L580.091 39.2467L579.902 39.3547L580.118 39.5167L580.185 39.6922L580.118 39.9892L580.172 40.4752V41.1502L580.104 41.5552L580.361 42.2437L580.523 42.3652L580.86 42.3922L581.171 42.4597L581.4 42.5677L581.616 42.7837L581.67 43.1077L581.643 43.1887L581.387 43.5127L581.022 43.5532H580.415L579.942 43.6072H578.12L577.863 43.5667L577.647 43.4722L577.485 43.2967L577.526 43.0267L577.485 42.7297L577.526 42.6757L577.796 42.5407L578.498 42.3922L578.727 42.1222L578.849 41.9197L579.011 41.5012V40.9072L579.051 40.7317L578.93 40.6372V38.4232L578.984 37.8562L578.93 37.6807V36.2497L578.889 36.0337L578.984 35.6962V35.1697L578.781 34.8997L578.309 34.6162L577.647 34.4002L577.823 34.2382ZM586.051 42.7972L585.929 42.7432L585.524 42.3247L585.457 42.1087L585.254 41.8927V41.5957L584.849 40.4887V39.8137L584.728 39.7192V39.2197L584.674 38.5717V38.1397L584.741 37.8292L584.849 37.6807L584.728 37.3972L584.944 36.1822L585.2 35.8447L585.173 35.4937L585.227 35.2372L585.524 34.7782L586.186 33.9952L586.591 33.6577L587.671 33.3067L588.184 33.2392L589.048 33.3472L589.48 33.4687L590.02 33.7117L590.384 33.9952L590.465 34.3597L590.816 34.6162L590.87 34.9132L590.735 35.2372L590.479 35.3857H590.128L589.898 35.2642L589.682 34.9942L589.318 34.7512L588.832 34.4677L588.562 34.2787L588.386 34.2652L588.035 34.3192L587.468 34.4947L587.306 34.7242L586.955 34.9132L586.429 35.5342V35.7772L586.321 35.9932L586.105 36.2362L586.267 36.5062L586.24 36.6277L585.997 36.8437L586.105 37.3297L586.051 37.5997L585.983 38.4097L586.037 38.9362L585.983 39.2332L586.037 39.3817L586.078 39.9757L586.159 40.1782L586.24 40.5562L586.375 40.9207L586.429 41.3527L586.483 41.5012L586.685 41.6767L586.847 41.9062L586.834 42.0547L587.05 42.2302L587.63 42.4327L588.224 42.5407L589.007 42.4057L589.385 42.2842H589.547L589.723 41.8657L589.979 41.3662L590.182 40.8667L590.344 40.6507L590.182 40.2727L590.209 40.0432L589.763 39.9217L589.102 39.8677L588.737 39.9352L588.359 39.8407L588.184 39.7192L588.089 39.4897L588.278 39.2467L588.103 39.1387L588.481 38.8417L588.859 38.7877H590.884L591.167 38.8822L591.437 39.1117L591.667 39.4897L591.694 39.7057L591.572 39.9352L591.64 40.1917L591.572 40.4617L591.491 40.9477L591.221 41.5282L591.262 41.5957L590.938 42.1357L590.884 42.2842L590.681 42.6487L590.546 42.7972L590.047 43.1617L589.831 43.3642L588.643 43.7422H587.738L587.576 43.6207L586.982 43.5262L586.361 43.2427L586.051 42.7972ZM593.928 43.1482L593.847 42.9187L593.901 42.1897L593.847 41.7172L593.901 41.2852L593.847 41.1097L593.914 40.6912L593.847 40.5697V39.6112L593.968 39.3547L593.847 39.0577V38.3422L593.901 38.1262L593.847 37.6672L593.887 37.5187L594.022 37.3567L593.847 37.1542V36.1282L593.968 35.7772L593.847 35.6287L593.887 35.2777V34.5892L593.995 34.5622L593.847 34.1842L593.968 33.8332L594.144 33.6442L594.346 33.5362L594.67 33.4957L595.264 33.6982L595.453 33.8332L595.534 34.0897L595.521 34.2517L595.872 34.6162L595.926 34.7647L595.953 34.9942L596.074 35.0752L596.196 35.3722L596.25 35.8042L596.533 36.0202L596.628 36.1822L596.587 36.4792L596.844 36.6817L596.884 36.8167V37.1272L597.276 37.5052L597.303 37.7212V37.9912L597.505 38.0317L597.586 38.2882L597.883 38.8147L597.924 39.0847L598.126 39.4897L598.261 39.6247L598.599 40.2592L598.869 40.1782L598.99 40.0162L599.044 39.7057L599.125 39.5437V38.8822L599.179 38.4772L599.125 38.3017V36.2362L599.085 35.8987L599.166 35.6827L599.125 35.5207V34.4947L599.355 34.2247L599.125 34.1437L599.26 33.7657L599.368 33.7117L599.733 33.6712L600.07 33.7522L600.192 33.9952L600.057 34.2382L600.232 34.6162V35.4532L600.151 35.7232L600.259 36.0877L600.232 36.2902L600.097 36.3577L600.205 36.7087V37.5727L600.259 38.1262L600.151 38.3962L600.259 38.9767L600.178 39.2332L600.003 39.3817L600.205 39.5437V40.1377L600.259 40.2592V42.1627L600.205 42.4192L600.259 42.6757L600.232 42.9187L600.151 43.1617L600.003 43.3642L599.611 43.5532H599.368L598.963 43.4317L598.747 43.2697L598.545 42.8242L598.342 42.5272L598.234 42.2302L598.018 41.9332L597.87 41.3392L597.64 41.0827L597.33 40.3807L597.397 40.1512L596.965 39.6787L596.925 39.4357L597.019 39.3142L596.844 39.1927L596.709 39.0577L596.52 38.5582L596.25 38.1802L596.29 38.0047L596.182 37.8022L595.899 37.5052V37.2757L596.047 37.1812L595.791 37.0462L595.386 36.9247L595.237 36.9517L595.035 37.2352L595.116 37.4242V38.3017L594.94 38.6122L595.089 38.8822L595.035 39.5437L595.116 39.7732L595.062 40.0837L595.116 40.3942L595.021 40.6912L595.075 40.5562L595.116 41.1097L594.94 41.5822L595.089 41.7172L595.116 41.8927L594.994 42.3112L595.116 42.5407L594.994 43.0807L594.765 43.4452L594.198 43.3777L594.103 43.3237L593.928 43.1482ZM602.52 42.9997L602.628 42.7432V42.5002L602.817 42.2437V41.7847L602.966 41.5282L603.033 41.3257V41.0287L603.182 40.6912V40.4887L603.236 40.2322L603.411 39.8947V39.7462L603.492 39.3682L603.614 39.2737L603.668 38.7337L603.857 38.4232V38.0857L604.059 37.4782L604.329 36.9517L604.248 36.9382L604.289 36.6142L604.491 36.2497L604.437 36.0202L604.559 35.7502L604.613 35.6962L604.707 35.4532L604.613 35.3047L604.734 34.8187L604.91 34.4002L605.072 34.2517V33.9277L605.18 33.7387L605.396 33.6307L605.693 33.5497H605.922L606.111 33.5902L606.422 33.7657L606.449 34.0897L606.746 34.5352L606.975 35.7232L607.245 36.3307L607.326 37.0057L607.448 37.2487L607.799 38.3287V38.5582L607.745 38.7337L607.907 38.8822L608.123 39.3007V39.7597L608.082 39.9622L608.339 40.2862L608.568 41.2717L608.555 41.4877L608.649 41.5822L608.784 41.8117L608.838 42.0952L608.811 42.4192L608.933 42.6352L608.987 42.8107L608.919 43.3102L608.649 43.5397L608.447 43.5532L608.055 43.4722L607.799 43.0807V42.9052L607.259 41.7847L607.07 41.5687L606.732 41.4067H605.814L604.667 41.5282L604.451 41.6632L603.978 42.2572L604.046 42.3922L603.681 43.2967L603.438 43.4587L603.168 43.4857L602.75 43.4182L602.574 43.2697L602.52 42.9997ZM605.072 40.1782H606.408L606.597 40.1242L606.827 39.8947L606.759 39.4087L606.476 38.1262L606.206 37.2892L605.99 36.8167L605.895 36.7357L605.517 36.8707L605.355 37.0867L605.423 37.1947L605.315 37.5052L605.274 37.4377L605.153 38.1127L605.072 38.2747L604.815 38.5177L604.977 38.6257L604.91 38.9632L604.802 39.2602V39.5842L604.923 39.7192L604.734 39.8542L604.748 40.0432L605.072 40.1782ZM614.042 42.9187L613.934 42.7972V41.7307L614.069 41.2717L613.988 41.2177V40.2457L614.069 40.0027V39.2467L614.029 39.1117L614.002 38.7877L614.11 38.4907L613.961 38.1127L614.015 37.7212L613.975 37.6267V35.8987L614.096 35.5747L613.907 35.3722L613.867 34.9267L613.678 34.8052L613.3 34.6567L612.733 34.5217H611.761L611.774 34.3732L611.261 34.0762L611.194 34.0627L611.221 33.8062L611.396 33.6577L612.166 33.4417H613.394L614.353 33.5227L614.596 33.4687H615.784L616.337 33.4147L617.012 33.5362H617.471L617.836 33.7117L617.876 33.8332L617.728 34.1032L617.552 34.1707L617.714 34.4542L617.417 34.5487H616.634L616.135 34.5892L615.689 34.6972L615.338 34.8997L615.23 35.0482L615.095 35.4667V35.7367L615.149 35.8042V39.6787L615.041 40.0972L615.149 40.2322V40.8937L615.095 41.2177L614.933 41.1772L615.149 41.6227L615.095 42.1357L615.136 42.5947L615.001 43.1887L614.879 43.4047L614.623 43.4992L614.407 43.4857L614.069 43.2967L614.042 42.9187ZM620.65 42.5947L620.191 41.7307L620.137 41.4202L620.232 41.1367L620.056 40.9882V40.5157L620.137 40.4617L620.016 40.1512L620.137 39.6382V39.0712L620.016 38.7472L620.178 38.3287L620.07 38.0182V36.2362L620.016 35.7772L620.07 35.4937V35.0077L620.124 34.7647L620.083 34.6297V34.2517L620.151 34.0627L620.205 33.6577L620.394 33.5227L621.069 33.6037L621.231 34.1707L621.325 34.2517V34.5487L621.285 34.7377L621.339 35.4397L621.231 35.5747L621.325 35.9392L621.096 36.0742L621.298 36.2497L621.325 36.3982L621.298 36.5737L621.163 36.8572L621.339 37.2892L621.231 37.6672L621.339 37.7887V38.8012L621.109 39.0172L621.339 39.4627L621.285 40.0702L621.339 40.6237V41.1772L621.406 41.3527L621.717 41.8252L622.135 42.2572L622.621 42.5677H623.62L624.052 42.4867L624.889 41.8387L625.024 41.4202L625.213 41.1367V39.9757L625.348 39.7192L625.254 39.4897L625.186 39.4087L625.267 39.0712L625.186 38.7202L625.335 38.2342L625.2 37.9102L625.227 37.8157V37.1677L625.173 36.5332L625.213 36.1957V35.5342L625.294 35.2642L625.227 34.6432V34.1167L625.551 33.8332L625.483 33.5767L625.74 33.4687L626.172 33.5632L626.347 33.7927L626.482 34.1167V34.3597L626.428 34.5217V35.0887L626.482 35.7772V36.2767L626.442 36.6682L626.482 37.1677V39.1792L626.428 39.6652L626.469 39.8947L626.347 40.3807L626.482 40.6507L626.455 40.9342L626.226 41.6632L626.199 41.9872L626.131 42.1492L625.74 42.5947L625.618 42.8242L624.606 43.4587L624.174 43.6342L623.593 43.7287H622.945L622.473 43.6747L621.892 43.5262L621.339 43.2697L620.907 42.9457L620.65 42.5947ZM628.946 43.1347L628.905 42.9727L628.784 42.7432V41.9467L628.838 41.3392L628.784 41.1637V37.4512L628.824 37.1677L628.784 36.6547L628.824 36.4522V34.8322L628.784 34.6162L628.905 34.1572L628.851 34.1437L628.878 33.8062L629.148 33.5497L629.567 33.4012H631.74L632.145 33.4282L632.658 33.5092L633.117 33.6712L633.657 33.9817L633.914 34.1842L634.278 34.5757L634.481 34.9537L634.67 35.5477L634.616 35.7502L634.697 36.3712V36.8302L634.481 37.2892L634.467 37.4242L634.332 37.8022L633.981 38.1532L633.9 38.3287L633.374 38.8282V39.6382L633.59 39.7732L634.035 40.4752L634.305 41.0287L634.386 41.4337L634.265 41.5417L634.386 41.6362L634.845 42.1222L634.886 42.2437V42.4462L635.156 42.7972V43.1887L635.102 43.2832L635.088 43.4317L634.832 43.5397L634.44 43.5127L634.116 43.2967L633.941 43.0807L633.63 42.4597L633.428 42.1222L633.387 41.9737L633.441 41.8387L633.063 41.3797L632.361 40.0027L632.28 39.5302L631.7 39.1792L630.66 38.9092L630.053 39.5302L630.093 40.0297L630.066 40.5562V41.2042L629.999 41.8387L630.053 41.9197V42.9187L629.756 43.2157L629.472 43.3237L629.283 43.3507L629.027 43.2697L628.946 43.1347ZM630.336 37.6672L630.755 37.7482H632.402L633.252 37.4107L633.239 37.2082L633.441 36.8572L633.536 36.5062V36.1822L633.495 35.8852L633.279 35.1832L632.658 34.7917L632.618 34.6702L632.064 34.4002H630.836L630.633 34.3597L630.282 34.6297L630.147 34.6432L630.242 34.8997L630.134 35.1427L630.093 35.8312L629.931 36.1552L630.093 36.3577L630.012 36.8032L630.093 37.1812L630.053 37.3837L630.107 37.4782L630.336 37.6672ZM637.633 42.9997L637.565 42.6757V41.8657L637.511 41.6362L637.619 41.3662L637.565 41.1772L637.619 40.6912L637.579 40.3672L637.619 39.9487L637.565 39.8137L637.619 38.9632V37.7617L637.579 37.4782L637.606 37.1542L637.687 36.8167L637.565 36.6547V36.0202L637.619 35.6287L637.565 35.3992V34.6162L637.646 33.8467L637.903 33.5902L638.146 33.4687H642.79L642.925 33.5362L643.546 33.7117L643.762 34.0762L643.6 34.3057L643.33 34.4407L641.723 34.5892H640.576L640.049 34.5217L639.739 34.5892L639.334 34.7377L639.01 34.9402L638.821 35.1562V35.7232L638.591 35.9932L638.821 36.2227V36.6007L638.713 36.7897L638.875 36.9247L638.969 37.4242L639.442 37.6402L639.86 37.6807H642.871L643.114 37.7212L643.235 37.7887L643.424 37.9912L643.559 38.3827L643.424 38.5717L643.222 38.6797L642.884 38.7877L642.56 38.8282L642.196 38.7337H640.022L639.941 38.6527L639.631 38.8012L639.199 38.8552L639.077 38.9902L638.888 39.3007L638.821 39.5842L638.875 39.9352L638.713 40.2997L638.821 40.6777V40.8397L638.564 40.8937L638.848 41.2582V41.5822L638.794 41.7307L639.05 42.1627L639.455 42.5407L639.685 42.6352L640.225 42.5407H641.237L641.872 42.4867L642.142 42.5407H643.289L643.478 42.5812L643.721 42.7972L643.667 43.0402V43.3912L643.343 43.5532L642.749 43.6207H640.009L639.725 43.5532L639.577 43.6207H638.294L637.903 43.3102L637.619 43.1887L637.633 42.9997ZM655.128 43.1347L655.088 42.9727L654.966 42.7432V41.9467L655.02 41.3392L654.966 41.1637V37.4512L655.007 37.1677L654.966 36.6547L655.007 36.4522V34.8322L654.966 34.6162L655.088 34.1572L655.034 34.1437L655.061 33.8062L655.331 33.5497L655.749 33.4012H657.923L658.328 33.4282L658.841 33.5092L659.3 33.6712L659.84 33.9817L660.096 34.1842L660.461 34.5757L660.663 34.9537L660.852 35.5477L660.798 35.7502L660.879 36.3712V36.8302L660.663 37.2892L660.65 37.4242L660.515 37.8022L660.164 38.1532L660.083 38.3287L659.556 38.8282V39.6382L659.772 39.7732L660.218 40.4752L660.488 41.0287L660.569 41.4337L660.447 41.5417L660.569 41.6362L661.028 42.1222L661.068 42.2437V42.4462L661.338 42.7972V43.1887L661.284 43.2832L661.271 43.4317L661.014 43.5397L660.623 43.5127L660.299 43.2967L660.123 43.0807L659.813 42.4597L659.61 42.1222L659.57 41.9737L659.624 41.8387L659.246 41.3797L658.544 40.0027L658.463 39.5302L657.882 39.1792L656.843 38.9092L656.235 39.5302L656.276 40.0297L656.249 40.5562V41.2042L656.181 41.8387L656.235 41.9197V42.9187L655.938 43.2157L655.655 43.3237L655.466 43.3507L655.209 43.2697L655.128 43.1347ZM656.519 37.6672L656.937 37.7482H658.584L659.435 37.4107L659.421 37.2082L659.624 36.8572L659.718 36.5062V36.1822L659.678 35.8852L659.462 35.1832L658.841 34.7917L658.8 34.6702L658.247 34.4002H657.018L656.816 34.3597L656.465 34.6297L656.33 34.6432L656.424 34.8997L656.316 35.1427L656.276 35.8312L656.114 36.1552L656.276 36.3577L656.195 36.8032L656.276 37.1812L656.235 37.3837L656.289 37.4782L656.519 37.6672ZM663.815 42.9997L663.748 42.6757V41.8657L663.694 41.6362L663.802 41.3662L663.748 41.1772L663.802 40.6912L663.761 40.3672L663.802 39.9487L663.748 39.8137L663.802 38.9632V37.7617L663.761 37.4782L663.788 37.1542L663.869 36.8167L663.748 36.6547V36.0202L663.802 35.6287L663.748 35.3992V34.6162L663.829 33.8467L664.085 33.5902L664.328 33.4687H668.972L669.107 33.5362L669.728 33.7117L669.944 34.0762L669.782 34.3057L669.512 34.4407L667.906 34.5892H666.758L666.232 34.5217L665.921 34.5892L665.516 34.7377L665.192 34.9402L665.003 35.1562V35.7232L664.774 35.9932L665.003 36.2227V36.6007L664.895 36.7897L665.057 36.9247L665.152 37.4242L665.624 37.6402L666.043 37.6807H669.053L669.296 37.7212L669.418 37.7887L669.607 37.9912L669.742 38.3827L669.607 38.5717L669.404 38.6797L669.067 38.7877L668.743 38.8282L668.378 38.7337H666.205L666.124 38.6527L665.813 38.8012L665.381 38.8552L665.26 38.9902L665.071 39.3007L665.003 39.5842L665.057 39.9352L664.895 40.2997L665.003 40.6777V40.8397L664.747 40.8937L665.03 41.2582V41.5822L664.976 41.7307L665.233 42.1627L665.638 42.5407L665.867 42.6352L666.407 42.5407H667.42L668.054 42.4867L668.324 42.5407H669.472L669.661 42.5812L669.904 42.7972L669.85 43.0402V43.3912L669.526 43.5532L668.932 43.6207H666.191L665.908 43.5532L665.759 43.6207H664.477L664.085 43.3102L663.802 43.1887L663.815 42.9997ZM673.096 42.6352L672.813 42.2302L672.61 41.7847L672.556 41.3797L672.367 41.1637L672.313 40.6777L672.232 40.4752L672.111 39.5437L672.286 39.3142L672.111 39.1117L672.165 38.3152V37.2757L672.246 36.9382L672.084 36.6682L672.354 36.5197L672.286 36.1822L672.354 35.7637L672.502 35.6152V35.3587L672.934 34.5892L673.123 34.3867L673.272 34.2922L673.582 34.2517L673.461 33.9142L673.812 33.6982L674.473 33.5092L674.905 33.2797L675.162 33.2392H676.026L676.62 33.3337L677.092 33.5227L677.74 33.9007L677.767 34.1572L678.186 34.4947L678.415 34.7377L678.847 35.7097L678.915 36.2497L678.861 36.2632L679.036 36.7357L678.996 36.8842V37.1677L679.104 37.3702L679.023 37.5997L678.928 37.6402L679.023 38.0047L679.104 38.0317V39.0307L678.996 39.2062L678.699 39.2467L678.928 39.3817L679.036 39.7327L678.955 40.0027L678.996 40.3267L678.861 41.1367L678.604 41.5282V41.8927L678.307 42.5002L678.213 42.8917L678.429 43.4182L678.253 43.7827L678.375 43.9312L678.172 44.0527L677.902 44.1067L677.565 44.0527L677.052 43.8097L676.485 43.6747H675.067L674.838 43.6072L674.284 43.5262L673.812 43.2967L673.542 43.0942L673.096 42.6352ZM673.744 40.1377L674.257 40.2322L675.121 40.3267L675.553 40.4482L676.309 40.9342L676.836 41.1907L677.079 41.2177L677.295 41.1232L677.47 40.8667L677.713 40.2322L677.875 40.0567L677.767 39.5572L677.956 39.3547L677.848 39.0577V38.8012L677.956 38.6797L678.024 38.4772L677.956 38.3692L677.862 38.0047L677.929 37.8292L677.821 37.6807L677.74 36.8707L677.781 36.3847L677.646 36.1957L677.511 35.7367L677.551 35.6152L677.47 35.5342L677.268 35.4127L676.822 34.8727L676.512 34.5892L675.931 34.2652H675.175L674.865 34.5892L674.595 34.7512L674.136 35.1427L673.731 35.6827L673.69 36.1282L673.488 36.3712L673.447 36.9247L673.339 37.2082L673.393 37.5592L673.339 37.9237V38.6257L673.366 38.8147L673.312 39.2467L673.528 40.0297L673.744 40.1377ZM674.797 42.4057L674.946 42.4462H675.54L675.918 42.3247L675.432 41.8522L675.31 41.7712L674.743 41.5687L674.568 41.4742L674.352 41.5552L674.446 41.7982L674.406 41.9062L674.446 42.2302L674.797 42.4057ZM681.743 42.5947L681.284 41.7307L681.23 41.4202L681.325 41.1367L681.149 40.9882V40.5157L681.23 40.4617L681.109 40.1512L681.23 39.6382V39.0712L681.109 38.7472L681.271 38.3287L681.163 38.0182V36.2362L681.109 35.7772L681.163 35.4937V35.0077L681.217 34.7647L681.176 34.6297V34.2517L681.244 34.0627L681.298 33.6577L681.487 33.5227L682.162 33.6037L682.324 34.1707L682.418 34.2517V34.5487L682.378 34.7377L682.432 35.4397L682.324 35.5747L682.418 35.9392L682.189 36.0742L682.391 36.2497L682.418 36.3982L682.391 36.5737L682.256 36.8572L682.432 37.2892L682.324 37.6672L682.432 37.7887V38.8012L682.202 39.0172L682.432 39.4627L682.378 40.0702L682.432 40.6237V41.1772L682.499 41.3527L682.81 41.8252L683.228 42.2572L683.714 42.5677H684.713L685.145 42.4867L685.982 41.8387L686.117 41.4202L686.306 41.1367V39.9757L686.441 39.7192L686.347 39.4897L686.279 39.4087L686.36 39.0712L686.279 38.7202L686.428 38.2342L686.293 37.9102L686.32 37.8157V37.1677L686.266 36.5332L686.306 36.1957V35.5342L686.387 35.2642L686.32 34.6432V34.1167L686.644 33.8332L686.576 33.5767L686.833 33.4687L687.265 33.5632L687.44 33.7927L687.575 34.1167V34.3597L687.521 34.5217V35.0887L687.575 35.7772V36.2767L687.535 36.6682L687.575 37.1677V39.1792L687.521 39.6652L687.562 39.8947L687.44 40.3807L687.575 40.6507L687.548 40.9342L687.319 41.6632L687.292 41.9872L687.224 42.1492L686.833 42.5947L686.711 42.8242L685.699 43.4587L685.267 43.6342L684.686 43.7287H684.038L683.566 43.6747L682.985 43.5262L682.432 43.2697L682 42.9457L681.743 42.5947ZM691.281 34.2382L690.862 33.9817L690.916 33.7792L691.024 33.6847L691.375 33.5362L691.834 33.4552H692.82L693.724 33.5497L694.372 33.4687L694.548 33.4957L695.034 33.6847L695.169 33.9817L694.777 34.2382L694.521 34.3327L694.71 34.5757L694.278 34.6702L693.9 34.8457L693.724 35.0212L693.589 35.2642L693.535 35.7367L693.643 36.0607L693.468 36.4522L693.63 36.9787L693.576 37.2082L693.603 37.2757V37.5997L693.495 37.9237L693.63 38.2477L693.522 38.5447L693.643 39.0712L693.549 39.2467L693.36 39.3547L693.576 39.5167L693.643 39.6922L693.576 39.9892L693.63 40.4752V41.1502L693.562 41.5552L693.819 42.2437L693.981 42.3652L694.318 42.3922L694.629 42.4597L694.858 42.5677L695.074 42.7837L695.128 43.1077L695.101 43.1887L694.845 43.5127L694.48 43.5532H693.873L693.4 43.6072H691.578L691.321 43.5667L691.105 43.4722L690.943 43.2967L690.984 43.0267L690.943 42.7297L690.984 42.6757L691.254 42.5407L691.956 42.3922L692.185 42.1222L692.307 41.9197L692.469 41.5012V40.9072L692.509 40.7317L692.388 40.6372V38.4232L692.442 37.8562L692.388 37.6807V36.2497L692.347 36.0337L692.442 35.6962V35.1697L692.239 34.8997L691.767 34.6162L691.105 34.4002L691.281 34.2382ZM698.766 43.1347L698.726 42.9727L698.604 42.7432V41.9467L698.658 41.3392L698.604 41.1637V37.4512L698.645 37.1677L698.604 36.6547L698.645 36.4522V34.8322L698.604 34.6162L698.726 34.1572L698.672 34.1437L698.699 33.8062L698.969 33.5497L699.387 33.4012H701.561L701.966 33.4282L702.479 33.5092L702.938 33.6712L703.478 33.9817L703.734 34.1842L704.099 34.5757L704.301 34.9537L704.49 35.5477L704.436 35.7502L704.517 36.3712V36.8302L704.301 37.2892L704.288 37.4242L704.153 37.8022L703.802 38.1532L703.721 38.3287L703.194 38.8282V39.6382L703.41 39.7732L703.856 40.4752L704.126 41.0287L704.207 41.4337L704.085 41.5417L704.207 41.6362L704.666 42.1222L704.706 42.2437V42.4462L704.976 42.7972V43.1887L704.922 43.2832L704.909 43.4317L704.652 43.5397L704.261 43.5127L703.937 43.2967L703.761 43.0807L703.451 42.4597L703.248 42.1222L703.208 41.9737L703.262 41.8387L702.884 41.3797L702.182 40.0027L702.101 39.5302L701.52 39.1792L700.481 38.9092L699.873 39.5302L699.914 40.0297L699.887 40.5562V41.2042L699.819 41.8387L699.873 41.9197V42.9187L699.576 43.2157L699.293 43.3237L699.104 43.3507L698.847 43.2697L698.766 43.1347ZM700.157 37.6672L700.575 37.7482H702.222L703.073 37.4107L703.059 37.2082L703.262 36.8572L703.356 36.5062V36.1822L703.316 35.8852L703.1 35.1832L702.479 34.7917L702.438 34.6702L701.885 34.4002H700.656L700.454 34.3597L700.103 34.6297L699.968 34.6432L700.062 34.8997L699.954 35.1427L699.914 35.8312L699.752 36.1552L699.914 36.3577L699.833 36.8032L699.914 37.1812L699.873 37.3837L699.927 37.4782L700.157 37.6672ZM707.453 42.9997L707.386 42.6757V41.8657L707.332 41.6362L707.44 41.3662L707.386 41.1772L707.44 40.6912L707.399 40.3672L707.44 39.9487L707.386 39.8137L707.44 38.9632V37.7617L707.399 37.4782L707.426 37.1542L707.507 36.8167L707.386 36.6547V36.0202L707.44 35.6287L707.386 35.3992V34.6162L707.467 33.8467L707.723 33.5902L707.966 33.4687H712.61L712.745 33.5362L713.366 33.7117L713.582 34.0762L713.42 34.3057L713.15 34.4407L711.544 34.5892H710.396L709.87 34.5217L709.559 34.5892L709.154 34.7377L708.83 34.9402L708.641 35.1562V35.7232L708.412 35.9932L708.641 36.2227V36.6007L708.533 36.7897L708.695 36.9247L708.79 37.4242L709.262 37.6402L709.681 37.6807H712.691L712.934 37.7212L713.056 37.7887L713.245 37.9912L713.38 38.3827L713.245 38.5717L713.042 38.6797L712.705 38.7877L712.381 38.8282L712.016 38.7337H709.843L709.762 38.6527L709.451 38.8012L709.019 38.8552L708.898 38.9902L708.709 39.3007L708.641 39.5842L708.695 39.9352L708.533 40.2997L708.641 40.6777V40.8397L708.385 40.8937L708.668 41.2582V41.5822L708.614 41.7307L708.871 42.1627L709.276 42.5407L709.505 42.6352L710.045 42.5407H711.058L711.692 42.4867L711.962 42.5407H713.11L713.299 42.5812L713.542 42.7972L713.488 43.0402V43.3912L713.164 43.5532L712.57 43.6207H709.829L709.546 43.5532L709.397 43.6207H708.115L707.723 43.3102L707.44 43.1887L707.453 42.9997ZM716.208 43.1212L716.329 42.9052L716.154 42.6487V39.5302L716.208 39.1792L716.154 38.8282L716.208 38.4502L716.154 38.3557V37.1542L716.329 37.1137L716.194 36.8842L716.154 36.5872L716.194 36.3577L716.343 36.2902L716.154 36.1687L716.208 35.7502L716.154 35.4127V35.1292L716.208 34.8727L716.154 34.6702V34.3597L716.221 33.9412L716.275 33.8332L716.424 33.7252L716.842 33.6037L717.463 33.4957L718.017 33.6172H718.287L718.813 33.5092L719.191 33.6172L719.893 33.6847L720.352 33.8332L720.744 34.0357L721.162 34.3327L721.662 34.8457L721.959 35.2642L721.972 35.4127L721.891 35.5072L722.04 35.6152L722.296 36.0067L722.283 36.3172L722.404 36.6142L722.553 37.4242L722.526 37.5727L722.377 37.7617L722.593 38.2612L722.566 38.4502L722.445 38.7067L722.539 39.1522L722.472 39.3547L722.566 39.5437L722.431 40.4482L722.256 40.7452L722.296 40.8937L722.283 41.0422L722.053 41.3122L721.972 41.8252L721.378 42.5812L721.216 42.6892L720.852 42.8242L720.636 42.9862L720.285 43.3237L719.799 43.4722L718.827 43.6207H717.166L716.694 43.5532L716.356 43.3912L716.208 43.1212ZM718.638 42.3652L719.893 42.2302V42.1087L720.447 41.5552L720.649 41.4202L720.919 40.9342L721.041 40.5157L721.189 40.2592L721.257 39.7597L721.351 39.3547V37.7482L721.257 37.5997V37.1407L720.879 36.2092L720.825 35.7637L720.244 35.1967L719.947 34.9537L719.178 34.7512L718.746 34.6972H718.017L717.774 34.7377L717.504 35.0752L717.409 35.3992V37.2487L717.247 37.6672L717.409 37.9912V38.2072L717.369 38.4907L717.409 38.9092L717.558 39.0982L717.301 39.2737L717.409 39.4897V40.5697L717.328 40.7317L717.409 40.9072L717.369 41.4337L717.436 41.8117L717.666 42.3652H718.638ZM727.014 42.9457L726.974 42.5272L727.095 42.0547L727.338 41.8792L727.811 41.6632L727.986 41.6362L728.283 41.6632L728.472 41.7442L728.675 41.8927L728.891 42.1492L728.972 42.4867L728.904 42.9187L728.661 43.0807L728.634 43.2157L728.675 43.3642L728.432 43.5667L727.838 43.6207L727.514 43.5802L727.014 42.9457ZM726.947 37.2352L727.068 37.1002V36.7492L727.257 36.4792L727.986 36.2767H728.283L728.513 36.3307L728.769 36.5197L728.891 36.7222L728.972 37.0867V37.4377L728.796 37.5727L728.715 37.8832L728.418 38.1127L728 38.1802L727.824 38.1667L727.433 38.0317L726.947 37.6267V37.2352Z" fill="#252525"/>
<line x1="101.733" y1="37.5107" x2="158.056" y2="37.5107" stroke="#252525"/>
<path d="M177.164 36.773L181.923 41.7016L196.015 27.6097" stroke="#252525"/>
<path d="M321.172 36.773L325.93 41.7016L340.022 27.6097" stroke="#252525"/>
<path d="M846.832 45.4625C846.195 45.4625 845.645 45.45 845.083 45.4625C842.96 45.4999 840.85 45.5499 838.727 45.5874C835.18 45.6498 831.621 45.6997 828.074 45.7872C826.363 45.8246 824.652 45.9995 822.941 46.0369C820.356 46.0744 817.771 46.0494 815.173 46.0494C813.362 46.0494 811.552 46.0369 809.741 46.0494C802.597 46.0744 795.454 46.1493 788.31 46.1369C784.651 46.1244 780.992 45.987 777.333 45.8496C774.473 45.7372 771.613 45.5749 768.753 45.3875C767.742 45.3251 766.73 45.1003 765.719 44.9879C765.082 44.913 764.445 44.938 763.808 44.838C762.809 44.6882 761.797 44.5383 760.823 44.2511C760.211 44.0762 759.574 43.814 759.237 43.1396C759.087 42.8274 759.1 42.6401 759.362 42.3903C760.161 41.666 761.035 41.1789 762.035 40.9042C764.994 40.1174 767.967 39.3556 770.926 38.5563C772.787 38.0568 774.635 37.4948 776.496 37.0202C778.919 36.4083 781.367 35.8588 783.802 35.2593C786.475 34.5974 789.135 33.8731 791.807 33.2112C792.806 32.9614 793.83 32.7866 794.842 32.5493C795.704 32.337 796.553 32.0498 797.427 31.85C799.15 31.4378 800.874 31.0632 802.585 30.676C802.66 30.6636 802.747 30.6511 802.835 30.6386C804.133 30.3264 805.42 30.0142 806.718 29.7019C808.717 29.2274 810.702 28.7403 812.713 28.3032C813.6 28.1034 814.511 28.0285 815.398 27.8536C817.309 27.504 819.207 27.0793 821.118 26.7671C823.303 26.405 825.514 26.1302 827.699 25.818C829.011 25.6307 830.322 25.3934 831.633 25.231C834.068 24.9438 836.504 24.6815 838.939 24.4692C840.587 24.3319 842.248 24.3568 843.897 24.207C848.368 23.7949 852.839 23.8323 857.322 24.0072C858.971 24.0696 860.631 24.3319 862.267 24.6441C863.466 24.8689 864.44 25.4933 864.94 26.7422C865.252 27.5289 864.928 28.2033 864.703 28.8777C864.428 29.7019 864.028 30.4887 863.641 31.3879C863.879 31.238 864.078 31.1131 864.278 31.0007C865.052 30.5636 865.814 30.1141 866.601 29.7019C867.5 29.2274 868.462 29.3772 869.224 29.8518C869.786 30.2015 870.148 30.9258 870.472 31.5502C870.672 31.9374 870.66 32.4369 870.722 32.8865C870.772 33.2362 870.885 33.3736 871.259 33.2362C872.795 32.6617 874.381 32.1872 875.88 31.5128C877.379 30.8259 878.765 29.9018 880.238 29.1649C881.675 28.4531 882.536 27.1668 883.585 26.0678C884.934 24.6441 886.245 23.1704 887.819 21.984C888.418 21.5344 888.955 21.0099 889.555 20.5728C890.204 20.0983 890.629 20.1357 890.979 20.5728C891.328 20.9974 891.291 21.8217 890.879 22.2463C889.73 23.4327 888.593 24.6191 887.419 25.7805C886.907 26.2801 886.283 26.6672 885.746 27.1543C885.072 27.7662 884.435 28.4031 883.798 29.0525C882.649 30.2389 881.55 31.4503 880.388 32.6367C879.976 33.0614 879.489 33.3985 879.04 33.7732C879.09 33.8356 879.139 33.9106 879.189 33.973C879.951 33.5109 880.701 33.0114 881.475 32.5868C882.836 31.8375 884.21 31.1131 885.609 30.4263C885.896 30.2889 886.308 30.3014 886.633 30.3763C887.207 30.4887 887.419 31.1131 887.07 31.6002C886.92 31.8125 886.683 31.9749 886.495 32.1747C886.083 32.6118 885.683 33.0614 885.284 33.4985C884.759 34.0729 884.235 34.6474 883.723 35.2344C883.386 35.6215 883.073 36.0211 882.761 36.4208C882.524 36.733 882.287 37.0452 882.074 37.3699C881.987 37.5073 881.937 37.6821 881.874 37.8445C882.037 37.9069 882.212 38.0318 882.374 38.0193C882.849 37.9818 883.348 37.9569 883.785 37.807C886.433 36.8454 889.118 35.9462 891.466 34.3352C892.065 33.9231 892.565 33.3985 893.139 32.949C893.676 32.5243 894.251 32.5368 894.6 32.9115C894.95 33.2986 894.937 34.1603 894.563 34.5725C894.301 34.8722 894.026 35.1469 893.764 35.4467C893.739 35.4716 893.751 35.5216 893.726 35.6715C894.013 35.5466 894.251 35.4716 894.475 35.3468C895.824 34.6099 897.173 33.8731 898.509 33.1363C898.759 32.9989 899.021 32.8615 899.246 32.6742C899.983 32.0498 901.157 32.7242 901.119 33.5484C901.107 33.7857 901.019 34.0604 900.87 34.2353C900.37 34.8347 899.82 35.4092 899.296 35.9962C899.246 36.0461 899.234 36.1335 899.159 36.2959C899.721 36.146 900.208 36.0711 900.657 35.9087C902.331 35.3093 904.017 34.7098 905.678 34.0729C906.739 33.6608 907.838 33.3111 908.8 32.7117C909.587 32.2246 910.261 31.4878 910.86 30.776C912.421 28.8902 913.883 26.917 915.456 25.0437C916.992 23.2204 918.816 21.6718 920.701 20.1982C920.926 20.0233 921.213 19.9109 921.488 19.8735C922.175 19.7611 922.799 20.423 922.625 21.0973C922.525 21.4845 922.362 21.8966 922.113 22.2213C921.501 23.0206 920.826 23.7824 920.177 24.5691C918.828 26.2051 917.567 27.9411 916.093 29.4522C915.156 30.4138 914.307 31.5128 912.983 32.1247C911.859 32.6367 911.098 33.6358 910.461 34.7098C910.398 34.8222 910.386 35.0595 910.461 35.1469C910.561 35.2593 910.785 35.3842 910.91 35.3468C913.208 34.7973 915.494 34.1479 917.579 32.9989C918.279 32.6118 918.828 31.8999 919.34 31.263C920.214 30.2015 921.163 29.2149 922.275 28.4156C922.762 28.0659 923.461 28.1409 923.811 28.528C924.136 28.8902 924.111 29.7269 923.724 30.1265C922.45 31.4628 921.138 32.7616 919.877 34.1104C919.278 34.7473 918.778 35.4592 918.229 36.1335C917.991 36.4333 918.066 36.683 918.391 36.8329C918.816 37.0327 919.265 37.2825 919.715 37.3324C921.288 37.4823 922.862 37.5947 924.435 37.6322C928.457 37.7071 932.316 36.8204 936.1 35.5715C938.348 34.8222 940.196 33.4235 941.62 31.5627C942.506 30.4013 943.231 29.115 943.668 27.6788C944.255 25.7556 945.029 23.8698 945.391 21.9091C945.828 19.5612 945.928 17.1385 946.178 14.7532C946.228 14.2411 946.378 13.7291 946.378 13.2171C946.365 10.7069 946.403 8.18419 945.728 5.73644C945.229 3.95058 944.504 2.32707 942.581 1.70264C942.531 1.39043 942.481 1.12817 942.419 0.790979C943.106 0.628628 943.73 0.840933 944.292 1.17812C945.529 1.91495 946.49 2.86408 946.79 4.35021C947.015 5.4492 947.389 6.53571 947.514 7.64719C947.714 9.49549 947.801 11.3688 947.889 13.2296C948.014 16.1644 947.702 19.0617 947.302 21.959C946.977 24.3194 946.315 26.5673 945.429 28.7528C945.029 29.7144 944.642 30.6885 944.217 31.7376C944.467 31.5627 944.717 31.4129 944.954 31.2505C945.966 30.5262 946.952 29.7769 947.976 29.0775C948.826 28.4905 949.675 27.8287 950.611 27.4415C952.285 26.7422 953.846 25.6557 955.832 25.8555C956.556 25.9304 957.255 25.8929 957.73 26.5049C957.98 26.8296 958.242 27.2292 958.292 27.6164C958.404 28.578 958.454 29.5521 957.78 30.4013C957.468 30.7884 957.268 31.263 956.993 31.6751C956.856 31.8749 956.681 32.0748 956.468 32.1996C955.507 32.8116 954.533 33.411 953.571 34.023C953.384 34.1479 953.234 34.3227 953.134 34.56C954.046 34.3352 954.945 34.3102 955.719 33.6608C957.068 32.5368 958.554 31.5877 959.978 30.5636C960.103 30.4762 960.277 30.4263 960.44 30.4013C961.764 30.1141 962.013 30.4263 961.814 31.7625C961.664 32.7991 960.765 33.1363 960.153 33.7108C959.628 34.1978 958.879 34.4226 958.242 34.7848C958.154 34.8347 958.042 34.9721 958.055 35.047C958.067 35.1345 958.204 35.2344 958.304 35.2593C958.467 35.2968 958.629 35.2718 958.804 35.2718C960.902 35.2718 962.825 34.6849 964.761 33.8981C966.097 33.3611 967.259 32.5993 968.345 31.7251C968.969 31.2255 969.482 30.5761 970.044 30.0142C970.243 29.8143 970.493 29.652 970.718 29.4647C971.13 29.115 971.68 28.9901 972.017 29.3398C972.291 29.627 972.416 30.2389 972.316 30.6261C972.192 31.1131 971.804 31.5502 971.467 31.9374C970.755 32.7616 969.944 33.5234 969.257 34.3727C968.17 35.6964 967.146 37.0827 966.11 38.4314C966.085 38.4564 966.097 38.5064 966.097 38.6562C966.334 38.6063 966.584 38.6188 966.772 38.5188C967.733 38.0443 968.682 37.5323 969.656 37.0827C970.193 36.8329 970.793 36.7455 971.33 36.4957C973.141 35.6839 975.039 35.1719 976.987 34.8097C977.212 34.7723 977.462 34.6974 977.662 34.7723C977.886 34.8597 978.186 35.047 978.249 35.2468C978.536 36.2959 978.224 37.2575 977.687 38.1567C977.274 38.8435 976.787 39.4805 976.213 40.3297C976.712 40.2048 977.037 40.1049 977.374 40.03C977.761 39.9425 978.149 39.8801 978.523 39.7802C979.86 39.418 981.208 39.0559 982.545 38.6812C983.032 38.5438 983.481 38.5188 983.868 38.9185C984.218 39.2806 984.518 38.9809 984.792 38.7811C986.628 37.4823 988.689 36.9828 990.899 37.0827C991.936 37.1326 992.923 37.9818 992.498 39.3056C992.298 39.9051 992.123 40.4546 991.561 40.8417C991.099 41.1789 990.7 41.616 990.3 42.178C990.587 42.178 990.874 42.203 991.149 42.178C993.897 41.9532 996.644 41.6535 999.404 41.4911C1002.01 41.3288 1004.64 41.2913 1007.25 41.2289C1007.61 41.2164 1007.97 41.4287 1008.33 41.5411C1008.33 41.641 1008.32 41.7409 1008.32 41.8408C1007.46 42.0906 1006.6 42.3653 1005.74 42.5901C1004.01 43.0272 1002.26 43.1896 1000.49 43.252C999.566 43.2895 998.642 43.5018 997.718 43.6142C997.431 43.6516 997.144 43.5892 996.856 43.6142C995.558 43.7515 994.271 43.9139 992.972 44.0638C992.073 44.1637 991.162 44.2886 990.25 44.3385C988.577 44.4134 986.891 44.3885 985.217 44.5133C984.443 44.5758 983.693 44.9504 982.919 45.0503C981.87 45.2002 980.809 45.1128 979.909 44.4509C979.472 44.1387 979.173 42.7899 979.36 42.2779C979.472 41.9782 979.572 41.666 979.697 41.3038C979.472 41.2788 979.31 41.2039 979.198 41.2413C978.273 41.566 977.349 41.9282 976.425 42.2654C976.238 42.3403 976.038 42.4028 975.851 42.4652C975.626 42.5277 975.364 42.5027 975.189 42.6276C973.64 43.7515 971.704 44.1012 970.181 45.2876C969.581 45.7497 969.007 45.5124 968.632 44.8256C968.358 44.3385 968.557 43.6766 969.132 43.4143C970.293 42.8649 971.305 42.1155 972.204 41.2164C972.379 41.0415 972.604 40.9166 972.816 40.7793C974.24 39.9051 975.189 38.6188 976.038 37.0452C975.676 37.0827 975.426 37.0577 975.226 37.1326C973.565 37.7321 971.892 38.2941 970.281 38.9684C968.832 39.5804 967.496 40.4421 966.035 41.0041C964.336 41.6535 963.525 42.9648 962.813 44.4884C962.413 45.3501 961.801 46.0994 961.339 46.9361C960.839 47.8228 960.44 48.747 959.928 49.6212C959.641 50.1207 959.228 50.5328 958.866 50.9824C958.791 51.0823 958.666 51.1697 958.654 51.2821C958.517 52.3062 957.68 52.8807 957.143 53.6425C956.918 53.9547 956.781 54.3293 956.606 54.679C956.543 54.8039 956.468 54.9413 956.356 55.0162C955.357 55.778 954.92 56.902 954.37 57.9635C953.808 59.0375 953.147 60.0491 952.497 61.0731C951.935 61.9598 951.323 62.8215 950.736 63.7082C950.711 63.7457 950.686 63.7707 950.661 63.8081C948.925 66.0436 947.227 68.3165 945.454 70.527C944.467 71.7633 943.318 72.8873 942.319 74.1112C941.282 75.3725 940.333 76.7088 939.347 78.0076C939.272 78.1075 939.184 78.1949 939.097 78.2948C937.898 79.5936 936.674 80.8924 935.488 82.2037C935.163 82.5534 934.826 82.9156 934.614 83.3277C933.939 84.614 932.765 85.3134 931.579 85.9753C931.042 86.275 930.467 86.5123 929.88 86.6621C929.656 86.7246 929.281 86.5373 929.081 86.3499C928.057 85.4008 927.458 84.2643 927.42 82.8157C927.408 81.9165 927.095 81.0173 927.07 80.1057C927.033 78.7819 927.058 77.4331 927.195 76.1093C927.358 74.4608 927.533 72.7874 927.957 71.2013C928.482 69.2531 929.256 67.3674 929.955 65.4566C930.805 63.1462 932.153 61.1231 933.639 59.1624C935.538 56.6522 937.873 54.6665 940.396 52.8682C942.094 51.6443 943.793 50.4079 945.566 49.2964C947.165 48.2974 948.85 47.4606 950.499 46.5365C950.611 46.474 950.711 46.3866 950.986 46.1993C949.8 46.1493 948.788 46.1244 947.789 46.0744C945.603 45.9745 943.43 45.8996 941.245 45.7622C938.685 45.5998 936.112 45.3376 933.552 45.2127C929.98 45.0379 926.409 44.9255 922.837 44.8505C919.428 44.7881 916.018 44.7756 912.609 44.7881C910.223 44.8006 907.838 44.913 905.453 44.9629C904.129 44.9879 902.805 44.9504 901.481 44.9629C899.858 44.9879 898.234 45.0503 896.611 45.0753C895.037 45.0878 893.451 45.0628 891.878 45.0628C886.807 45.1003 881.725 45.1503 876.654 45.1752C872.733 45.1877 868.799 45.1378 864.878 45.1752C861.481 45.2127 858.084 45.3251 854.674 45.4375C854.312 45.45 853.913 45.6498 853.625 45.8746C852.864 46.4865 852.139 47.1484 851.415 47.7978C849.979 49.0717 848.23 49.8085 846.494 50.5328C846.132 50.6827 845.533 50.333 845.096 50.1082C844.996 50.0583 845.021 49.5462 845.121 49.3089C845.645 48.1225 846.22 46.9611 846.782 45.7872C846.819 45.7122 846.807 45.6248 846.832 45.4625ZM840.962 44.5383C840.962 44.4634 840.962 44.4009 840.962 44.326C843.123 44.326 845.283 44.3385 847.444 44.3135C847.681 44.3135 847.968 44.2011 848.155 44.0388C849.929 42.5526 851.652 41.0041 853.451 39.5554C855.286 38.0942 857.197 36.733 859.07 35.3218C859.345 35.1095 859.645 34.8722 859.82 34.585C860.994 32.6243 862.13 30.6636 863.279 28.6904C864.116 27.2417 863.404 26.405 862.03 25.9679C860.719 25.5557 859.308 25.3684 857.934 25.231C856.548 25.0937 855.137 25.1436 853.738 25.0937C853.151 25.0687 852.564 24.9688 851.977 24.9813C851.015 25.0062 850.054 25.1311 849.092 25.1561C847.693 25.1936 846.295 25.1436 844.896 25.2061C843.597 25.2685 842.311 25.5433 841.024 25.5557C837.852 25.5557 834.743 25.9804 831.608 26.4424C829.198 26.8046 826.763 26.9545 824.352 27.4415C821.605 27.991 818.82 28.3157 816.06 28.7903C815.061 28.9526 814.087 29.2524 813.1 29.4522C811.701 29.7394 810.29 29.9767 808.891 30.2764C807.768 30.5137 806.656 30.8259 805.532 31.0757C804.321 31.3504 803.097 31.5627 801.885 31.8375C800.724 32.0997 799.563 32.4244 798.401 32.7117C795.604 33.3985 792.806 34.0729 790.009 34.7848C787.923 35.3093 785.85 35.8963 783.765 36.4582C783.165 36.6206 782.553 36.733 781.954 36.9078C780.855 37.2076 779.768 37.5572 778.669 37.8445C777.146 38.2316 775.61 38.5688 774.086 38.9559C773.149 39.1932 772.213 39.4555 771.276 39.6928C770.339 39.9425 769.39 40.1673 768.454 40.4171C767.292 40.7168 766.118 40.9916 764.969 41.3413C763.92 41.6535 762.896 42.0406 761.872 42.4278C761.71 42.4902 761.61 42.74 761.485 42.9023C761.647 43.0147 761.797 43.1771 761.972 43.2145C763.783 43.5392 765.594 43.9139 767.417 44.1387C770.065 44.4634 772.737 44.5758 775.397 44.7881C778.007 45.0004 780.63 45.0379 783.253 45.0628C792.594 45.1128 801.935 45.1503 811.277 45.1503C815.535 45.1503 819.794 45.0379 824.053 44.938C827.424 44.8505 830.784 44.6757 834.156 44.6008C836.429 44.5009 838.689 44.5383 840.962 44.5383ZM877.853 32.6867C877.816 32.6492 877.766 32.6118 877.728 32.5743C877.653 32.5993 877.578 32.6243 877.503 32.6617C875.568 33.6733 873.545 34.4351 871.434 35.0345C870.735 35.2344 869.861 35.4592 869.461 35.9712C868.662 36.9703 867.6 37.4573 866.551 37.9943C865.402 38.5688 864.153 38.931 863.067 39.5929C862.243 40.0799 861.518 39.8676 860.769 39.7053C860.02 39.5429 859.645 38.8685 859.657 38.1192C859.657 37.9569 859.632 37.782 859.607 37.4948C858.084 39.8177 856.648 42.0031 855.137 44.326C856.011 44.2761 856.76 44.1886 857.509 44.1886C861.056 44.1762 864.59 44.1762 868.137 44.1762C870.26 44.1762 872.383 44.2011 874.506 44.1762C881.987 44.1012 889.467 44.0013 896.948 43.9139C898.272 43.9014 899.596 43.9264 900.919 43.9139C906.976 43.8639 913.021 43.789 919.078 43.7391C921.401 43.7141 923.724 43.6017 926.034 43.7141C929.718 43.8889 933.402 44.2011 937.074 44.4509C938.86 44.5758 940.646 44.7132 942.431 44.8131C944.355 44.9255 946.29 44.9754 948.214 45.0753C949.063 45.1128 949.9 45.2627 950.736 45.2627C951.635 45.2627 952.597 45.3126 953.434 45.0503C954.77 44.6132 956.019 43.9514 957.293 43.3519C958.417 42.8274 959.491 42.203 960.627 41.7034C961.751 41.2164 962.663 40.5919 963.212 39.443C963.699 38.4314 964.349 37.4823 964.998 36.3708C964.336 36.5831 963.799 36.8579 963.25 36.9328C961.676 37.1451 960.09 37.3449 958.504 37.4199C957.355 37.4698 956.319 37.0702 955.469 36.221C955.32 36.0711 954.932 36.0461 954.695 36.121C953.596 36.4957 952.51 36.9578 951.323 36.8454C950.686 36.7829 950.037 36.5956 949.462 36.3209C949.075 36.121 948.801 36.0461 948.376 36.1835C946.752 36.7205 945.154 37.4199 943.381 36.5956C942.706 36.2834 942.369 36.0211 942.344 35.2593C942.331 34.8472 942.294 34.4226 942.257 33.8731C941.932 34.1104 941.757 34.2353 941.582 34.3727C940.296 35.3093 939.035 36.3209 937.486 36.7954C935.45 37.4199 933.415 38.0568 931.354 38.5688C930.068 38.8935 928.744 39.0559 927.433 39.2057C926.121 39.3556 924.785 39.3806 923.474 39.5054C921.938 39.6428 920.439 39.4055 918.94 39.1058C917.379 38.7936 916.293 37.9818 916.043 36.2959C915.981 35.8588 915.631 35.8838 915.319 35.9962C914.507 36.2834 913.708 36.6331 912.884 36.8828C912.122 37.1201 911.335 37.3449 910.536 37.4199C909.137 37.5572 908.612 37.1576 908.25 35.8088C908.125 35.3343 907.888 35.1844 907.451 35.3468C905.528 36.0461 903.63 36.7705 901.706 37.4573C900.695 37.8195 899.683 38.2191 898.634 38.4064C897.31 38.6437 896.111 38.0693 896.673 36.4707C896.686 36.4457 896.648 36.3958 896.573 36.196C896.174 36.4707 895.799 36.7205 895.425 36.9703C893.963 37.8944 892.49 38.8186 891.016 39.7552C890.229 40.2548 889.405 39.9425 889.305 39.0434C889.268 38.7686 889.517 38.4689 889.642 38.1817C889.755 37.9194 889.88 37.6571 890.005 37.3949C889.942 37.3574 889.892 37.3324 889.83 37.295C889.118 37.6197 888.418 37.9818 887.694 38.2691C886.945 38.5688 886.171 38.8061 885.409 39.0808C884.122 39.5429 882.849 40.03 881.425 39.6553C880.576 39.4305 880.101 38.7686 880.189 37.9069C880.276 36.9952 880.701 36.2584 881.238 35.5591C881.387 35.3717 881.475 35.1345 881.587 34.9097C881.525 34.8597 881.475 34.8097 881.412 34.7598C880.963 35.072 880.526 35.3842 880.076 35.6839C879.115 36.3209 878.128 36.9078 877.204 37.5947C876.405 38.1817 875.693 38.8935 874.931 39.5304C874.394 39.98 873.819 39.9925 873.357 39.5804C872.97 39.2307 872.958 38.7811 873.345 38.1941C873.57 37.8445 873.832 37.5198 874.094 37.2076C875.156 35.9587 876.23 34.7223 877.291 33.4735C877.503 33.2112 877.666 32.9365 877.853 32.6867ZM959.84 46.2118C959.503 46.1369 959.303 46.0494 959.116 46.0619C958.304 46.0994 957.493 46.1618 956.693 46.2118C955.544 46.2742 954.458 46.499 953.696 47.4981C953.621 47.5855 953.484 47.623 953.371 47.6854C952.285 48.1975 951.211 48.7345 950.124 49.234C949.15 49.6836 948.376 50.4953 947.252 50.6827C946.765 50.7701 946.303 51.1198 945.866 51.4195C945.116 51.9315 944.442 52.5809 943.655 53.0305C941.32 54.3793 939.234 56.0153 937.473 58.0634C937.074 58.5255 936.587 58.9126 936.137 59.3372C936.037 59.4371 935.875 59.5246 935.837 59.6494C935.513 60.686 934.676 61.273 933.889 61.9224C933.714 62.0597 933.527 62.2221 933.452 62.4219C933.127 63.1712 932.391 63.6957 932.328 64.5699C932.328 64.6449 932.253 64.7198 932.191 64.7697C931.179 65.594 931.004 66.9053 930.605 67.9918C929.843 70.0524 929.431 72.2504 929.006 74.4109C928.781 75.5598 928.719 76.7712 928.769 77.9327C928.794 78.707 929.368 79.4687 928.769 80.2555C928.744 80.293 928.769 80.3804 928.769 80.4429C928.919 81.4544 929.031 82.466 929.219 83.4651C929.381 84.3767 930.143 84.7389 930.929 84.2893C932.053 83.6399 933.052 82.8656 933.852 81.8166C934.776 80.5927 935.775 79.4313 936.774 78.2699C937.498 77.4206 938.285 76.6089 939.01 75.7597C940.208 74.336 941.395 72.8998 942.569 71.4636C944.717 68.866 946.952 66.3308 948.975 63.6333C950.574 61.5102 951.973 59.2248 953.221 56.8645C954.058 55.2785 955.132 53.8298 956.081 52.3062C957.33 50.283 958.554 48.2974 959.84 46.2118ZM955.757 29.2399C955.832 29.2524 955.906 29.2648 955.981 29.2773C956.106 28.9401 956.356 28.578 956.306 28.2658C956.269 28.016 955.869 27.6538 955.619 27.6413C954.982 27.6288 954.283 27.6413 953.696 27.8911C952.722 28.2907 951.823 28.8527 950.911 29.3897C948.875 30.5886 946.84 31.775 945.241 33.5734C945.054 33.7857 944.842 33.998 944.654 34.2228C944.542 34.3602 944.467 34.535 944.367 34.6974C944.542 34.7848 944.729 34.9721 944.892 34.9596C945.703 34.8597 946.54 34.7723 947.327 34.56C947.864 34.4101 948.451 34.1603 948.85 33.7732C949.812 32.8615 950.686 31.8625 951.598 30.8883C951.735 30.7385 951.873 30.5761 952.023 30.4263C952.734 29.7269 953.421 29.0151 954.171 28.3657C954.595 28.0035 955.157 28.1658 955.432 28.6404C955.544 28.8402 955.657 29.04 955.757 29.2399ZM864.44 34.56C864.728 34.5974 864.89 34.6474 865.04 34.6349C865.677 34.5475 866.314 34.4726 866.926 34.3352C867.45 34.2228 867.962 34.0604 868.449 33.8481C868.961 33.6109 869.136 33.1613 868.961 32.5993C868.886 32.387 868.824 32.1622 868.737 31.9499C868.399 31.0632 868.025 30.9008 867.163 31.313C866.826 31.4753 866.526 31.7625 866.264 32.0498C865.889 32.4619 865.577 32.9365 865.252 33.3861C864.99 33.7357 864.74 34.1104 864.44 34.56ZM856.885 39.3181C856.835 39.2682 856.785 39.2307 856.735 39.1807C854.45 40.4546 852.639 42.3154 850.516 44.1137C850.853 44.2386 851.028 44.351 851.203 44.351C851.59 44.351 852.002 44.2386 852.377 44.2885C852.964 44.3635 853.338 44.1012 853.663 43.7016C854.325 42.8773 854.987 42.0406 855.611 41.1914C856.048 40.5795 856.46 39.9425 856.885 39.3181ZM985.379 42.128C985.941 41.9032 986.616 41.7159 987.203 41.3912C988.302 40.7793 989.351 40.0924 990.412 39.4055C990.487 39.3556 990.487 38.9934 990.45 38.9809C990.125 38.856 989.738 38.6312 989.451 38.7187C988.364 39.0559 987.265 39.4055 986.279 39.93C985.692 40.2423 985.255 40.8667 984.83 41.4162C984.555 41.7659 984.83 42.1405 985.379 42.128ZM851.69 45.7497C851.665 45.6498 851.64 45.5624 851.602 45.4625C850.828 45.4625 850.054 45.4625 849.279 45.475C849.204 45.475 849.105 45.5749 849.042 45.6623C848.593 46.2992 848.13 46.9361 847.706 47.598C847.581 47.7853 847.543 48.0226 847.469 48.2349C847.531 48.2974 847.593 48.3473 847.656 48.4098C849.017 47.5231 850.353 46.6364 851.69 45.7497ZM865.352 36.6581C864.64 36.6581 863.916 36.6581 863.204 36.6581C862.517 36.6581 862.03 37.1076 861.918 37.9194C863.192 37.7945 864.303 37.3199 865.352 36.6581ZM982.819 40.8917C981.908 41.4037 981.471 42.1155 981.583 42.7774C981.858 42.7774 982.157 42.8149 982.432 42.7649C982.57 42.74 982.782 42.5651 982.794 42.4527C982.844 41.9657 982.819 41.4786 982.819 40.8917ZM958.567 45.1627C959.99 45.5249 960.69 45.1128 960.777 44.0388C960.015 44.4259 959.291 44.8006 958.567 45.1627Z" fill="#252525"/>
<line x1="751.01" y1="52.9292" x2="1234.83" y2="52.9292" stroke="#252525"/>
</svg>
