<svg width="1440" height="228" viewBox="0 0 1440 228" fill="none" xmlns="http://www.w3.org/2000/svg">
<mask id="mask0" mask-type="alpha" maskUnits="userSpaceOnUse" x="-40" y="0" width="1521" height="228">
<path d="M888.963 13.5408C895.37 13.27 901.085 14.4435 905.76 16.5196C912.86 19.679 919.96 20.7622 928.445 18.0542C929.311 17.7834 930.87 17.4223 931.562 17.6028C935.026 18.4152 938.316 19.0471 941.433 17.1515C941.953 16.8807 944.55 17.1515 945.416 17.6028C953.209 21.6648 963.079 20.2206 972.084 20.3108C977.106 20.4011 981.955 18.686 987.15 19.4984C987.496 19.4984 987.843 19.5887 988.016 19.4984C993.904 17.5126 1000.31 15.8877 1005.33 13.5408C1007.24 12.6381 1009.84 12.7284 1009.84 12.7284C1011.22 15.1656 1014.16 13.8116 1016.76 13.6311C1021.61 13.3603 1027.15 12.7284 1031.14 13.6311C1037.37 15.0753 1042.91 13.5408 1048.63 13.8116C1050.01 13.9019 1052.26 13.3603 1052.61 13.7213C1057.8 17.332 1066.63 15.5267 1073.22 17.5126C1076.33 18.4152 1081.7 17.8736 1085.68 17.4223C1090.19 16.9709 1093.82 16.9709 1098.15 18.1444C1101.96 19.1374 1106.46 19.3179 1110.45 20.04C1115.3 20.8524 1119.97 22.0259 1124.99 22.6578C1128.63 23.1091 1132.96 23.6507 1136.25 23.0189C1141.62 22.0259 1146.47 22.387 1151.83 22.5675C1157.2 22.7481 1162.74 22.5675 1168.29 22.4773C1171.23 22.4773 1174 22.387 1176.94 22.387C1178.85 22.387 1181.62 22.2065 1182.66 22.8383C1186.64 25.0047 1190.62 23.9215 1194.43 23.0189C1198.42 22.1162 1201.88 20.9427 1206.73 22.1162C1208.11 22.4773 1211.92 21.394 1212.96 20.4011C1215.56 17.8736 1219.02 17.8736 1223.01 19.0471C1225.6 19.8595 1227.16 19.4082 1228.72 18.325C1230.63 16.8807 1233.4 16.7904 1236.34 17.332C1241.02 18.2347 1245.69 18.5055 1250.71 17.332C1252.27 16.9709 1255.39 17.2418 1256.26 17.7834C1262.14 21.394 1269.42 20.3108 1276.17 19.4082C1282.23 18.5958 1287.43 17.6931 1294.18 18.7763C1301.63 19.9498 1310.11 19.4082 1318.08 19.5887C1319.81 19.679 1321.54 19.5887 1323.1 19.9498C1334.7 22.1162 1346.3 24.2826 1357.73 26.6296C1361.37 27.3517 1365.01 27.7128 1368.64 27.0809C1376.09 25.7269 1383.71 26.9906 1391.15 26.449C1391.33 26.449 1391.85 26.6296 1392.02 26.5393C1403.97 23.0189 1415.92 27.1712 1428.04 26.449C1429.77 26.3587 1431.5 26.7198 1433.06 26.449C1441.37 25.1853 1449.86 24.3729 1459.21 23.741C1460.94 25.3658 1461.63 27.5322 1462.15 29.6986C1462.5 31.7748 1463.37 33.7607 1463.89 35.8368C1464.06 36.2882 1464.23 36.7395 1464.06 37.1908C1460.77 44.4122 1462.5 51.7239 1463.19 59.0355C1464.41 72.034 1464.93 85.0325 1465.96 98.031C1466.31 101.912 1467.35 105.794 1467.87 109.585C1468.91 117.258 1469.77 124.84 1470.81 132.513C1471.16 134.95 1469.95 137.658 1473.93 139.734C1474.62 140.096 1474.62 140.998 1474.1 141.45C1470.64 144.88 1472.72 148.581 1472.89 152.101C1472.89 158.33 1473.58 164.558 1474.28 170.786C1474.97 176.744 1475.83 182.702 1476.87 188.659C1477.05 189.652 1477.91 190.645 1478.26 191.728C1478.95 194.256 1479.64 196.783 1479.99 199.311C1480.16 201.116 1477.91 202.019 1474.45 201.748C1472.72 201.658 1470.64 201.477 1469.6 200.936C1467.35 199.672 1465.62 199.401 1462.5 200.394C1459.04 201.387 1455.23 200.394 1452.11 199.13C1443.8 195.79 1434.97 196.242 1425.27 197.235C1418 198.047 1410.38 198.769 1402.58 198.047C1398.6 197.686 1394.1 198.318 1389.94 198.499C1387.69 198.589 1385.09 199.401 1383.36 199.04C1374.88 197.325 1366.91 199.311 1358.95 199.853C1354.27 200.123 1349.94 200.304 1345.44 199.943C1340.59 199.491 1335.91 199.311 1331.24 200.665C1329.68 201.116 1327.26 201.297 1325.35 201.116C1311.5 200.123 1297.99 201.387 1284.31 202.651C1278.42 203.192 1272.36 203.102 1266.47 203.373C1264.57 203.463 1262.49 203.644 1260.76 204.095C1247.6 207.435 1233.74 209.06 1219.02 208.428C1215.91 208.338 1212.79 208.699 1209.67 208.879C1208.29 208.97 1206.73 209.421 1205.52 209.331C1194.78 208.699 1185.43 211.046 1175.73 212.761C1166.55 214.386 1157.2 215.83 1147.85 217.364C1146.81 217.545 1145.6 217.635 1144.56 217.906C1132.96 221.336 1120.66 221.065 1107.85 220.524C1098.67 220.163 1089.15 221.607 1079.97 222.6C1075.12 223.141 1070.62 224.044 1065.77 222.961C1064.21 222.6 1062.13 222.51 1060.75 222.871C1056.24 223.773 1052.09 223.773 1047.59 222.871C1045.33 222.419 1042.04 223.141 1039.45 223.593C1036.16 224.225 1033.21 225.037 1030.1 225.85C1026.11 226.842 1022.48 227.474 1017.8 226.572C1015.03 226.03 1011.39 226.211 1008.45 226.662C1004.99 227.294 1002.04 227.204 999.618 226.03C995.635 224.134 991.306 224.405 986.63 224.586C984.379 224.676 981.955 224.947 980.05 224.495C971.565 222.51 963.426 222.78 954.594 224.225C948.533 225.218 941.953 225.94 935.372 224.676C934.68 224.495 933.641 224.495 932.775 224.676C924.982 225.579 917.882 223.412 910.263 223.141C905.933 223.051 901.604 222.51 897.448 222.78C889.309 223.412 880.651 222.78 873.378 225.308C865.412 224.766 857.965 227.113 849.48 225.579C844.285 224.586 838.051 225.308 832.336 225.398C826.795 225.488 821.6 225.037 816.924 223.412C817.097 223.412 817.444 223.412 817.617 223.322C817.79 223.322 817.79 223.141 817.79 223.051C817.444 223.232 817.271 223.322 816.924 223.503C813.807 222.871 810.863 221.878 807.746 221.787C804.456 221.607 801.166 222.329 797.876 222.6C797.183 222.329 796.663 222.058 795.971 221.968C795.451 221.878 794.758 222.149 794.239 222.329C794.758 222.419 795.278 222.51 795.798 222.6C796.663 222.6 797.356 222.6 798.222 222.6C798.222 223.773 797.01 224.225 794.932 223.683C793.546 223.322 791.468 222.419 791.641 222.149C793.2 219.711 790.776 219.35 787.139 219.079C784.368 218.899 781.598 218.448 778.827 218.087C772.593 217.184 766.359 216.281 760.125 215.469C759.086 215.379 757.7 215.559 756.834 215.83C753.717 216.823 750.947 216.462 747.83 215.92C746.098 215.559 743.673 215.379 741.942 215.649C735.534 216.733 729.127 217.906 723.066 219.441C718.218 220.704 713.715 221.697 708.347 220.253C707.827 220.072 707.308 219.982 706.615 220.072C697.091 220.343 688.259 218.628 679.601 217.184C674.059 216.281 668.864 217.364 663.669 217.184C660.032 217.003 656.396 216.913 652.759 216.552C646.352 216.01 639.772 215.379 633.364 214.747C631.459 214.566 629.208 214.656 627.477 214.205C620.03 212.67 612.757 213.032 604.965 214.115C601.155 214.656 596.652 213.844 592.496 213.754C589.899 213.663 587.301 213.573 584.877 213.934C579.162 214.747 573.621 215.92 567.906 216.823C566.694 217.003 565.135 216.913 563.923 217.003C560.287 217.184 556.65 217.455 553.014 217.635C551.109 217.725 548.684 218.177 547.299 217.725C537.082 214.295 524.441 215.469 513.877 213.032C513.358 212.941 512.492 212.941 512.319 213.032C508.682 215.108 504.18 213.934 500.197 213.663C491.885 213.032 484.265 214.024 476.646 215.559C476.126 215.649 475.26 216.01 475.087 215.92C470.239 213.663 464.87 216.281 459.675 215.378C457.424 214.927 454.653 215.469 452.056 215.469C444.783 215.379 436.99 216.642 430.929 213.212C430.583 213.032 429.89 212.941 429.371 212.941C420.712 213.032 411.88 213.393 403.222 213.212C395.429 213.032 387.983 213.934 380.363 214.115C373.264 214.295 366.51 215.288 359.237 214.566C355.254 214.205 350.751 214.837 346.595 215.378C337.937 216.371 329.105 215.469 320.62 216.371C314.559 217.003 308.844 214.747 302.957 216.281C297.415 214.115 290.835 214.837 284.774 214.386C277.501 213.844 270.228 213.212 262.781 212.761C261.396 212.67 260.011 213.032 258.625 213.122C256.374 213.302 253.95 213.663 251.872 213.573C247.023 213.302 242.001 211.948 237.672 212.49C232.996 213.032 228.321 213.663 223.472 213.934C217.064 214.295 210.657 215.198 204.423 215.83C202.518 216.01 200.267 216.462 198.709 216.101C195.418 215.288 192.128 215.469 188.838 215.288C184.509 215.108 180.006 215.378 175.677 214.024C171.001 212.49 165.287 213.302 159.919 213.483C157.148 213.573 154.377 213.393 151.606 213.302C150.567 213.212 149.009 212.67 148.316 212.941C141.909 215.288 136.021 213.032 130.48 212.039C125.285 211.136 120.955 211.407 116.28 212.4C112.816 213.212 109.699 214.295 105.716 213.212C105.024 213.032 103.638 213.483 102.599 213.663C101.56 213.844 100.348 214.205 99.3091 214.205C90.8238 214.295 83.7239 216.642 75.7581 217.906C72.8142 218.357 69.1776 218.628 66.4069 218.177C54.9777 216.371 43.2022 217.003 31.4266 216.733C30.0413 216.733 28.3096 216.642 27.2706 217.003C22.4218 218.718 16.7072 218.267 11.6853 218.177C7.70238 218.087 6.31703 220.163 3.54632 219.802C1.12194 219.531 0.948772 217.274 -2.51462 217.184C-3.38047 217.184 -4.24632 216.823 -4.939 216.913C-8.9219 217.725 -10.1341 216.281 -10.6536 214.837C-11.8658 211.587 -13.078 208.338 -13.5975 205.088C-15.156 194.617 -16.3682 184.146 -17.7536 173.585C-19.4853 160.406 -21.3901 147.227 -22.9486 134.048C-24.334 123.216 -25.1998 112.474 -26.5852 101.642C-29.7023 84.852 -31.9535 67.972 -34.2047 51.0017C-34.7242 47.3008 -35.7632 43.5095 -36.8022 38.7254C-37.3217 41.2529 -37.4949 42.7874 -37.8412 44.3219C-38.1876 44.3219 -38.5339 44.3219 -39.0534 44.3219C-39.2266 41.0723 -40.0924 37.7324 -39.0534 34.5731C-38.1876 32.1359 -38.3607 29.8792 -38.8803 27.5322C-39.0534 26.1782 -38.8803 24.8242 -38.8803 23.4702C-38.8803 22.2065 -37.3217 21.3038 -35.0705 21.6648C-32.1266 22.1162 -27.6242 19.4082 -25.8925 22.7481C-25.8925 22.8383 -23.4682 22.8383 -22.6023 22.4773C-18.6194 21.033 -14.4633 20.4914 -9.61458 21.3038C-7.88288 21.5746 -5.63168 21.394 -3.72681 21.2135C-2.68779 21.1232 -1.30244 20.4914 -0.609756 20.6719C5.45118 22.387 9.60725 20.04 13.7633 18.5958C19.8243 16.6099 26.5779 17.332 32.9852 16.4293C40.6046 15.3461 48.3973 15.4364 56.3631 16.1585C65.0215 16.9709 72.8142 15.0753 80.4336 13.3603C85.8019 12.0965 85.6287 11.916 90.3043 11.8257C94.4604 11.7354 98.6165 11.3744 102.773 12.8187C108.66 14.9851 115.414 14.1727 121.994 13.5408C129.441 12.9089 137.06 12.4576 144.506 12.0062C146.238 11.916 148.143 13.4505 149.875 11.8257C151.087 10.6522 151.26 10.7425 154.204 10.3814C156.109 10.1106 157.148 10.2912 159.053 10.923C164.421 12.7284 170.309 14.624 177.235 12.5479C179.14 12.0062 181.738 11.8257 183.989 11.8257C186.24 11.7354 187.279 11.3744 188.145 10.2009C189.531 8.48582 191.089 8.66636 194.206 10.2009C198.016 12.0965 202.691 12.0965 206.848 11.0133C210.484 10.1106 213.601 9.83983 217.584 10.2912C220.701 10.6522 224.164 10.1106 227.628 10.2009C231.264 10.2912 235.247 9.83983 238.191 12.0062C239.403 12.9089 243.733 13.27 246.157 12.9992C252.564 12.277 258.452 12.8187 264.686 13.3603C269.362 13.8116 274.384 13.4505 279.406 13.4505C284.254 13.4505 289.103 12.6381 293.779 13.9019C300.013 12.4576 305.035 14.7143 310.576 15.4364C311.615 15.6169 312.827 15.7975 313.866 15.7975C320.793 15.4364 326.854 16.4293 333.261 17.8736C338.976 19.1374 345.037 17.6931 349.886 15.978C353.003 14.8948 355.427 13.9921 359.237 14.8948C360.622 15.2559 362.527 14.8948 364.259 14.8948C367.376 14.8045 370.666 14.4435 373.61 14.8045C378.805 15.5267 383.654 16.0683 388.329 13.9019C389.022 13.5408 391.793 13.8116 392.832 14.2629C395.776 15.5267 397.854 14.8948 400.624 14.1727C407.724 12.1868 414.651 10.2009 423.31 11.5549C424.868 11.8257 426.946 11.916 428.331 11.6452C432.661 10.6522 436.47 10.562 440.28 12.3673C442.185 13.27 443.744 12.6381 443.57 11.1938C450.151 12.0965 454.307 8.84689 460.022 8.48582C465.909 8.12475 471.97 8.12475 478.031 7.94422C479.243 7.94422 480.282 8.12475 481.495 8.12475C486.69 8.12475 488.075 7.49288 489.46 4.69459C489.807 4.06272 490.499 3.43085 491.019 2.79898L490.846 2.70871C490.846 2.88925 490.673 3.06978 490.846 3.16005C493.27 4.60433 496.907 3.06978 499.851 4.15299C503.314 5.32647 505.565 3.88219 507.124 2.25738C507.643 1.80604 508.855 1.3547 509.894 1.26444C511.626 0.993635 512.838 1.0839 511.107 2.16711C511.107 2.16711 511.799 2.52818 511.799 2.79898C512.492 4.60433 517.514 1.62551 518.033 4.33352C518.207 4.9654 522.189 5.59727 524.614 6.0486C526.172 6.31941 528.424 6.49994 529.463 6.0486C533.445 4.33352 536.909 5.507 540.545 6.31941C545.914 7.49288 551.109 8.75662 556.997 7.22208C557.516 7.13181 558.209 7.22208 558.728 7.13181C563.75 6.40967 566.521 10.1106 572.409 8.75662C577.431 7.67342 581.587 9.29823 585.57 11.0133C586.955 11.6452 589.206 11.8257 591.111 11.8257C596.479 11.7354 602.021 11.2841 607.389 11.3744C611.372 11.3744 615.182 12.277 619.164 12.277C621.762 12.3673 625.918 13.9019 626.957 11.0133C629.728 11.1036 632.672 11.0133 635.269 11.3744C638.386 11.916 641.157 12.0965 644.274 11.6452C647.218 11.1938 650.508 11.1938 653.625 11.1938C664.708 11.4646 674.579 8.39555 685.315 7.58315C686.701 7.49288 688.259 7.04154 689.471 7.22208C699.688 9.29823 709.039 6.40967 718.91 5.86807C721.508 5.68753 723.759 5.32647 726.183 6.13887C728.435 6.86101 730.686 6.68047 733.456 6.59021C737.266 6.49994 741.769 6.59021 745.405 8.12475C748.349 9.38849 751.466 10.0204 755.795 9.02742C758.22 8.48582 762.029 8.93716 764.8 9.47876C769.303 10.3814 773.459 11.1036 777.961 9.6593C780.212 8.93716 782.117 9.20796 784.195 10.1106C789.91 12.6381 796.837 13.1797 804.11 13.7213C813.98 14.4435 823.678 13.7213 833.375 13.3603C839.609 13.0895 845.324 12.9089 850.692 14.8045C851.558 15.1656 852.943 15.1656 853.982 15.2559C857.792 15.6169 861.256 13.9019 865.758 15.1656C868.875 15.978 873.378 15.3461 877.187 15.2559C878.053 15.2559 879.092 14.8948 879.612 14.4435C883.075 11.7354 883.421 11.6452 889.482 13.3603C888.616 13.4505 887.751 13.4505 887.058 13.5408C887.231 13.7213 887.404 13.8116 887.577 13.9921C887.751 14.0824 888.27 13.8116 888.963 13.5408ZM-16.195 22.2967C-16.195 22.387 -16.3682 22.5675 -16.3682 22.6578C-16.0219 22.6578 -15.6755 22.6578 -15.5023 22.7481C-15.5023 22.6578 -15.5023 22.4773 -15.6755 22.387C-15.6755 22.2065 -15.8487 22.2967 -16.195 22.2967ZM1463.02 102.544C1462.85 102.454 1462.67 102.183 1462.5 102.274C1461.98 102.364 1461.63 102.454 1461.12 102.544C1461.29 102.635 1461.46 102.905 1461.63 102.815C1462.15 102.725 1462.5 102.635 1463.02 102.544Z" fill="#425F35"/>
<path d="M490.846 2.88926C491.019 2.70873 491.365 2.52819 491.538 2.34766C491.538 2.43792 491.538 2.52819 491.365 2.61846C491.192 2.70873 490.846 2.70873 490.672 2.79899L490.846 2.88926Z" fill="#425F35"/>
<path d="M797.356 222.961C796.49 222.961 795.797 223.051 794.932 222.961C794.412 222.961 793.893 222.78 793.373 222.69C794.066 222.6 794.585 222.329 795.105 222.329C795.797 222.419 796.317 222.78 797.01 222.961H797.356Z" fill="white"/>
<path d="M888.963 13.5408C888.443 13.8116 887.75 13.9921 887.231 14.2629C887.058 14.0824 886.885 13.9921 886.711 13.8116C887.577 13.7213 888.443 13.7213 889.136 13.631C889.136 13.7213 888.963 13.5408 888.963 13.5408Z" fill="white"/>
<path d="M816.231 223.954C816.578 223.773 816.751 223.683 817.097 223.503C817.097 223.593 816.924 223.773 816.924 223.773C816.578 223.864 816.405 223.864 816.231 223.954Z" fill="white"/>
<path d="M512.32 1.44507C507.644 1.80614 507.644 1.8964 509.722 5.05576" stroke="#425F35" stroke-width="2" stroke-miterlimit="10" stroke-linecap="round" stroke-linejoin="round"/>
<path d="M885.5 19.4986C884.635 17.964 883.249 16.5197 883.076 14.9852C882.73 13.2701 880.652 14.4436 879.439 14.0825" stroke="#425F35" stroke-width="2" stroke-miterlimit="10" stroke-linecap="round" stroke-linejoin="round"/>
<path d="M504.526 209.06C505.046 210.865 505.739 212.671 506.258 214.476" stroke="#425F35" stroke-width="2" stroke-miterlimit="10" stroke-linecap="round" stroke-linejoin="round"/>
<path d="M288.93 13.1797C288.584 14.985 288.411 16.7904 288.064 18.5957" stroke="#425F35" stroke-width="2" stroke-miterlimit="10" stroke-linecap="round" stroke-linejoin="round"/>
<path d="M688.086 213.573C687.74 215.379 687.567 217.184 687.22 218.989" stroke="#425F35" stroke-width="2" stroke-miterlimit="10" stroke-linecap="round" stroke-linejoin="round"/>
<path d="M340.881 17.6931C341.228 19.4985 341.401 21.3038 341.747 23.1092" stroke="#425F35" stroke-width="2" stroke-miterlimit="10" stroke-linecap="round" stroke-linejoin="round"/>
<path d="M816.232 218.087C815.712 219.892 815.02 221.697 814.5 223.503" stroke="#425F35" stroke-width="2" stroke-miterlimit="10" stroke-linecap="round" stroke-linejoin="round"/>
<path d="M925.328 219.892C924.809 221.697 924.116 223.503 923.597 225.308" stroke="#425F35" stroke-width="2" stroke-miterlimit="10" stroke-linecap="round" stroke-linejoin="round"/>
<path d="M1385.96 193.715C1386.31 195.52 1386.48 197.325 1386.83 199.131" stroke="#425F35" stroke-width="2" stroke-miterlimit="10" stroke-linecap="round" stroke-linejoin="round"/>
<path d="M729.646 212.67C730.166 214.476 730.859 216.281 731.378 218.086" stroke="#425F35" stroke-width="2" stroke-miterlimit="10" stroke-linecap="round" stroke-linejoin="round"/>
<path d="M792.853 221.246C790.949 222.239 789.044 223.141 793.719 223.503C794.585 223.593 795.451 224.044 796.317 224.405" stroke="#425F35" stroke-width="2" stroke-miterlimit="10" stroke-linecap="round" stroke-linejoin="round"/>
<path d="M491.538 2.34766C488.421 3.8822 489.633 5.23621 492.404 6.40969" stroke="#425F35" stroke-width="2" stroke-miterlimit="10" stroke-linecap="round" stroke-linejoin="round"/>
<path d="M107.968 15.4363C107.275 13.4504 105.024 14.0823 102.772 14.5336" stroke="#425F35" stroke-width="2" stroke-miterlimit="10" stroke-linecap="round" stroke-linejoin="round"/>
<path d="M818.828 223.954C817.962 223.954 817.097 223.954 816.231 223.954" stroke="#425F35" stroke-width="2" stroke-miterlimit="10" stroke-linecap="round" stroke-linejoin="round"/>
</mask>
<g mask="url(#mask0)">
<rect x="136.685" y="-10.4038" width="1166.72" height="266.666" fill="#425F35"/>
</g>
</svg>
