<svg width="24" height="41" viewBox="0 0 24 41" fill="none" xmlns="http://www.w3.org/2000/svg">
<path d="M11.817 40.9049L12.1555 40.7011C19.3429 36.3737 23.6339 28.8041 23.6339 20.4524C23.6339 12.1008 19.3429 4.53123 12.1555 0.203826L11.817 0L11.4784 0.203826C4.291 4.53123 1.90735e-06 12.1008 1.90735e-06 20.4525C1.90735e-06 28.8041 4.291 36.3737 11.4784 40.7011L11.817 40.9049ZM11.817 1.53695C15.0302 3.53731 17.6808 6.3238 19.5187 9.63339C21.3565 12.943 22.3209 16.6665 22.3209 20.4524C22.3209 24.2384 21.3565 27.9619 19.5187 31.2715C17.6808 34.5811 15.0302 37.3676 11.817 39.3679C8.60377 37.3676 5.95314 34.5811 4.11529 31.2715C2.27744 27.9619 1.313 24.2384 1.313 20.4524C1.313 16.6665 2.27744 12.943 4.11529 9.63339C5.95314 6.3238 8.60377 3.53731 11.817 1.53695Z" fill="#ECDCCC"/>
<path d="M11.1606 7.97455H12.4736V32.9304H11.1606V7.97455Z" fill="#ECDCCC"/>
</svg>
