<svg width="103" height="104" viewBox="0 0 103 104" fill="none" xmlns="http://www.w3.org/2000/svg">
<g clip-path="url(#clip0)">
<path d="M102.941 51.181C102.809 38.8468 98.2109 26.5695 89.9616 17.3853C85.2882 12.0911 79.4418 7.8405 72.99 4.97517C64.7596 1.31286 55.5453 -0.110312 46.577 0.838472C35.7167 1.88213 25.2159 6.53118 17.2504 14.0266C8.11181 22.4328 2.37893 34.3685 1.2437 46.7407C0.240918 56.4372 1.96268 66.4374 6.23869 75.2042C7.20363 77.2346 8.54698 79.0373 9.56869 81.0297C15.6421 90.2899 24.8942 97.4247 35.3951 100.878C48.9232 105.432 64.3433 104.18 76.8686 97.235C79.8581 95.5841 82.715 93.6675 85.1936 91.2956C88.2776 88.8857 90.8887 85.9065 93.197 82.7565C94.0105 81.4472 94.8052 80.1379 95.6945 78.8855C97.5676 76.0581 98.7217 72.8702 99.9137 69.7202C100.671 68.1452 101.011 66.4184 101.484 64.7676C102.506 60.3272 103.073 55.7541 102.941 51.181ZM75.3928 95.0527C70.0951 97.956 64.2487 99.8726 58.232 100.575C50.6071 101.467 42.7362 100.802 35.5086 98.1837C26.6917 95.0717 18.8208 89.3031 13.2582 81.7698C12.104 80.4035 11.3283 78.7906 10.439 77.2536C12.7852 73.3635 15.1313 69.4735 17.4585 65.5835C17.6477 65.204 18.064 65.0712 18.4045 64.8814C21.7534 66.0579 24.951 67.557 28.2621 68.8473C46.0473 76.2099 63.8703 83.4776 81.6366 90.8781C79.7824 92.5669 77.5687 93.8004 75.3928 95.0527ZM86.3478 86.7983C85.4963 87.7281 84.4179 88.4113 83.5286 89.3031C66.1597 82.1872 48.8475 75.0144 31.4975 67.8796C31.0055 67.7088 30.5136 67.2723 30.5893 66.6841C30.7785 66.0959 31.2136 65.6215 31.5731 65.1281C37.4952 56.8547 43.4173 48.5813 49.3394 40.3079C49.68 39.7386 50.5314 39.7386 50.9666 40.194C62.2242 50.9533 73.4062 61.7694 84.6449 72.5096C87.0667 74.9385 89.6399 77.1966 92.005 79.6445C90.4724 82.3011 88.4858 84.6161 86.3478 86.7983ZM95.9404 72.7753C95.1268 74.5211 94.37 76.3238 93.1591 77.8228C91.6833 76.3427 90.1886 74.8626 88.6371 73.4584C83.1124 68.0693 77.493 62.7751 71.9493 57.386C69.2626 54.9192 66.6894 52.2816 64.0027 49.7957C63.4919 49.2075 62.4134 48.6382 62.9054 47.7274C65.8759 42.8127 68.8275 37.879 71.798 32.9643C72.2142 32.1863 73.463 32.3002 73.7846 33.0971C81.4852 45.3744 89.2804 57.6137 96.9432 69.91C96.7729 70.9157 96.2242 71.8075 95.9404 72.7753ZM99.4785 61.6745C99.3272 63.1736 98.7217 64.5778 98.5325 66.0579L98.4758 66.0769C98.3244 66.1148 98.192 66.1528 98.0595 66.1907C89.6588 52.737 81.1447 39.3591 72.7061 25.9243C71.6655 27.4044 70.833 28.9984 69.8681 30.5164C67.7868 34.008 65.6867 37.4805 63.5865 40.972C62.6216 42.4901 61.808 44.103 60.7295 45.5262C59.3862 44.2169 58.0807 42.8506 56.6805 41.5982C55.5832 40.6305 54.5615 39.5868 53.5208 38.5432L51.818 36.9113L49.6421 34.8429C42.3199 45.0328 35.0545 55.2418 27.7323 65.4317C24.0617 63.9896 20.4858 62.3387 16.7774 61.0104C14.1096 65.5076 11.3283 69.9479 8.71727 74.4831C7.4496 71.7316 6.25761 68.9043 5.42511 65.982C2.15188 54.3309 3.07898 41.4464 8.31994 30.4975C12.2743 22.1861 18.6505 15.0323 26.5025 10.2314C30.1919 7.9923 34.1463 6.20859 38.2899 4.99415C39.5386 4.72849 40.7874 4.51975 42.0172 4.19717C44.212 3.66585 46.4635 3.64687 48.6961 3.41917C52.8208 3.17248 56.9454 3.45712 61.0322 4.02639C62.5648 4.36795 64.1163 4.69054 65.6677 4.99415C71.0979 6.60708 76.2632 9.13085 80.8419 12.4895C87.01 17.1006 92.0996 23.1729 95.4296 30.1369C100.16 39.8335 101.465 51.1051 99.4785 61.6745Z" fill="#ECDCCC"/>
</g>
<defs>
<clipPath id="clip0">
<rect x="0.958984" y="0.553986" width="102" height="103" fill="white"/>
</clipPath>
</defs>
</svg>
