<svg width="227" height="76" viewBox="0 0 227 76" fill="none" xmlns="http://www.w3.org/2000/svg">
<path d="M111.617 27.5452C111.617 25.7761 110.941 23.9076 109.53 22.5758C108.178 21.2837 106.27 20.6079 104.302 20.6079C102.334 20.6079 100.426 21.2837 99.074 22.5758C97.6627 23.9076 96.9868 25.7761 96.9868 27.5452C96.9868 29.2944 97.6627 31.143 99.074 32.4947C100.426 33.7868 102.334 34.4626 104.302 34.4626C106.27 34.4626 108.178 33.7868 109.53 32.4947C110.941 31.143 111.617 29.2944 111.617 27.5452ZM104.302 23.9473C105.216 23.9473 106.23 24.3051 106.965 25.0009C107.582 25.5972 108.039 26.5116 108.039 27.5452C108.039 28.5589 107.582 29.4733 106.965 30.0895C106.349 30.7057 105.475 31.1232 104.302 31.1232C103.149 31.1232 102.254 30.6859 101.618 30.0696C101.121 29.5926 100.565 28.7776 100.565 27.6048C100.565 26.6706 100.903 25.6966 101.618 25.0009C102.334 24.2853 103.348 23.9473 104.302 23.9473Z" fill="#252525"/>
<path d="M116.793 20.9061V34.1644H124.366V31.2424H120.232V20.9061H116.793Z" fill="#252525"/>
<path d="M128.011 32.9718C128.965 33.6277 129.8 33.9458 130.018 34.0253C130.992 34.3831 131.787 34.4626 132.622 34.4626C134.034 34.4626 135.405 34.2439 136.538 33.1109C137.492 32.1568 137.79 30.984 137.79 29.7715C137.79 28.8571 137.611 28.1216 136.936 27.406C136.24 26.6507 135.365 26.3525 134.53 26.0941L133.477 25.7761C132.662 25.5376 132.423 25.299 132.324 25.1798C132.185 25.0009 132.145 24.822 132.145 24.5834C132.145 24.2853 132.284 24.0666 132.483 23.8678C132.821 23.5498 133.278 23.4703 133.616 23.4703C134.073 23.4703 134.849 23.5498 135.882 24.3648L137.254 21.6813C136.001 21.0253 134.471 20.6079 133.159 20.6079C131.549 20.6079 130.436 21.1844 129.76 21.8602C129.183 22.4366 128.547 23.4305 128.547 25.0605C128.547 25.7363 128.627 26.6706 129.303 27.406C129.839 28.0024 130.654 28.3005 131.211 28.4794L132.105 28.7577C132.96 29.0161 133.477 29.1553 133.815 29.4534C134.093 29.692 134.193 29.9901 134.193 30.2485C134.193 30.5865 134.053 30.8846 133.855 31.0834C133.636 31.3219 133.219 31.5406 132.523 31.5406C131.33 31.5406 130.217 30.8846 129.482 30.1889L128.011 32.9718Z" fill="#252525"/>
<path d="M156.978 27.5452C156.978 25.7761 156.302 23.9076 154.891 22.5758C153.539 21.2837 151.631 20.6079 149.663 20.6079C147.695 20.6079 145.787 21.2837 144.435 22.5758C143.024 23.9076 142.348 25.7761 142.348 27.5452C142.348 29.2944 143.024 31.143 144.435 32.4947C145.787 33.7868 147.695 34.4626 149.663 34.4626C151.631 34.4626 153.539 33.7868 154.891 32.4947C156.302 31.143 156.978 29.2944 156.978 27.5452ZM149.663 23.9473C150.577 23.9473 151.591 24.3051 152.327 25.0009C152.943 25.5972 153.4 26.5116 153.4 27.5452C153.4 28.5589 152.943 29.4733 152.327 30.0895C151.71 30.7057 150.836 31.1232 149.663 31.1232C148.51 31.1232 147.616 30.6859 146.98 30.0696C146.483 29.5926 145.926 28.7776 145.926 27.6048C145.926 26.6706 146.264 25.6966 146.98 25.0009C147.695 24.2853 148.709 23.9473 149.663 23.9473Z" fill="#252525"/>
<path d="M165.593 34.1644V26.0544L171.934 34.1644H175.373V20.9061H171.934V29.0161L165.593 20.9061H162.154V34.1644H165.593Z" fill="#252525"/>
<path d="M111.617 54.8769C111.617 53.1078 110.941 51.2393 109.53 49.9075C108.178 48.6154 106.27 47.9396 104.302 47.9396C102.334 47.9396 100.426 48.6154 99.074 49.9075C97.6627 51.2393 96.9868 53.1078 96.9868 54.8769C96.9868 56.6261 97.6627 58.4747 99.074 59.8264C100.426 61.1185 102.334 61.7943 104.302 61.7943C106.27 61.7943 108.178 61.1185 109.53 59.8264C110.941 58.4747 111.617 56.6261 111.617 54.8769ZM104.302 51.279C105.216 51.279 106.23 51.6368 106.965 52.3326C107.582 52.9289 108.039 53.8433 108.039 54.8769C108.039 55.8906 107.582 56.805 106.965 57.4212C106.349 58.0374 105.475 58.4549 104.302 58.4549C103.149 58.4549 102.254 58.0175 101.618 57.4013C101.121 56.9243 100.565 56.1093 100.565 54.9365C100.565 54.0023 100.903 53.0283 101.618 52.3326C102.334 51.617 103.348 51.279 104.302 51.279Z" fill="#252525"/>
<path d="M116.793 48.2378V55.8509C116.793 57.2622 116.932 58.9518 118.085 60.2041C118.9 61.0787 120.391 61.7943 122.478 61.7943C124.346 61.7943 125.738 61.2775 126.851 60.1445C128.282 58.6934 128.342 57.2423 128.342 55.8509V48.2378H124.903V55.7913C124.903 56.5267 124.923 57.5007 124.128 58.1964C123.75 58.5344 123.134 58.7729 122.538 58.7729C121.941 58.7729 121.305 58.5145 120.908 58.1368C120.252 57.5007 120.232 56.646 120.232 56.0894V48.2378H116.793Z" fill="#252525"/>
<path d="M141.932 51.1598V48.2378H132.848V51.1598H135.671V61.4961H139.11V51.1598H141.932Z" fill="#252525"/>
<path d="M151.249 61.4961C153.515 61.4961 155.284 60.542 156.338 59.4885C157.63 58.1964 158.067 56.646 158.067 54.8968C158.067 53.4656 157.769 51.5573 156.218 50.0665C154.509 48.4167 152.283 48.2378 150.951 48.2378H146.439V61.4961H151.249ZM149.877 51.1598H150.712C151.567 51.1598 152.64 51.2393 153.455 51.9946C154.111 52.6108 154.489 53.6644 154.489 54.8968C154.489 56.3677 153.913 57.2026 153.475 57.62C152.581 58.4946 151.408 58.5741 150.573 58.5741H149.877V51.1598Z" fill="#252525"/>
<path d="M177.275 54.8769C177.275 53.1078 176.599 51.2393 175.188 49.9075C173.836 48.6154 171.928 47.9396 169.96 47.9396C167.992 47.9396 166.084 48.6154 164.732 49.9075C163.321 51.2393 162.645 53.1078 162.645 54.8769C162.645 56.6261 163.321 58.4747 164.732 59.8264C166.084 61.1185 167.992 61.7943 169.96 61.7943C171.928 61.7943 173.836 61.1185 175.188 59.8264C176.599 58.4747 177.275 56.6261 177.275 54.8769ZM169.96 51.279C170.874 51.279 171.888 51.6368 172.624 52.3326C173.24 52.9289 173.697 53.8433 173.697 54.8769C173.697 55.8906 173.24 56.805 172.624 57.4212C172.007 58.0374 171.133 58.4549 169.96 58.4549C168.807 58.4549 167.913 58.0175 167.276 57.4013C166.78 56.9243 166.223 56.1093 166.223 54.9365C166.223 54.0023 166.561 53.0283 167.276 52.3326C167.992 51.617 169.006 51.279 169.96 51.279Z" fill="#252525"/>
<path d="M196.485 54.8769C196.485 53.1078 195.809 51.2393 194.398 49.9075C193.046 48.6154 191.138 47.9396 189.17 47.9396C187.202 47.9396 185.294 48.6154 183.942 49.9075C182.531 51.2393 181.855 53.1078 181.855 54.8769C181.855 56.6261 182.531 58.4747 183.942 59.8264C185.294 61.1185 187.202 61.7943 189.17 61.7943C191.138 61.7943 193.046 61.1185 194.398 59.8264C195.809 58.4747 196.485 56.6261 196.485 54.8769ZM189.17 51.279C190.084 51.279 191.098 51.6368 191.833 52.3326C192.45 52.9289 192.907 53.8433 192.907 54.8769C192.907 55.8906 192.45 56.805 191.833 57.4212C191.217 58.0374 190.343 58.4549 189.17 58.4549C188.017 58.4549 187.122 58.0175 186.486 57.4013C185.989 56.9243 185.433 56.1093 185.433 54.9365C185.433 54.0023 185.771 53.0283 186.486 52.3326C187.202 51.617 188.216 51.279 189.17 51.279Z" fill="#252525"/>
<path d="M201.661 48.2378V61.4961H205.1V56.4075L208.399 61.4961H212.673L208.519 56.0695C209.135 55.9503 209.831 55.6521 210.348 55.1552C211.003 54.5191 211.401 53.5252 211.401 52.3922C211.401 51.3387 211.023 50.1858 210.268 49.4105C209.294 48.3968 208.022 48.2378 207.028 48.2378H201.661ZM205.1 50.9014H205.756C206.511 50.9014 207.088 51.1001 207.406 51.4182C207.704 51.6965 207.863 52.1338 207.863 52.5313C207.863 52.9488 207.684 53.3861 207.425 53.6445C207.008 54.042 206.273 54.1812 205.756 54.1812H205.1V50.9014Z" fill="#252525"/>
<path d="M216.509 60.3035C217.463 60.9594 218.298 61.2775 218.516 61.357C219.49 61.7148 220.285 61.7943 221.12 61.7943C222.532 61.7943 223.903 61.5756 225.036 60.4426C225.99 59.4885 226.288 58.3157 226.288 57.1032C226.288 56.1888 226.11 55.4533 225.434 54.7377C224.738 53.9824 223.863 53.6842 223.028 53.4258L221.975 53.1078C221.16 52.8692 220.921 52.6307 220.822 52.5115C220.683 52.3326 220.643 52.1537 220.643 51.9151C220.643 51.617 220.782 51.3983 220.981 51.1995C221.319 50.8815 221.776 50.802 222.114 50.802C222.571 50.802 223.347 50.8815 224.38 51.6965L225.752 49.013C224.499 48.357 222.969 47.9396 221.657 47.9396C220.047 47.9396 218.934 48.5161 218.258 49.1919C217.681 49.7683 217.045 50.7622 217.045 52.3922C217.045 53.068 217.125 54.0023 217.801 54.7377C218.337 55.3341 219.152 55.6322 219.709 55.8111L220.603 56.0894C221.458 56.3478 221.975 56.487 222.313 56.7851C222.591 57.0237 222.691 57.3218 222.691 57.5802C222.691 57.9182 222.551 58.2163 222.353 58.4151C222.134 58.6536 221.717 58.8723 221.021 58.8723C219.828 58.8723 218.715 58.2163 217.98 57.5206L216.509 60.3035Z" fill="#252525"/>
<g clip-path="url(#clip0)">
<path d="M74.5282 37.2493C74.4314 28.1742 71.0715 19.1411 65.0429 12.3837C61.6277 8.48844 57.3552 5.36105 52.6402 3.25286C46.6255 0.558274 39.8917 -0.488843 33.3378 0.209235C25.4011 0.977121 17.7272 4.3977 11.906 9.91252C5.22762 16.0975 1.03806 24.8793 0.208444 33.9822C-0.524383 41.1166 0.733868 48.4743 3.85876 54.9246C4.56393 56.4185 5.54564 57.7448 6.2923 59.2108C10.7307 66.024 17.4921 71.2736 25.1661 73.8146C35.0523 77.1654 46.3213 76.2439 55.4747 71.134C57.6594 69.9193 59.7472 68.5092 61.5586 66.764C63.8123 64.9909 65.7205 62.7989 67.4073 60.4813C68.0019 59.5179 68.5826 58.5546 69.2325 57.6331C70.6014 55.5529 71.4448 53.2073 72.3159 50.8897C72.869 49.7309 73.1179 48.4604 73.4635 47.2457C74.2102 43.9787 74.625 40.614 74.5282 37.2493ZM54.3962 69.5284C50.5247 71.6645 46.2521 73.0746 41.8552 73.5912C36.2829 74.2474 30.5309 73.7587 25.249 71.832C18.8057 69.5423 13.0537 65.298 8.98855 59.7553C8.14511 58.7501 7.5782 57.5633 6.92833 56.4324C8.64287 53.5703 10.3574 50.7082 12.0581 47.8461C12.1964 47.5668 12.5006 47.4691 12.7495 47.3295C15.1968 48.1951 17.5336 49.2981 19.9533 50.2475C32.9506 55.6645 45.9756 61.0118 58.9591 66.4568C57.6041 67.6994 55.9863 68.6069 54.3962 69.5284ZM62.402 63.4551C61.7798 64.1392 60.9916 64.6418 60.3418 65.298C47.6487 60.0624 34.997 54.785 22.3177 49.5354C21.9582 49.4098 21.5987 49.0887 21.654 48.6558C21.7923 48.223 22.1103 47.874 22.373 47.511C26.7009 41.4238 31.0287 35.3365 35.3565 29.2493C35.6054 28.8304 36.2276 28.8304 36.5456 29.1655C44.7727 37.0817 52.9444 45.0398 61.1576 52.942C62.9274 54.7291 64.8079 56.3905 66.5363 58.1916C65.4163 60.1462 63.9644 61.8495 62.402 63.4551ZM69.4123 53.1375C68.8177 54.422 68.2646 55.7483 67.3797 56.8513C66.3012 55.7623 65.2089 54.6733 64.0751 53.6401C60.0376 49.675 55.931 45.7798 51.8797 41.8147C49.9163 39.9997 48.0358 38.059 46.0724 36.2301C45.6991 35.7972 44.9109 35.3784 45.2704 34.7082C47.4413 31.0922 49.5983 27.4622 51.7691 23.8462C52.0733 23.2737 52.9859 23.3575 53.2209 23.9439C58.8485 32.977 64.5452 41.9822 70.1451 51.0293C70.0206 51.7693 69.6197 52.4255 69.4123 53.1375ZM71.9979 44.97C71.8873 46.073 71.4448 47.1061 71.3065 48.1951L71.2651 48.2091C71.1544 48.237 71.0577 48.2649 70.9609 48.2928C64.8217 38.3941 58.5996 28.5512 52.4328 18.6664C51.6723 19.7554 51.0639 20.9282 50.3587 22.0451C48.8378 24.614 47.303 27.169 45.7682 29.7379C45.063 30.8549 44.4685 32.0416 43.6803 33.0887C42.6986 32.1254 41.7446 31.1201 40.7214 30.1987C39.9194 29.4866 39.1727 28.7187 38.4123 27.9509L37.1678 26.7502L35.5777 25.2283C30.2267 32.7257 24.9172 40.237 19.5662 47.7344C16.8837 46.6733 14.2704 45.4586 11.5604 44.4813C9.61076 47.7902 7.5782 51.0572 5.67008 54.394C4.74368 52.3696 3.87258 50.2893 3.2642 48.1393C0.872137 39.5669 1.54966 30.087 5.37972 22.0312C8.26955 15.916 12.9292 10.6525 18.6674 7.12021C21.3637 5.47274 24.2535 4.16036 27.2816 3.26682C28.1942 3.07136 29.1067 2.91778 30.0055 2.68043C31.6094 2.28951 33.2548 2.27555 34.8864 2.10801C37.9007 1.92651 40.9149 2.13593 43.9016 2.55478C45.0215 2.80609 46.1553 3.04343 47.2892 3.26682C51.2575 4.45355 55.0322 6.31044 58.3784 8.78163C62.8859 12.1743 66.6054 16.642 69.0389 21.7659C72.4957 28.9002 73.4497 37.1934 71.9979 44.97Z" fill="#252525"/>
</g>
<defs>
<clipPath id="clip0">
<rect width="74.541" height="75.7833" fill="white"/>
</clipPath>
</defs>
</svg>
