<svg width="250" height="87" viewBox="0 0 250 87" fill="none" xmlns="http://www.w3.org/2000/svg">
<path d="M87.8317 45.4625C87.1947 45.4625 86.6452 45.45 86.0833 45.4625C83.9602 45.4999 81.8496 45.5499 79.7266 45.5874C76.1798 45.6498 72.6206 45.6998 69.0739 45.7872C67.3629 45.8246 65.652 45.9995 63.9411 46.0369C61.356 46.0744 58.7708 46.0494 56.1732 46.0494C54.3624 46.0494 52.5515 46.0369 50.7407 46.0494C43.5973 46.0744 36.4538 46.1493 29.3104 46.1369C25.6512 46.1244 21.9921 45.987 18.333 45.8496C15.4731 45.7372 12.6132 45.5749 9.75334 45.3875C8.74177 45.3251 7.73019 45.1003 6.71862 44.9879C6.08171 44.913 5.44479 44.938 4.80788 44.838C3.80879 44.6882 2.79722 44.5383 1.82312 44.2511C1.21118 44.0762 0.574263 43.814 0.237073 43.1396C0.0872104 42.8274 0.099699 42.6401 0.361958 42.3903C1.16122 41.666 2.03542 41.1789 3.0345 40.9042C5.99429 40.1174 8.96656 39.3556 11.9263 38.5563C13.7871 38.0568 15.6354 37.4948 17.4962 37.0202C19.919 36.4083 22.3668 35.8588 24.802 35.2593C27.4746 34.5974 30.1346 33.8731 32.8072 33.2112C33.8063 32.9614 34.8303 32.7866 35.8419 32.5493C36.7036 32.337 37.5528 32.0498 38.427 31.85C40.1504 31.4378 41.8738 31.0632 43.5848 30.676C43.6597 30.6636 43.7471 30.6511 43.8345 30.6386C45.1334 30.3264 46.4197 30.0142 47.7185 29.7019C49.7166 29.2274 51.7023 28.7403 53.713 28.3032C54.5997 28.1034 55.5113 28.0285 56.398 27.8536C58.3088 27.504 60.207 27.0793 62.1178 26.7671C64.3033 26.405 66.5137 26.1302 68.6992 25.818C70.0105 25.6307 71.3218 25.3934 72.6331 25.231C75.0684 24.9438 77.5036 24.6815 79.9389 24.4692C81.5874 24.3319 83.2484 24.3568 84.8969 24.207C89.3677 23.7949 93.8386 23.8323 98.322 24.0072C99.9705 24.0696 101.631 24.3319 103.267 24.6441C104.466 24.8689 105.44 25.4933 105.94 26.7422C106.252 27.5289 105.928 28.2033 105.703 28.8777C105.428 29.7019 105.028 30.4887 104.641 31.3879C104.879 31.238 105.078 31.1131 105.278 31.0007C106.052 30.5636 106.814 30.1141 107.601 29.7019C108.5 29.2274 109.462 29.3772 110.224 29.8518C110.786 30.2015 111.148 30.9258 111.472 31.5502C111.672 31.9374 111.66 32.4369 111.722 32.8865C111.772 33.2362 111.885 33.3736 112.259 33.2362C113.795 32.6617 115.381 32.1872 116.88 31.5128C118.379 30.8259 119.765 29.9018 121.238 29.1649C122.675 28.4531 123.536 27.1668 124.585 26.0678C125.934 24.6441 127.245 23.1704 128.819 21.984C129.418 21.5344 129.955 21.0099 130.555 20.5728C131.204 20.0983 131.629 20.1357 131.979 20.5728C132.328 20.9974 132.291 21.8217 131.879 22.2463C130.73 23.4327 129.593 24.6191 128.419 25.7805C127.907 26.2801 127.283 26.6672 126.746 27.1543C126.072 27.7662 125.435 28.4031 124.798 29.0525C123.649 30.2389 122.55 31.4503 121.388 32.6367C120.976 33.0614 120.489 33.3985 120.04 33.7732C120.09 33.8356 120.139 33.9106 120.189 33.973C120.951 33.5109 121.701 33.0114 122.475 32.5868C123.836 31.8375 125.21 31.1131 126.609 30.4263C126.896 30.2889 127.308 30.3014 127.633 30.3763C128.207 30.4887 128.419 31.1131 128.07 31.6002C127.92 31.8125 127.683 31.9749 127.495 32.1747C127.083 32.6118 126.683 33.0614 126.284 33.4985C125.759 34.0729 125.235 34.6474 124.723 35.2344C124.386 35.6215 124.073 36.0211 123.761 36.4208C123.524 36.733 123.287 37.0452 123.074 37.3699C122.987 37.5073 122.937 37.6821 122.874 37.8445C123.037 37.9069 123.212 38.0318 123.374 38.0193C123.849 37.9818 124.348 37.9569 124.785 37.807C127.433 36.8454 130.118 35.9462 132.466 34.3352C133.065 33.9231 133.565 33.3985 134.139 32.949C134.676 32.5243 135.251 32.5368 135.6 32.9115C135.95 33.2986 135.937 34.1603 135.563 34.5725C135.301 34.8722 135.026 35.1469 134.764 35.4467C134.739 35.4716 134.751 35.5216 134.726 35.6715C135.013 35.5466 135.251 35.4716 135.475 35.3468C136.824 34.6099 138.173 33.8731 139.509 33.1363C139.759 32.9989 140.021 32.8615 140.246 32.6742C140.983 32.0498 142.157 32.7242 142.119 33.5484C142.107 33.7857 142.019 34.0604 141.87 34.2353C141.37 34.8347 140.82 35.4092 140.296 35.9962C140.246 36.0461 140.234 36.1335 140.159 36.2959C140.721 36.146 141.208 36.0711 141.657 35.9087C143.331 35.3093 145.017 34.7098 146.678 34.0729C147.739 33.6608 148.838 33.3111 149.8 32.7117C150.587 32.2246 151.261 31.4878 151.86 30.776C153.421 28.8902 154.883 26.917 156.456 25.0437C157.992 23.2204 159.816 21.6718 161.701 20.1982C161.926 20.0233 162.213 19.9109 162.488 19.8735C163.175 19.7611 163.799 20.423 163.625 21.0973C163.525 21.4845 163.362 21.8966 163.113 22.2213C162.501 23.0206 161.826 23.7824 161.177 24.5691C159.828 26.2051 158.567 27.9411 157.093 29.4522C156.156 30.4138 155.307 31.5128 153.983 32.1247C152.859 32.6367 152.098 33.6358 151.461 34.7098C151.398 34.8222 151.386 35.0595 151.461 35.1469C151.561 35.2593 151.785 35.3842 151.91 35.3468C154.208 34.7973 156.494 34.1479 158.579 32.9989C159.279 32.6118 159.828 31.8999 160.34 31.263C161.214 30.2015 162.163 29.2149 163.275 28.4156C163.762 28.0659 164.461 28.1409 164.811 28.528C165.136 28.8902 165.111 29.7269 164.724 30.1265C163.45 31.4628 162.138 32.7616 160.877 34.1104C160.278 34.7473 159.778 35.4592 159.229 36.1335C158.991 36.4333 159.066 36.683 159.391 36.8329C159.816 37.0327 160.265 37.2825 160.715 37.3324C162.288 37.4823 163.862 37.5947 165.435 37.6322C169.457 37.7071 173.316 36.8204 177.1 35.5715C179.348 34.8222 181.196 33.4235 182.62 31.5627C183.506 30.4013 184.231 29.115 184.668 27.6788C185.255 25.7556 186.029 23.8698 186.391 21.9091C186.828 19.5612 186.928 17.1385 187.178 14.7532C187.228 14.2411 187.378 13.7291 187.378 13.2171C187.365 10.7069 187.403 8.18419 186.728 5.73644C186.229 3.95058 185.504 2.32707 183.581 1.70264C183.531 1.39043 183.481 1.12817 183.419 0.790979C184.106 0.628628 184.73 0.840933 185.292 1.17812C186.529 1.91495 187.49 2.86408 187.79 4.35021C188.015 5.4492 188.389 6.53571 188.514 7.64719C188.714 9.49549 188.801 11.3688 188.889 13.2296C189.014 16.1644 188.702 19.0617 188.302 21.959C187.977 24.3194 187.315 26.5673 186.429 28.7528C186.029 29.7144 185.642 30.6885 185.217 31.7376C185.467 31.5627 185.717 31.4129 185.954 31.2505C186.966 30.5262 187.952 29.7769 188.976 29.0775C189.826 28.4905 190.675 27.8287 191.611 27.4415C193.285 26.7422 194.846 25.6557 196.832 25.8555C197.556 25.9304 198.255 25.8929 198.73 26.5049C198.98 26.8296 199.242 27.2292 199.292 27.6164C199.404 28.578 199.454 29.5521 198.78 30.4013C198.468 30.7884 198.268 31.263 197.993 31.6751C197.856 31.8749 197.681 32.0748 197.468 32.1996C196.507 32.8116 195.533 33.411 194.571 34.023C194.384 34.1479 194.234 34.3227 194.134 34.56C195.046 34.3352 195.945 34.3102 196.719 33.6608C198.068 32.5368 199.554 31.5877 200.978 30.5636C201.103 30.4762 201.277 30.4263 201.44 30.4013C202.764 30.1141 203.013 30.4263 202.814 31.7625C202.664 32.7991 201.765 33.1363 201.153 33.7108C200.628 34.1978 199.879 34.4226 199.242 34.7848C199.154 34.8347 199.042 34.9721 199.055 35.047C199.067 35.1345 199.204 35.2344 199.304 35.2593C199.467 35.2968 199.629 35.2718 199.804 35.2718C201.902 35.2718 203.825 34.6849 205.761 33.8981C207.097 33.3611 208.259 32.5993 209.345 31.7251C209.97 31.2255 210.482 30.5761 211.044 30.0142C211.243 29.8143 211.493 29.652 211.718 29.4647C212.13 29.115 212.68 28.9901 213.017 29.3398C213.291 29.627 213.416 30.2389 213.316 30.6261C213.192 31.1131 212.804 31.5502 212.467 31.9374C211.755 32.7616 210.944 33.5234 210.257 34.3727C209.17 35.6964 208.146 37.0827 207.11 38.4314C207.085 38.4564 207.097 38.5064 207.097 38.6562C207.334 38.6063 207.584 38.6188 207.772 38.5188C208.733 38.0443 209.682 37.5323 210.656 37.0827C211.193 36.8329 211.793 36.7455 212.33 36.4957C214.141 35.6839 216.039 35.1719 217.987 34.8097C218.212 34.7723 218.462 34.6974 218.662 34.7723C218.886 34.8597 219.186 35.047 219.249 35.2468C219.536 36.2959 219.224 37.2575 218.687 38.1567C218.274 38.8435 217.787 39.4805 217.213 40.3297C217.712 40.2048 218.037 40.1049 218.374 40.03C218.761 39.9425 219.149 39.8801 219.523 39.7802C220.86 39.418 222.208 39.0559 223.545 38.6812C224.032 38.5438 224.481 38.5188 224.868 38.9185C225.218 39.2806 225.518 38.9809 225.792 38.7811C227.628 37.4823 229.689 36.9828 231.899 37.0827C232.936 37.1326 233.923 37.9818 233.498 39.3056C233.298 39.9051 233.123 40.4546 232.561 40.8417C232.099 41.1789 231.7 41.616 231.3 42.178C231.587 42.178 231.874 42.203 232.149 42.178C234.897 41.9532 237.644 41.6535 240.404 41.4911C243.014 41.3288 245.637 41.2913 248.247 41.2289C248.609 41.2164 248.971 41.4287 249.333 41.5411C249.333 41.641 249.321 41.7409 249.321 41.8408C248.459 42.0906 247.597 42.3653 246.736 42.5901C245.012 43.0272 243.264 43.1896 241.491 43.252C240.566 43.2895 239.642 43.5018 238.718 43.6142C238.431 43.6516 238.144 43.5892 237.856 43.6142C236.558 43.7515 235.271 43.9139 233.972 44.0638C233.073 44.1637 232.162 44.2886 231.25 44.3385C229.577 44.4134 227.891 44.3885 226.217 44.5133C225.443 44.5758 224.693 44.9504 223.919 45.0503C222.87 45.2002 221.809 45.1128 220.909 44.4509C220.472 44.1387 220.173 42.7899 220.36 42.2779C220.472 41.9782 220.572 41.666 220.697 41.3038C220.472 41.2788 220.31 41.2039 220.198 41.2413C219.273 41.566 218.349 41.9282 217.425 42.2654C217.238 42.3403 217.038 42.4028 216.851 42.4652C216.626 42.5277 216.364 42.5027 216.189 42.6276C214.64 43.7515 212.704 44.1012 211.181 45.2876C210.581 45.7497 210.007 45.5124 209.632 44.8256C209.358 44.3385 209.557 43.6766 210.132 43.4143C211.293 42.8649 212.305 42.1155 213.204 41.2164C213.379 41.0415 213.604 40.9166 213.816 40.7793C215.24 39.9051 216.189 38.6188 217.038 37.0452C216.676 37.0827 216.426 37.0577 216.226 37.1326C214.565 37.7321 212.892 38.2941 211.281 38.9684C209.832 39.5804 208.496 40.4421 207.035 41.0041C205.336 41.6535 204.524 42.9648 203.813 44.4884C203.413 45.3501 202.801 46.0994 202.339 46.9361C201.839 47.8228 201.44 48.747 200.928 49.6212C200.641 50.1207 200.228 50.5328 199.866 50.9824C199.791 51.0823 199.666 51.1697 199.654 51.2821C199.517 52.3062 198.68 52.8807 198.143 53.6425C197.918 53.9547 197.781 54.3293 197.606 54.679C197.543 54.8039 197.468 54.9413 197.356 55.0162C196.357 55.778 195.92 56.902 195.37 57.9635C194.808 59.0375 194.147 60.0491 193.497 61.0731C192.935 61.9598 192.323 62.8215 191.736 63.7082C191.711 63.7457 191.686 63.7707 191.661 63.8081C189.925 66.0436 188.227 68.3165 186.454 70.527C185.467 71.7633 184.318 72.8873 183.319 74.1112C182.282 75.3725 181.333 76.7088 180.347 78.0076C180.272 78.1075 180.184 78.1949 180.097 78.2948C178.898 79.5936 177.674 80.8924 176.488 82.2037C176.163 82.5534 175.826 82.9156 175.614 83.3277C174.939 84.614 173.765 85.3134 172.579 85.9753C172.042 86.275 171.467 86.5123 170.88 86.6621C170.656 86.7246 170.281 86.5373 170.081 86.3499C169.057 85.4008 168.458 84.2643 168.42 82.8157C168.408 81.9165 168.095 81.0173 168.07 80.1057C168.033 78.7819 168.058 77.4331 168.195 76.1093C168.358 74.4608 168.533 72.7874 168.957 71.2013C169.482 69.2531 170.256 67.3674 170.955 65.4566C171.805 63.1462 173.153 61.1231 174.639 59.1624C176.538 56.6522 178.873 54.6665 181.396 52.8682C183.094 51.6443 184.793 50.4079 186.566 49.2964C188.165 48.2974 189.85 47.4606 191.499 46.5365C191.611 46.474 191.711 46.3866 191.986 46.1993C190.8 46.1493 189.788 46.1244 188.789 46.0744C186.603 45.9745 184.43 45.8996 182.245 45.7622C179.685 45.5998 177.112 45.3376 174.552 45.2127C170.98 45.0379 167.409 44.9255 163.837 44.8505C160.427 44.7881 157.018 44.7756 153.609 44.7881C151.223 44.8006 148.838 44.913 146.453 44.9629C145.129 44.9879 143.805 44.9504 142.481 44.9629C140.858 44.9879 139.234 45.0503 137.611 45.0753C136.037 45.0878 134.451 45.0628 132.878 45.0628C127.807 45.1003 122.725 45.1503 117.654 45.1752C113.733 45.1877 109.799 45.1378 105.878 45.1752C102.481 45.2127 99.0838 45.3251 95.6745 45.4375C95.3123 45.45 94.9127 45.6498 94.6254 45.8746C93.8636 46.4865 93.1393 47.1484 92.4149 47.7978C90.9788 49.0717 89.2304 49.8085 87.4945 50.5328C87.1323 50.6827 86.5328 50.333 86.0957 50.1082C85.9958 50.0582 86.0208 49.5462 86.1207 49.3089C86.6452 48.1225 87.2197 46.9611 87.7817 45.7872C87.8192 45.7122 87.8067 45.6248 87.8317 45.4625ZM81.962 44.5383C81.962 44.4634 81.962 44.4009 81.962 44.326C84.1226 44.326 86.2831 44.3385 88.4436 44.3135C88.6809 44.3135 88.9681 44.2011 89.1554 44.0388C90.9288 42.5526 92.6522 41.0041 94.4506 39.5554C96.2864 38.0942 98.1971 36.733 100.07 35.3218C100.345 35.1095 100.645 34.8722 100.82 34.585C101.994 32.6243 103.13 30.6636 104.279 28.6904C105.116 27.2417 104.404 26.405 103.03 25.9679C101.719 25.5557 100.308 25.3684 98.934 25.231C97.5477 25.0937 96.1365 25.1436 94.7378 25.0937C94.1508 25.0687 93.5639 24.9688 92.9769 24.9813C92.0153 25.0062 91.0537 25.1311 90.0921 25.1561C88.6934 25.1936 87.2946 25.1436 85.8959 25.2061C84.5971 25.2685 83.3108 25.5433 82.0245 25.5557C78.8524 25.5557 75.7427 25.9804 72.6081 26.4424C70.1978 26.8046 67.7626 26.9545 65.3523 27.4415C62.6048 27.991 59.8199 28.3157 57.0599 28.7903C56.0608 28.9526 55.0867 29.2524 54.1001 29.4522C52.7014 29.7394 51.2902 29.9767 49.8915 30.2764C48.7675 30.5137 47.656 30.8259 46.5321 31.0757C45.3207 31.3504 44.0968 31.5627 42.8854 31.8375C41.724 32.0997 40.5626 32.4244 39.4011 32.7117C36.6037 33.3985 33.8063 34.0729 31.0088 34.7848C28.9232 35.3093 26.8501 35.8963 24.7646 36.4582C24.1651 36.6206 23.5532 36.733 22.9537 36.9078C21.8547 37.2076 20.7682 37.5572 19.6692 37.8445C18.1456 38.2316 16.6095 38.5688 15.0859 38.9559C14.1493 39.1932 13.2127 39.4555 12.276 39.6928C11.3394 39.9425 10.3903 40.1673 9.45361 40.4171C8.29218 40.7168 7.11826 40.9916 5.96931 41.3413C4.92027 41.6535 3.89621 42.0406 2.87215 42.4278C2.7098 42.4902 2.60989 42.74 2.48501 42.9023C2.64736 43.0147 2.79722 43.1771 2.97206 43.2145C4.7829 43.5392 6.59374 43.9139 8.41706 44.1387C11.0646 44.4634 13.7372 44.5758 16.3972 44.7881C19.0073 45.0004 21.6299 45.0379 24.2525 45.0628C33.5939 45.1128 42.9354 45.1503 52.2768 45.1503C56.5354 45.1503 60.794 45.0379 65.0526 44.938C68.4245 44.8505 71.7839 44.6757 75.1558 44.6008C77.4287 44.5008 79.6891 44.5383 81.962 44.5383ZM118.853 32.6867C118.816 32.6492 118.766 32.6118 118.728 32.5743C118.653 32.5993 118.578 32.6243 118.503 32.6617C116.568 33.6733 114.545 34.4351 112.434 35.0345C111.735 35.2344 110.861 35.4592 110.461 35.9712C109.662 36.9703 108.6 37.4573 107.551 37.9943C106.402 38.5688 105.153 38.931 104.067 39.5929C103.243 40.0799 102.518 39.8676 101.769 39.7053C101.02 39.5429 100.645 38.8685 100.657 38.1192C100.657 37.9569 100.632 37.782 100.607 37.4948C99.0838 39.8177 97.6476 42.0031 96.1365 44.326C97.0107 44.2761 97.76 44.1886 98.5094 44.1886C102.056 44.1762 105.59 44.1762 109.137 44.1762C111.26 44.1762 113.383 44.2011 115.506 44.1762C122.987 44.1012 130.468 44.0013 137.948 43.9139C139.272 43.9014 140.596 43.9264 141.919 43.9139C147.976 43.8639 154.021 43.789 160.078 43.7391C162.401 43.7141 164.724 43.6017 167.034 43.7141C170.718 43.8889 174.402 44.2011 178.074 44.4509C179.86 44.5758 181.646 44.7132 183.431 44.8131C185.355 44.9255 187.29 44.9754 189.214 45.0753C190.063 45.1128 190.9 45.2627 191.736 45.2627C192.635 45.2627 193.597 45.3126 194.434 45.0503C195.77 44.6132 197.019 43.9514 198.293 43.3519C199.417 42.8274 200.491 42.203 201.627 41.7034C202.751 41.2164 203.663 40.5919 204.212 39.443C204.699 38.4314 205.349 37.4823 205.998 36.3708C205.336 36.5831 204.799 36.8579 204.25 36.9328C202.676 37.1451 201.09 37.3449 199.504 37.4199C198.355 37.4698 197.319 37.0702 196.469 36.221C196.32 36.0711 195.932 36.0461 195.695 36.121C194.596 36.4957 193.51 36.9578 192.323 36.8454C191.686 36.7829 191.037 36.5956 190.462 36.3209C190.075 36.121 189.801 36.0461 189.376 36.1835C187.752 36.7205 186.154 37.4199 184.381 36.5956C183.706 36.2834 183.369 36.0211 183.344 35.2593C183.331 34.8472 183.294 34.4226 183.257 33.8731C182.932 34.1104 182.757 34.2353 182.582 34.3727C181.296 35.3093 180.034 36.3209 178.486 36.7954C176.45 37.4199 174.415 38.0568 172.354 38.5688C171.068 38.8935 169.744 39.0559 168.433 39.2057C167.121 39.3556 165.785 39.3806 164.474 39.5054C162.938 39.6428 161.439 39.4055 159.94 39.1058C158.379 38.7936 157.293 37.9818 157.043 36.2959C156.981 35.8588 156.631 35.8838 156.319 35.9962C155.507 36.2834 154.708 36.6331 153.884 36.8828C153.122 37.1201 152.335 37.3449 151.536 37.4199C150.137 37.5572 149.612 37.1576 149.25 35.8088C149.125 35.3343 148.888 35.1844 148.451 35.3468C146.528 36.0461 144.63 36.7705 142.706 37.4573C141.695 37.8195 140.683 38.2191 139.634 38.4064C138.31 38.6437 137.111 38.0693 137.673 36.4707C137.686 36.4457 137.648 36.3958 137.573 36.196C137.174 36.4707 136.799 36.7205 136.425 36.9703C134.963 37.8944 133.49 38.8186 132.016 39.7552C131.229 40.2548 130.405 39.9425 130.305 39.0434C130.268 38.7686 130.517 38.4689 130.642 38.1817C130.755 37.9194 130.88 37.6571 131.005 37.3949C130.942 37.3574 130.892 37.3324 130.83 37.295C130.118 37.6197 129.418 37.9818 128.694 38.2691C127.945 38.5688 127.171 38.8061 126.409 39.0808C125.122 39.5429 123.849 40.03 122.425 39.6553C121.576 39.4305 121.101 38.7686 121.189 37.9069C121.276 36.9952 121.701 36.2584 122.238 35.5591C122.387 35.3717 122.475 35.1345 122.587 34.9097C122.525 34.8597 122.475 34.8098 122.412 34.7598C121.963 35.072 121.526 35.3842 121.076 35.6839C120.115 36.3209 119.128 36.9078 118.204 37.5947C117.405 38.1817 116.693 38.8935 115.931 39.5304C115.394 39.98 114.819 39.9925 114.357 39.5804C113.97 39.2307 113.958 38.7811 114.345 38.1941C114.57 37.8445 114.832 37.5198 115.094 37.2076C116.156 35.9587 117.23 34.7223 118.291 33.4735C118.503 33.2112 118.666 32.9365 118.853 32.6867ZM200.84 46.2118C200.503 46.1369 200.303 46.0494 200.116 46.0619C199.304 46.0994 198.493 46.1618 197.693 46.2118C196.544 46.2742 195.458 46.499 194.696 47.4981C194.621 47.5855 194.484 47.623 194.371 47.6854C193.285 48.1975 192.211 48.7345 191.124 49.234C190.15 49.6836 189.376 50.4954 188.252 50.6827C187.765 50.7701 187.303 51.1198 186.866 51.4195C186.116 51.9315 185.442 52.5809 184.655 53.0305C182.32 54.3793 180.234 56.0153 178.473 58.0634C178.074 58.5255 177.587 58.9126 177.137 59.3372C177.037 59.4371 176.875 59.5246 176.837 59.6494C176.513 60.686 175.676 61.273 174.889 61.9224C174.714 62.0597 174.527 62.2221 174.452 62.4219C174.127 63.1712 173.391 63.6957 173.328 64.5699C173.328 64.6449 173.253 64.7198 173.191 64.7697C172.179 65.594 172.004 66.9053 171.605 67.9918C170.843 70.0524 170.431 72.2504 170.006 74.4109C169.781 75.5598 169.719 76.7712 169.769 77.9327C169.794 78.707 170.368 79.4687 169.769 80.2555C169.744 80.293 169.769 80.3804 169.769 80.4429C169.919 81.4544 170.031 82.466 170.219 83.4651C170.381 84.3767 171.143 84.7389 171.929 84.2893C173.053 83.6399 174.052 82.8656 174.852 81.8166C175.776 80.5927 176.775 79.4313 177.774 78.2699C178.498 77.4206 179.285 76.6089 180.01 75.7597C181.208 74.336 182.395 72.8998 183.569 71.4636C185.717 68.866 187.952 66.3308 189.975 63.6333C191.574 61.5102 192.973 59.2248 194.221 56.8645C195.058 55.2785 196.132 53.8298 197.081 52.3062C198.33 50.283 199.554 48.2974 200.84 46.2118ZM196.757 29.2399C196.832 29.2524 196.906 29.2648 196.981 29.2773C197.106 28.9401 197.356 28.578 197.306 28.2658C197.269 28.016 196.869 27.6538 196.619 27.6413C195.982 27.6288 195.283 27.6413 194.696 27.8911C193.722 28.2907 192.823 28.8527 191.911 29.3897C189.875 30.5886 187.84 31.775 186.241 33.5734C186.054 33.7857 185.842 33.998 185.654 34.2228C185.542 34.3602 185.467 34.535 185.367 34.6974C185.542 34.7848 185.729 34.9721 185.892 34.9596C186.703 34.8597 187.54 34.7723 188.327 34.56C188.864 34.4101 189.451 34.1603 189.85 33.7732C190.812 32.8615 191.686 31.8625 192.598 30.8883C192.735 30.7385 192.873 30.5761 193.023 30.4263C193.734 29.7269 194.421 29.0151 195.171 28.3657C195.595 28.0035 196.157 28.1658 196.432 28.6404C196.544 28.8402 196.657 29.04 196.757 29.2399ZM105.44 34.56C105.728 34.5974 105.89 34.6474 106.04 34.6349C106.677 34.5475 107.314 34.4726 107.926 34.3352C108.45 34.2228 108.962 34.0604 109.449 33.8481C109.961 33.6109 110.136 33.1613 109.961 32.5993C109.886 32.387 109.824 32.1622 109.737 31.9499C109.399 31.0632 109.025 30.9008 108.163 31.313C107.826 31.4753 107.526 31.7625 107.264 32.0498C106.889 32.4619 106.577 32.9365 106.252 33.3861C105.99 33.7357 105.74 34.1104 105.44 34.56ZM97.8849 39.3181C97.835 39.2682 97.785 39.2307 97.7351 39.1807C95.4497 40.4546 93.6388 42.3154 91.5158 44.1137C91.853 44.2386 92.0278 44.351 92.2026 44.351C92.5898 44.351 93.0019 44.2386 93.3766 44.2885C93.9635 44.3635 94.3382 44.1012 94.6629 43.7016C95.3248 42.8773 95.9867 42.0406 96.6111 41.1914C97.0482 40.5795 97.4603 39.9425 97.8849 39.3181ZM226.379 42.128C226.941 41.9032 227.616 41.7159 228.203 41.3912C229.302 40.7793 230.351 40.0924 231.412 39.4055C231.487 39.3556 231.487 38.9934 231.45 38.9809C231.125 38.856 230.738 38.6312 230.451 38.7187C229.364 39.0559 228.265 39.4055 227.279 39.93C226.692 40.2423 226.255 40.8667 225.83 41.4162C225.555 41.7659 225.83 42.1405 226.379 42.128ZM92.6897 45.7497C92.6647 45.6498 92.6397 45.5624 92.6023 45.4625C91.828 45.4625 91.0537 45.4625 90.2794 45.475C90.2045 45.475 90.1046 45.5749 90.0421 45.6623C89.5925 46.2992 89.1305 46.9361 88.7058 47.598C88.581 47.7853 88.5435 48.0226 88.4686 48.2349C88.531 48.2974 88.5934 48.3473 88.6559 48.4098C90.0171 47.5231 91.3534 46.6364 92.6897 45.7497ZM106.352 36.6581C105.64 36.6581 104.916 36.6581 104.204 36.6581C103.517 36.6581 103.03 37.1076 102.918 37.9194C104.192 37.7945 105.303 37.3199 106.352 36.6581ZM223.819 40.8917C222.908 41.4037 222.471 42.1155 222.583 42.7774C222.858 42.7774 223.157 42.8149 223.432 42.7649C223.57 42.74 223.782 42.5651 223.794 42.4527C223.844 41.9657 223.819 41.4786 223.819 40.8917ZM199.567 45.1627C200.99 45.5249 201.69 45.1128 201.777 44.0388C201.015 44.4259 200.291 44.8006 199.567 45.1627Z" fill="#252525"/>
</svg>
