<svg width="29" height="30" viewBox="0 0 29 30" fill="none" xmlns="http://www.w3.org/2000/svg">
<g clip-path="url(#clip0)">
<path d="M27.6017 14.7078C25.8911 11.8172 23.4602 9.48598 20.3991 8.18051C19.0486 5.10334 16.8879 2.49241 14.0969 0.720703C11.3059 2.49241 9.05506 5.01009 7.79461 8.18051C4.82355 9.57922 2.30265 11.8172 0.592041 14.7078C2.30265 17.5985 4.73352 19.9297 7.79461 21.2352C9.14509 24.3123 11.3059 26.9233 14.0969 28.695C16.8879 26.9233 19.1387 24.4056 20.3991 21.2352C23.3702 19.8365 25.8911 17.5985 27.6017 14.7078Z" stroke="#252525" stroke-miterlimit="10"/>
<path d="M14.0969 18.4378C16.0858 18.4378 17.6982 16.7679 17.6982 14.7079C17.6982 12.648 16.0858 10.978 14.0969 10.978C12.108 10.978 10.4956 12.648 10.4956 14.7079C10.4956 16.7679 12.108 18.4378 14.0969 18.4378Z" stroke="#252525" stroke-miterlimit="10"/>
</g>
<defs>
<clipPath id="clip0">
<rect x="0.0517578" y="0.161133" width="28" height="29" fill="white"/>
</clipPath>
</defs>
</svg>
