<svg width="28" height="29" viewBox="0 0 28 29" fill="none" xmlns="http://www.w3.org/2000/svg">
<path d="M13.9258 0.714844V28.551" stroke="black" stroke-miterlimit="10"/>
<path d="M0.0078125 14.6328H27.844" stroke="black" stroke-miterlimit="10"/>
<path d="M4.05664 24.5021L23.795 4.76367" stroke="black" stroke-miterlimit="10"/>
<path d="M23.795 24.5021L4.05664 4.76367" stroke="black" stroke-miterlimit="10"/>
<path d="M13.9257 19.512C16.6201 19.512 18.8045 17.3277 18.8045 14.6332C18.8045 11.9387 16.6201 9.75439 13.9257 9.75439C11.2312 9.75439 9.04688 11.9387 9.04688 14.6332C9.04688 17.3277 11.2312 19.512 13.9257 19.512Z" fill="#ECDCCC"/>
<path d="M13.9258 10.1027C16.4349 10.1027 18.4561 12.1239 18.4561 14.633C18.4561 17.1421 16.4349 19.1633 13.9258 19.1633C11.4167 19.1633 9.39546 17.1421 9.39546 14.633C9.39546 12.1239 11.4167 10.1027 13.9258 10.1027ZM13.9258 9.40576C11.0682 9.40576 8.69849 11.7755 8.69849 14.633C8.69849 17.4906 11.0682 19.8603 13.9258 19.8603C16.7833 19.8603 19.153 17.4906 19.153 14.633C19.153 11.7755 16.7833 9.40576 13.9258 9.40576Z" fill="#252525"/>
</svg>
