<svg width="28" height="122" viewBox="0 0 28 122" fill="none" xmlns="http://www.w3.org/2000/svg">
<mask id="path-1-inside-1" fill="white">
<path fill-rule="evenodd" clip-rule="evenodd" d="M13.7857 0.220703C10.2213 0.220703 7.33183 3.11018 7.33183 6.67455V95.9097C3.07518 98.2083 0.183105 102.71 0.183105 107.887C0.183105 115.399 6.27316 121.489 13.7856 121.489C21.2981 121.489 27.3881 115.399 27.3881 107.887C27.3881 102.71 24.4961 98.2084 20.2395 95.9098V6.67456C20.2395 3.11019 17.3501 0.220703 13.7857 0.220703Z"/>
</mask>
<path fill-rule="evenodd" clip-rule="evenodd" d="M13.7857 0.220703C10.2213 0.220703 7.33183 3.11018 7.33183 6.67455V95.9097C3.07518 98.2083 0.183105 102.71 0.183105 107.887C0.183105 115.399 6.27316 121.489 13.7856 121.489C21.2981 121.489 27.3881 115.399 27.3881 107.887C27.3881 102.71 24.4961 98.2084 20.2395 95.9098V6.67456C20.2395 3.11019 17.3501 0.220703 13.7857 0.220703Z" fill="#ECDCCC"/>
<path d="M7.33183 95.9097L7.80697 96.7897L8.33183 96.5062V95.9097H7.33183ZM20.2395 95.9098H19.2395V96.5063L19.7644 96.7897L20.2395 95.9098ZM8.33183 6.67455C8.33183 3.66247 10.7736 1.2207 13.7857 1.2207V-0.779297C9.66904 -0.779297 6.33183 2.5579 6.33183 6.67455H8.33183ZM8.33183 95.9097V6.67455H6.33183V95.9097H8.33183ZM1.18311 107.887C1.18311 103.092 3.86069 98.9206 7.80697 96.7897L6.8567 95.0298C2.28967 97.4959 -0.816895 102.328 -0.816895 107.887H1.18311ZM13.7856 120.489C6.82544 120.489 1.18311 114.847 1.18311 107.887H-0.816895C-0.816895 115.951 5.72087 122.489 13.7856 122.489V120.489ZM26.3881 107.887C26.3881 114.847 20.7458 120.489 13.7856 120.489V122.489C21.8504 122.489 28.3881 115.951 28.3881 107.887H26.3881ZM19.7644 96.7897C23.7106 98.9207 26.3881 103.092 26.3881 107.887H28.3881C28.3881 102.328 25.2816 97.4961 20.7147 95.0299L19.7644 96.7897ZM19.2395 6.67456V95.9098H21.2395V6.67456H19.2395ZM13.7857 1.2207C16.7978 1.2207 19.2395 3.66248 19.2395 6.67456H21.2395C21.2395 2.55791 17.9023 -0.779297 13.7857 -0.779297V1.2207Z" fill="#252525" mask="url(#path-1-inside-1)"/>
<mask id="mask0" mask-type="alpha" maskUnits="userSpaceOnUse" x="0" y="0" width="28" height="122">
<path fill-rule="evenodd" clip-rule="evenodd" d="M13.7857 0.220703C10.2213 0.220703 7.33183 3.11018 7.33183 6.67455V95.9097C3.07518 98.2083 0.183105 102.71 0.183105 107.887C0.183105 115.399 6.27316 121.489 13.7856 121.489C21.2981 121.489 27.3881 115.399 27.3881 107.887C27.3881 102.71 24.4961 98.2084 20.2395 95.9098V6.67456C20.2395 3.11019 17.3501 0.220703 13.7857 0.220703Z" fill="#C4C4C4"/>
</mask>
<g mask="url(#mask0)">
<rect x="-7.80518" y="39.4438" width="41.9478" height="83.0454" fill="#252525"/>
</g>
</svg>
