<svg width="66" height="10" viewBox="0 0 66 10" fill="none" xmlns="http://www.w3.org/2000/svg">
<path d="M1.48115 10V2.1295C1.19315 2.3725 0.761149 2.6335 0.185148 2.9125V2.44C0.851149 1.873 1.33715 1.279 1.64315 0.658H1.88615C2.20115 1.279 2.68715 1.873 3.34415 2.44V2.9125C2.76815 2.6335 2.33615 2.3725 2.04815 2.1295V10H1.48115ZM16.9587 10V2.1295C16.6707 2.3725 16.2387 2.6335 15.6627 2.9125V2.44C16.3287 1.873 16.8147 1.279 17.1207 0.658H17.3637C17.6787 1.279 18.1647 1.873 18.8217 2.44V2.9125C18.2457 2.6335 17.8137 2.3725 17.5257 2.1295V10H16.9587ZM32.4362 10V2.1295C32.1482 2.3725 31.7162 2.6335 31.1402 2.9125V2.44C31.8062 1.873 32.2922 1.279 32.5982 0.658H32.8412C33.1562 1.279 33.6422 1.873 34.2992 2.44V2.9125C33.7232 2.6335 33.2912 2.3725 33.0032 2.1295V10H32.4362ZM47.9138 10V2.1295C47.6258 2.3725 47.1938 2.6335 46.6178 2.9125V2.44C47.2838 1.873 47.7698 1.279 48.0758 0.658H48.3188C48.6338 1.279 49.1198 1.873 49.7768 2.44V2.9125C49.2008 2.6335 48.7688 2.3725 48.4808 2.1295V10H47.9138ZM63.3913 10V2.1295C63.1033 2.3725 62.6713 2.6335 62.0953 2.9125V2.44C62.7613 1.873 63.2473 1.279 63.5533 0.658H63.7963C64.1113 1.279 64.5973 1.873 65.2543 2.44V2.9125C64.6783 2.6335 64.2463 2.3725 63.9583 2.1295V10H63.3913Z" fill="#ECDCCC"/>
</svg>
